M48
; DRILL file {KiCad (5.1.10-1-10_14)} date Monday, September 13, 2021 at 08:12:19 PM
; FORMAT={-:-/ absolute / inch / decimal}
; #@! TF.CreationDate,2021-09-13T20:12:19+02:00
; #@! TF.GenerationSoftware,Kicad,Pcbnew,(5.1.10-1-10_14)
; #@! TF.FileFunction,Plated,1,2,PTH
FMAT,2
INCH
T1C0.0157
T2C0.0236
T3C0.0276
T4C0.0315
T5C0.0320
T6C0.0354
T7C0.0394
T8C0.0433
%
G90
G05
T1
X3.1386Y-4.015
X3.204Y-5.3994
X3.2615Y-3.567
X3.2726Y-4.2591
X3.2854Y-2.448
X3.3076Y-4.3687
X3.3083Y-3.898
X3.3451Y-3.7729
X3.3997Y-3.8737
X3.513Y-4.5278
X3.5814Y-2.5131
X3.6219Y-2.3948
X3.6347Y-2.9928
X3.6959Y-3.0599
X3.7387Y-3.8609
X3.7452Y-4.2395
X3.7804Y-4.6084
X3.7988Y-4.2931
X3.8488Y-4.3503
X3.8922Y-2.937
X3.9349Y-4.4196
X3.9777Y-3.5529
X4.0454Y-3.9052
X4.0663Y-3.4192
X4.1013Y-3.5334
X4.2236Y-3.8388
T3
X3.1625Y-4.2143
X3.165Y-4.5425
X3.165Y-4.6575
X3.17Y-4.1139
X3.17Y-4.3146
X3.175Y-3.485
X3.175Y-4.415
X3.18Y-3.26
X3.18Y-3.3725
X3.3625Y-4.2143
X3.365Y-4.5425
X3.365Y-4.6575
X3.37Y-4.1139
X3.37Y-4.3146
X3.375Y-3.485
X3.375Y-4.415
X3.38Y-3.26
X3.38Y-3.3725
X3.615Y-4.6525
X3.815Y-4.6525
X4.01Y-2.245
X4.01Y-2.3569
X4.01Y-2.4687
X4.01Y-2.5806
X4.0175Y-2.6925
X4.02Y-4.125
X4.02Y-4.2254
X4.02Y-4.3257
X4.02Y-4.4261
X4.0225Y-3.2675
X4.0225Y-3.38
X4.0225Y-3.4925
X4.21Y-2.245
X4.21Y-2.3569
X4.21Y-2.4687
X4.21Y-2.5806
X4.2175Y-2.6925
X4.22Y-4.125
X4.22Y-4.2254
X4.22Y-4.3257
X4.22Y-4.4261
X4.2225Y-3.2675
X4.2225Y-3.38
X4.2225Y-3.4925
T4
X3.17Y-2.3075
X3.1763Y-2.4536
X3.1763Y-2.6131
X3.2575Y-3.67
X3.2575Y-3.97
X3.3125Y-2.82
X3.3125Y-3.12
X3.3575Y-3.67
X3.3575Y-3.97
X3.3669Y-2.3075
X3.3732Y-2.4536
X3.3732Y-2.6131
X3.4125Y-2.82
X3.4125Y-3.12
X3.4575Y-3.67
X3.4575Y-3.97
X3.5125Y-2.82
X3.5125Y-3.12
X3.5575Y-3.67
X3.5575Y-3.97
X3.6125Y-2.82
X3.6125Y-3.12
X3.845Y-3.6975
X3.845Y-3.9975
X3.945Y-3.6975
X3.945Y-3.9975
X4.0025Y-4.6175
X4.045Y-3.6975
X4.045Y-3.9975
X4.1025Y-4.6175
X4.145Y-3.6975
X4.145Y-3.9975
X4.2025Y-4.6175
T5
X3.8375Y-2.8125
X3.8375Y-3.1125
X3.9375Y-2.8125
X3.9375Y-3.1125
X4.0375Y-2.8125
X4.0375Y-3.1125
X4.1375Y-2.8125
X4.1375Y-3.1125
T6
X3.2225Y-4.92
X3.2225Y-5.22
X4.1575Y-4.9125
X4.1575Y-5.2125
T7
X3.5975Y-2.64
X3.5975Y-3.5575
X3.5975Y-4.4975
X3.6425Y-5.305
X3.6425Y-5.405
X3.6425Y-5.505
X3.6425Y-5.605
X3.6425Y-5.705
X3.6959Y-2.64
X3.6959Y-3.5575
X3.6959Y-4.4975
X3.7425Y-5.305
X3.7425Y-5.405
X3.7425Y-5.505
X3.7425Y-5.605
X3.7425Y-5.705
X3.7944Y-2.64
X3.7944Y-3.5575
X3.7944Y-4.4975
T2
G00X3.4522Y-4.8049
M15
G01X3.4128Y-4.8049
M16
G05
G00X3.4522Y-4.9269
M15
G01X3.4128Y-4.9269
M16
G05
G00X3.4522Y-5.2537
M15
G01X3.4128Y-5.2537
M16
G05
G00X3.4547Y-5.4099
M15
G01X3.4153Y-5.4099
M16
G05
G00X3.4547Y-5.5319
M15
G01X3.4153Y-5.5319
M16
G05
G00X3.4547Y-5.8587
M15
G01X3.4153Y-5.8587
M16
G05
G00X3.9722Y-4.8049
M15
G01X3.9328Y-4.8049
M16
G05
G00X3.9722Y-4.9269
M15
G01X3.9328Y-4.9269
M16
G05
G00X3.9722Y-5.2537
M15
G01X3.9328Y-5.2537
M16
G05
G00X3.9772Y-5.4099
M15
G01X3.9378Y-5.4099
M16
G05
G00X3.9772Y-5.5319
M15
G01X3.9378Y-5.5319
M16
G05
G00X3.9772Y-5.8587
M15
G01X3.9378Y-5.8587
M16
G05
T8
G00X3.5069Y-2.3585
M15
G01X3.5069Y-2.3309
M16
G05
G00X3.5069Y-3.276
M15
G01X3.5069Y-3.2484
M16
G05
G00X3.5069Y-4.216
M15
G01X3.5069Y-4.1884
M16
G05
G00X3.8849Y-2.3585
M15
G01X3.8849Y-2.3309
M16
G05
G00X3.8849Y-3.276
M15
G01X3.8849Y-3.2484
M16
G05
G00X3.8849Y-4.216
M15
G01X3.8849Y-4.1884
M16
G05
T0
M30
