G04 #@! TF.GenerationSoftware,KiCad,Pcbnew,(5.1.10-1-10_14)*
G04 #@! TF.CreationDate,2021-09-13T20:12:19+02:00*
G04 #@! TF.ProjectId,Ring_fold_main,52696e67-5f66-46f6-9c64-5f6d61696e2e,rev?*
G04 #@! TF.SameCoordinates,Original*
G04 #@! TF.FileFunction,Legend,Top*
G04 #@! TF.FilePolarity,Positive*
%FSLAX46Y46*%
G04 Gerber Fmt 4.6, Leading zero omitted, Abs format (unit mm)*
G04 Created by KiCad (PCBNEW (5.1.10-1-10_14)) date 2021-09-13 20:12:19*
%MOMM*%
%LPD*%
G01*
G04 APERTURE LIST*
%ADD10C,0.120000*%
%ADD11C,0.200000*%
%ADD12C,0.150000*%
%ADD13O,1.400000X1.400000*%
%ADD14C,1.400000*%
%ADD15O,1.800000X1.800000*%
%ADD16R,1.800000X1.800000*%
%ADD17R,1.500000X1.500000*%
%ADD18C,1.500000*%
%ADD19O,1.600000X1.600000*%
%ADD20R,1.600000X1.600000*%
%ADD21O,2.720000X3.240000*%
%ADD22C,1.800000*%
%ADD23O,3.100000X2.300000*%
%ADD24C,1.700000*%
%ADD25C,1.397000*%
%ADD26R,1.397000X1.397000*%
%ADD27C,1.600000*%
G04 APERTURE END LIST*
D10*
X98746500Y-54586000D02*
X89006500Y-54586000D01*
X98746500Y-66176000D02*
X97256500Y-66176000D01*
X98746500Y-57646000D02*
X98746500Y-54586000D01*
X88996500Y-66176000D02*
X88996500Y-61456000D01*
X89006500Y-57646000D02*
X89006500Y-54586000D01*
X98746500Y-66176000D02*
X98746500Y-61456000D01*
X90186500Y-66176000D02*
X89006500Y-66176000D01*
X93086500Y-66176000D02*
X92556500Y-66176000D01*
X95536500Y-66176000D02*
X94706500Y-66176000D01*
X98746500Y-77890500D02*
X89006500Y-77890500D01*
X98746500Y-89480500D02*
X97256500Y-89480500D01*
X98746500Y-80950500D02*
X98746500Y-77890500D01*
X88996500Y-89480500D02*
X88996500Y-84760500D01*
X89006500Y-80950500D02*
X89006500Y-77890500D01*
X98746500Y-89480500D02*
X98746500Y-84760500D01*
X90186500Y-89480500D02*
X89006500Y-89480500D01*
X93086500Y-89480500D02*
X92556500Y-89480500D01*
X95536500Y-89480500D02*
X94706500Y-89480500D01*
X98746500Y-101766000D02*
X89006500Y-101766000D01*
X98746500Y-113356000D02*
X97256500Y-113356000D01*
X98746500Y-104826000D02*
X98746500Y-101766000D01*
X88996500Y-113356000D02*
X88996500Y-108636000D01*
X89006500Y-104826000D02*
X89006500Y-101766000D01*
X98746500Y-113356000D02*
X98746500Y-108636000D01*
X90186500Y-113356000D02*
X89006500Y-113356000D01*
X93086500Y-113356000D02*
X92556500Y-113356000D01*
X95536500Y-113356000D02*
X94706500Y-113356000D01*
D11*
X96020000Y-139391000D02*
X96020000Y-149891000D01*
X105020000Y-139391000D02*
X105020000Y-149891000D01*
X105020000Y-149891000D02*
X102120000Y-149891000D01*
X98920000Y-149891000D02*
X96020000Y-149891000D01*
X105020000Y-139391000D02*
X102020000Y-139391000D01*
X99020000Y-139391000D02*
X96020000Y-139391000D01*
D10*
X103720000Y-143891000D02*
G75*
G03*
X103720000Y-143891000I-3200000J0D01*
G01*
D11*
X95894000Y-124024000D02*
X95894000Y-134524000D01*
X104894000Y-124024000D02*
X104894000Y-134524000D01*
X104894000Y-134524000D02*
X101994000Y-134524000D01*
X98794000Y-134524000D02*
X95894000Y-134524000D01*
X104894000Y-124024000D02*
X101894000Y-124024000D01*
X98894000Y-124024000D02*
X95894000Y-124024000D01*
D10*
X103594000Y-128524000D02*
G75*
G03*
X103594000Y-128524000I-3200000J0D01*
G01*
D11*
X82749000Y-139391000D02*
X82749000Y-149891000D01*
X91749000Y-139391000D02*
X91749000Y-149891000D01*
X91749000Y-149891000D02*
X88849000Y-149891000D01*
X85649000Y-149891000D02*
X82749000Y-149891000D01*
X91749000Y-139391000D02*
X88749000Y-139391000D01*
X85749000Y-139391000D02*
X82749000Y-139391000D01*
D10*
X90449000Y-143891000D02*
G75*
G03*
X90449000Y-143891000I-3200000J0D01*
G01*
D11*
X82685500Y-124024000D02*
X82685500Y-134524000D01*
X91685500Y-124024000D02*
X91685500Y-134524000D01*
X91685500Y-134524000D02*
X88785500Y-134524000D01*
X85585500Y-134524000D02*
X82685500Y-134524000D01*
X91685500Y-124024000D02*
X88685500Y-124024000D01*
X85685500Y-124024000D02*
X82685500Y-124024000D01*
D10*
X90385500Y-128524000D02*
G75*
G03*
X90385500Y-128524000I-3200000J0D01*
G01*
D12*
X77660666Y-56768880D02*
X77327333Y-56292690D01*
X77089238Y-56768880D02*
X77089238Y-55768880D01*
X77470190Y-55768880D01*
X77565428Y-55816500D01*
X77613047Y-55864119D01*
X77660666Y-55959357D01*
X77660666Y-56102214D01*
X77613047Y-56197452D01*
X77565428Y-56245071D01*
X77470190Y-56292690D01*
X77089238Y-56292690D01*
X78089238Y-56245071D02*
X78422571Y-56245071D01*
X78565428Y-56768880D02*
X78089238Y-56768880D01*
X78089238Y-55768880D01*
X78565428Y-55768880D01*
X79327333Y-56245071D02*
X78994000Y-56245071D01*
X78994000Y-56768880D02*
X78994000Y-55768880D01*
X79470190Y-55768880D01*
X79994000Y-55768880D02*
X79994000Y-56006976D01*
X79755904Y-55911738D02*
X79994000Y-56006976D01*
X80232095Y-55911738D01*
X79851142Y-56197452D02*
X79994000Y-56006976D01*
X80136857Y-56197452D01*
X80755904Y-55768880D02*
X80755904Y-56006976D01*
X80517809Y-55911738D02*
X80755904Y-56006976D01*
X80994000Y-55911738D01*
X80613047Y-56197452D02*
X80755904Y-56006976D01*
X80898761Y-56197452D01*
X86188880Y-63084095D02*
X86188880Y-62893619D01*
X86236500Y-62798380D01*
X86331738Y-62703142D01*
X86522214Y-62655523D01*
X86855547Y-62655523D01*
X87046023Y-62703142D01*
X87141261Y-62798380D01*
X87188880Y-62893619D01*
X87188880Y-63084095D01*
X87141261Y-63179333D01*
X87046023Y-63274571D01*
X86855547Y-63322190D01*
X86522214Y-63322190D01*
X86331738Y-63274571D01*
X86236500Y-63179333D01*
X86188880Y-63084095D01*
X86665071Y-61893619D02*
X86665071Y-62226952D01*
X87188880Y-62226952D02*
X86188880Y-62226952D01*
X86188880Y-61750761D01*
X86665071Y-61036476D02*
X86665071Y-61369809D01*
X87188880Y-61369809D02*
X86188880Y-61369809D01*
X86188880Y-60893619D01*
X87141261Y-60560285D02*
X87188880Y-60417428D01*
X87188880Y-60179333D01*
X87141261Y-60084095D01*
X87093642Y-60036476D01*
X86998404Y-59988857D01*
X86903166Y-59988857D01*
X86807928Y-60036476D01*
X86760309Y-60084095D01*
X86712690Y-60179333D01*
X86665071Y-60369809D01*
X86617452Y-60465047D01*
X86569833Y-60512666D01*
X86474595Y-60560285D01*
X86379357Y-60560285D01*
X86284119Y-60512666D01*
X86236500Y-60465047D01*
X86188880Y-60369809D01*
X86188880Y-60131714D01*
X86236500Y-59988857D01*
X86665071Y-59560285D02*
X86665071Y-59226952D01*
X87188880Y-59084095D02*
X87188880Y-59560285D01*
X86188880Y-59560285D01*
X86188880Y-59084095D01*
X86188880Y-58798380D02*
X86188880Y-58226952D01*
X87188880Y-58512666D02*
X86188880Y-58512666D01*
X87188880Y-57369809D02*
X87188880Y-57941238D01*
X87188880Y-57655523D02*
X86188880Y-57655523D01*
X86331738Y-57750761D01*
X86426976Y-57846000D01*
X86474595Y-57941238D01*
X86188880Y-86888595D02*
X86188880Y-86317166D01*
X87188880Y-86602880D02*
X86188880Y-86602880D01*
X87188880Y-85983833D02*
X86188880Y-85983833D01*
X86665071Y-85983833D02*
X86665071Y-85412404D01*
X87188880Y-85412404D02*
X86188880Y-85412404D01*
X87188880Y-84364785D02*
X86712690Y-84698119D01*
X87188880Y-84936214D02*
X86188880Y-84936214D01*
X86188880Y-84555261D01*
X86236500Y-84460023D01*
X86284119Y-84412404D01*
X86379357Y-84364785D01*
X86522214Y-84364785D01*
X86617452Y-84412404D01*
X86665071Y-84460023D01*
X86712690Y-84555261D01*
X86712690Y-84936214D01*
X86665071Y-83936214D02*
X86665071Y-83602880D01*
X87188880Y-83460023D02*
X87188880Y-83936214D01*
X86188880Y-83936214D01*
X86188880Y-83460023D01*
X87141261Y-83079071D02*
X87188880Y-82936214D01*
X87188880Y-82698119D01*
X87141261Y-82602880D01*
X87093642Y-82555261D01*
X86998404Y-82507642D01*
X86903166Y-82507642D01*
X86807928Y-82555261D01*
X86760309Y-82602880D01*
X86712690Y-82698119D01*
X86665071Y-82888595D01*
X86617452Y-82983833D01*
X86569833Y-83031452D01*
X86474595Y-83079071D01*
X86379357Y-83079071D01*
X86284119Y-83031452D01*
X86236500Y-82983833D01*
X86188880Y-82888595D01*
X86188880Y-82650500D01*
X86236500Y-82507642D01*
X87188880Y-82079071D02*
X86188880Y-82079071D01*
X86665071Y-82079071D02*
X86665071Y-81507642D01*
X87188880Y-81507642D02*
X86188880Y-81507642D01*
X87188880Y-80507642D02*
X87188880Y-81079071D01*
X87188880Y-80793357D02*
X86188880Y-80793357D01*
X86331738Y-80888595D01*
X86426976Y-80983833D01*
X86474595Y-81079071D01*
X87188880Y-108954571D02*
X86712690Y-109287904D01*
X87188880Y-109526000D02*
X86188880Y-109526000D01*
X86188880Y-109145047D01*
X86236500Y-109049809D01*
X86284119Y-109002190D01*
X86379357Y-108954571D01*
X86522214Y-108954571D01*
X86617452Y-109002190D01*
X86665071Y-109049809D01*
X86712690Y-109145047D01*
X86712690Y-109526000D01*
X86903166Y-108573619D02*
X86903166Y-108097428D01*
X87188880Y-108668857D02*
X86188880Y-108335523D01*
X87188880Y-108002190D01*
X86188880Y-107811714D02*
X86188880Y-107240285D01*
X87188880Y-107526000D02*
X86188880Y-107526000D01*
X86665071Y-106906952D02*
X86665071Y-106573619D01*
X87188880Y-106430761D02*
X87188880Y-106906952D01*
X86188880Y-106906952D01*
X86188880Y-106430761D01*
X87188880Y-105478380D02*
X87188880Y-106049809D01*
X87188880Y-105764095D02*
X86188880Y-105764095D01*
X86331738Y-105859333D01*
X86426976Y-105954571D01*
X86474595Y-106049809D01*
X101543809Y-150143380D02*
X101734285Y-150143380D01*
X101829523Y-150191000D01*
X101924761Y-150286238D01*
X101972380Y-150476714D01*
X101972380Y-150810047D01*
X101924761Y-151000523D01*
X101829523Y-151095761D01*
X101734285Y-151143380D01*
X101543809Y-151143380D01*
X101448571Y-151095761D01*
X101353333Y-151000523D01*
X101305714Y-150810047D01*
X101305714Y-150476714D01*
X101353333Y-150286238D01*
X101448571Y-150191000D01*
X101543809Y-150143380D01*
X102400952Y-150143380D02*
X102400952Y-150952904D01*
X102448571Y-151048142D01*
X102496190Y-151095761D01*
X102591428Y-151143380D01*
X102781904Y-151143380D01*
X102877142Y-151095761D01*
X102924761Y-151048142D01*
X102972380Y-150952904D01*
X102972380Y-150143380D01*
X103305714Y-150143380D02*
X103877142Y-150143380D01*
X103591428Y-151143380D02*
X103591428Y-150143380D01*
X104734285Y-151143380D02*
X104162857Y-151143380D01*
X104448571Y-151143380D02*
X104448571Y-150143380D01*
X104353333Y-150286238D01*
X104258095Y-150381476D01*
X104162857Y-150429095D01*
X101060666Y-135776380D02*
X101060666Y-134776380D01*
X101394000Y-135490666D01*
X101727333Y-134776380D01*
X101727333Y-135776380D01*
X102394000Y-134776380D02*
X102584476Y-134776380D01*
X102679714Y-134824000D01*
X102774952Y-134919238D01*
X102822571Y-135109714D01*
X102822571Y-135443047D01*
X102774952Y-135633523D01*
X102679714Y-135728761D01*
X102584476Y-135776380D01*
X102394000Y-135776380D01*
X102298761Y-135728761D01*
X102203523Y-135633523D01*
X102155904Y-135443047D01*
X102155904Y-135109714D01*
X102203523Y-134919238D01*
X102298761Y-134824000D01*
X102394000Y-134776380D01*
X103251142Y-135776380D02*
X103251142Y-134776380D01*
X103489238Y-134776380D01*
X103632095Y-134824000D01*
X103727333Y-134919238D01*
X103774952Y-135014476D01*
X103822571Y-135204952D01*
X103822571Y-135347809D01*
X103774952Y-135538285D01*
X103727333Y-135633523D01*
X103632095Y-135728761D01*
X103489238Y-135776380D01*
X103251142Y-135776380D01*
X104774952Y-135776380D02*
X104203523Y-135776380D01*
X104489238Y-135776380D02*
X104489238Y-134776380D01*
X104394000Y-134919238D01*
X104298761Y-135014476D01*
X104203523Y-135062095D01*
X88749000Y-151143380D02*
X88749000Y-150143380D01*
X89225190Y-151143380D02*
X89225190Y-150143380D01*
X89796619Y-151143380D01*
X89796619Y-150143380D01*
X90225190Y-150238619D02*
X90272809Y-150191000D01*
X90368047Y-150143380D01*
X90606142Y-150143380D01*
X90701380Y-150191000D01*
X90749000Y-150238619D01*
X90796619Y-150333857D01*
X90796619Y-150429095D01*
X90749000Y-150571952D01*
X90177571Y-151143380D01*
X90796619Y-151143380D01*
X89090261Y-135681142D02*
X89042642Y-135728761D01*
X88899785Y-135776380D01*
X88804547Y-135776380D01*
X88661690Y-135728761D01*
X88566452Y-135633523D01*
X88518833Y-135538285D01*
X88471214Y-135347809D01*
X88471214Y-135204952D01*
X88518833Y-135014476D01*
X88566452Y-134919238D01*
X88661690Y-134824000D01*
X88804547Y-134776380D01*
X88899785Y-134776380D01*
X89042642Y-134824000D01*
X89090261Y-134871619D01*
X89375976Y-134776380D02*
X89709309Y-135776380D01*
X90042642Y-134776380D01*
X90899785Y-135776380D02*
X90328357Y-135776380D01*
X90614071Y-135776380D02*
X90614071Y-134776380D01*
X90518833Y-134919238D01*
X90423595Y-135014476D01*
X90328357Y-135062095D01*
%LPC*%
D13*
X85725000Y-112141000D03*
D14*
X80645000Y-112141000D03*
D13*
X107188000Y-112422000D03*
D14*
X102108000Y-112422000D03*
D13*
X85471000Y-118300000D03*
D14*
X80391000Y-118300000D03*
D13*
X106934000Y-65547900D03*
D14*
X101854000Y-65547900D03*
D13*
X107124000Y-68389500D03*
D14*
X102044000Y-68389500D03*
D13*
X85471000Y-115380000D03*
D14*
X80391000Y-115380000D03*
D13*
X96901000Y-118174000D03*
D14*
X91821000Y-118174000D03*
D13*
X85598000Y-104494000D03*
D14*
X80518000Y-104494000D03*
D13*
X85598000Y-109592000D03*
D14*
X80518000Y-109592000D03*
D13*
X85852000Y-82804000D03*
D14*
X80772000Y-82804000D03*
D13*
X85725000Y-88519000D03*
D14*
X80645000Y-88519000D03*
D13*
X107252000Y-82994500D03*
D14*
X102172000Y-82994500D03*
D13*
X106934000Y-62706200D03*
D14*
X101854000Y-62706200D03*
D13*
X107188000Y-107324000D03*
D14*
X102108000Y-107324000D03*
D13*
X106934000Y-59864600D03*
D14*
X101854000Y-59864600D03*
D13*
X85407500Y-107043000D03*
D14*
X80327500Y-107043000D03*
D13*
X107188000Y-104775000D03*
D14*
X102108000Y-104775000D03*
D13*
X107252000Y-85852000D03*
D14*
X102172000Y-85852000D03*
D13*
X106934000Y-57023000D03*
D14*
X101854000Y-57023000D03*
D13*
X107188000Y-109873000D03*
D14*
X102108000Y-109873000D03*
D13*
X85852000Y-85661500D03*
D14*
X80772000Y-85661500D03*
D13*
X107252000Y-88709500D03*
D14*
X102172000Y-88709500D03*
D15*
X105600000Y-124778000D03*
D16*
X105600000Y-132398000D03*
D15*
X81851500Y-124968000D03*
D16*
X81851500Y-132588000D03*
D17*
X101664000Y-117284000D03*
D18*
X106744000Y-117284000D03*
X104204000Y-117284000D03*
D19*
X105283000Y-93916000D03*
X97663000Y-101536000D03*
X102743000Y-93916000D03*
X100203000Y-101536000D03*
X100203000Y-93916000D03*
X102743000Y-101536000D03*
X97663000Y-93916000D03*
D20*
X105283000Y-101536000D03*
D19*
X90360500Y-93218000D03*
X82740500Y-100838000D03*
X87820500Y-93218000D03*
X85280500Y-100838000D03*
X85280500Y-93218000D03*
X87820500Y-100838000D03*
X82740500Y-93218000D03*
D20*
X90360500Y-100838000D03*
D19*
X91757500Y-71628000D03*
X84137500Y-79248000D03*
X89217500Y-71628000D03*
X86677500Y-79248000D03*
X86677500Y-71628000D03*
X89217500Y-79248000D03*
X84137500Y-71628000D03*
D20*
X91757500Y-79248000D03*
D21*
X89076500Y-59556000D03*
X98676500Y-59556000D03*
D22*
X96376500Y-67056000D03*
X93876500Y-67056000D03*
D16*
X91376500Y-67056000D03*
D21*
X89076500Y-82860500D03*
X98676500Y-82860500D03*
D22*
X96376500Y-90360500D03*
X93876500Y-90360500D03*
D16*
X91376500Y-90360500D03*
D21*
X89076500Y-106736000D03*
X98676500Y-106736000D03*
D22*
X96376500Y-114236000D03*
X93876500Y-114236000D03*
D16*
X91376500Y-114236000D03*
G36*
G01*
X101820000Y-148161000D02*
X101820000Y-149461000D01*
G75*
G02*
X101170000Y-150111000I-650000J0D01*
G01*
X99870000Y-150111000D01*
G75*
G02*
X99220000Y-149461000I0J650000D01*
G01*
X99220000Y-148161000D01*
G75*
G02*
X99870000Y-147511000I650000J0D01*
G01*
X101170000Y-147511000D01*
G75*
G02*
X101820000Y-148161000I0J-650000D01*
G01*
G37*
D23*
X100520000Y-137411000D03*
G36*
G01*
X101820000Y-139861000D02*
X101820000Y-141161000D01*
G75*
G02*
X101170000Y-141811000I-650000J0D01*
G01*
X99870000Y-141811000D01*
G75*
G02*
X99220000Y-141161000I0J650000D01*
G01*
X99220000Y-139861000D01*
G75*
G02*
X99870000Y-139211000I650000J0D01*
G01*
X101170000Y-139211000D01*
G75*
G02*
X101820000Y-139861000I0J-650000D01*
G01*
G37*
G36*
G01*
X101694000Y-132794000D02*
X101694000Y-134094000D01*
G75*
G02*
X101044000Y-134744000I-650000J0D01*
G01*
X99744000Y-134744000D01*
G75*
G02*
X99094000Y-134094000I0J650000D01*
G01*
X99094000Y-132794000D01*
G75*
G02*
X99744000Y-132144000I650000J0D01*
G01*
X101044000Y-132144000D01*
G75*
G02*
X101694000Y-132794000I0J-650000D01*
G01*
G37*
X100394000Y-122044000D03*
G36*
G01*
X101694000Y-124494000D02*
X101694000Y-125794000D01*
G75*
G02*
X101044000Y-126444000I-650000J0D01*
G01*
X99744000Y-126444000D01*
G75*
G02*
X99094000Y-125794000I0J650000D01*
G01*
X99094000Y-124494000D01*
G75*
G02*
X99744000Y-123844000I650000J0D01*
G01*
X101044000Y-123844000D01*
G75*
G02*
X101694000Y-124494000I0J-650000D01*
G01*
G37*
D24*
X92519500Y-144907000D03*
X92519500Y-142367000D03*
X92519500Y-139827000D03*
X92519500Y-137287000D03*
X92519500Y-134747000D03*
X95059500Y-144907000D03*
X95059500Y-142367000D03*
X95059500Y-139827000D03*
X95059500Y-137287000D03*
G36*
G01*
X95909500Y-134147000D02*
X95909500Y-135347000D01*
G75*
G02*
X95659500Y-135597000I-250000J0D01*
G01*
X94459500Y-135597000D01*
G75*
G02*
X94209500Y-135347000I0J250000D01*
G01*
X94209500Y-134147000D01*
G75*
G02*
X94459500Y-133897000I250000J0D01*
G01*
X95659500Y-133897000D01*
G75*
G02*
X95909500Y-134147000I0J-250000D01*
G01*
G37*
G36*
G01*
X88549000Y-148161000D02*
X88549000Y-149461000D01*
G75*
G02*
X87899000Y-150111000I-650000J0D01*
G01*
X86599000Y-150111000D01*
G75*
G02*
X85949000Y-149461000I0J650000D01*
G01*
X85949000Y-148161000D01*
G75*
G02*
X86599000Y-147511000I650000J0D01*
G01*
X87899000Y-147511000D01*
G75*
G02*
X88549000Y-148161000I0J-650000D01*
G01*
G37*
D23*
X87249000Y-137411000D03*
G36*
G01*
X88549000Y-139861000D02*
X88549000Y-141161000D01*
G75*
G02*
X87899000Y-141811000I-650000J0D01*
G01*
X86599000Y-141811000D01*
G75*
G02*
X85949000Y-141161000I0J650000D01*
G01*
X85949000Y-139861000D01*
G75*
G02*
X86599000Y-139211000I650000J0D01*
G01*
X87899000Y-139211000D01*
G75*
G02*
X88549000Y-139861000I0J-650000D01*
G01*
G37*
D25*
X105092000Y-71437500D03*
X102552000Y-71437500D03*
X100012000Y-71437500D03*
X97472000Y-71437500D03*
X97472000Y-79057500D03*
X100012000Y-79057500D03*
X102552000Y-79057500D03*
D26*
X105092000Y-79057500D03*
G36*
G01*
X88485500Y-132794000D02*
X88485500Y-134094000D01*
G75*
G02*
X87835500Y-134744000I-650000J0D01*
G01*
X86535500Y-134744000D01*
G75*
G02*
X85885500Y-134094000I0J650000D01*
G01*
X85885500Y-132794000D01*
G75*
G02*
X86535500Y-132144000I650000J0D01*
G01*
X87835500Y-132144000D01*
G75*
G02*
X88485500Y-132794000I0J-650000D01*
G01*
G37*
D23*
X87185500Y-122044000D03*
G36*
G01*
X88485500Y-124494000D02*
X88485500Y-125794000D01*
G75*
G02*
X87835500Y-126444000I-650000J0D01*
G01*
X86535500Y-126444000D01*
G75*
G02*
X85885500Y-125794000I0J650000D01*
G01*
X85885500Y-124494000D01*
G75*
G02*
X86535500Y-123844000I650000J0D01*
G01*
X87835500Y-123844000D01*
G75*
G02*
X88485500Y-124494000I0J-650000D01*
G01*
G37*
D27*
X85678500Y-66371500D03*
X80678500Y-66371500D03*
X85678500Y-62321500D03*
X80678500Y-62321500D03*
X85518000Y-58610500D03*
X80518000Y-58610500D03*
M02*
