G04 #@! TF.GenerationSoftware,KiCad,Pcbnew,(5.1.10-1-10_14)*
G04 #@! TF.CreationDate,2021-09-13T20:12:19+02:00*
G04 #@! TF.ProjectId,Ring_fold_main,52696e67-5f66-46f6-9c64-5f6d61696e2e,rev?*
G04 #@! TF.SameCoordinates,Original*
G04 #@! TF.FileFunction,Legend,Bot*
G04 #@! TF.FilePolarity,Positive*
%FSLAX46Y46*%
G04 Gerber Fmt 4.6, Leading zero omitted, Abs format (unit mm)*
G04 Created by KiCad (PCBNEW (5.1.10-1-10_14)) date 2021-09-13 20:12:19*
%MOMM*%
%LPD*%
G01*
G04 APERTURE LIST*
%ADD10C,0.300000*%
%ADD11C,0.120000*%
%ADD12C,0.127000*%
%ADD13C,0.150000*%
%ADD14O,1.400000X1.400000*%
%ADD15C,1.400000*%
%ADD16O,1.800000X1.800000*%
%ADD17R,1.800000X1.800000*%
%ADD18R,1.500000X1.500000*%
%ADD19C,1.500000*%
%ADD20O,1.600000X1.600000*%
%ADD21R,1.600000X1.600000*%
%ADD22O,2.720000X3.240000*%
%ADD23C,1.800000*%
%ADD24O,3.100000X2.300000*%
%ADD25C,1.700000*%
%ADD26C,1.397000*%
%ADD27R,1.397000X1.397000*%
%ADD28C,1.600000*%
G04 APERTURE END LIST*
D10*
X106938071Y-132628785D02*
X108438071Y-132985928D01*
X107366642Y-133271642D01*
X108438071Y-133557357D01*
X106938071Y-133914500D01*
X108438071Y-135128785D02*
X107652357Y-135128785D01*
X107509500Y-135057357D01*
X107438071Y-134914500D01*
X107438071Y-134628785D01*
X107509500Y-134485928D01*
X108366642Y-135128785D02*
X108438071Y-134985928D01*
X108438071Y-134628785D01*
X108366642Y-134485928D01*
X108223785Y-134414500D01*
X108080928Y-134414500D01*
X107938071Y-134485928D01*
X107866642Y-134628785D01*
X107866642Y-134985928D01*
X107795214Y-135128785D01*
X107438071Y-135700214D02*
X108438071Y-136057357D01*
X107438071Y-136414500D01*
X108366642Y-137557357D02*
X108438071Y-137414500D01*
X108438071Y-137128785D01*
X108366642Y-136985928D01*
X108223785Y-136914500D01*
X107652357Y-136914500D01*
X107509500Y-136985928D01*
X107438071Y-137128785D01*
X107438071Y-137414500D01*
X107509500Y-137557357D01*
X107652357Y-137628785D01*
X107795214Y-137628785D01*
X107938071Y-136914500D01*
X108438071Y-139485928D02*
X108438071Y-139414500D01*
X108366642Y-139271642D01*
X108152357Y-139057357D01*
X107723785Y-138700214D01*
X107509500Y-138557357D01*
X107295214Y-138485928D01*
X107152357Y-138485928D01*
X107009500Y-138557357D01*
X106938071Y-138700214D01*
X106938071Y-138771642D01*
X107009500Y-138914500D01*
X107152357Y-138985928D01*
X107223785Y-138985928D01*
X107366642Y-138914500D01*
X107438071Y-138843071D01*
X107723785Y-138414500D01*
X107795214Y-138343071D01*
X107938071Y-138271642D01*
X108152357Y-138271642D01*
X108295214Y-138343071D01*
X108366642Y-138414500D01*
X108438071Y-138557357D01*
X108438071Y-138771642D01*
X108366642Y-138914500D01*
X108295214Y-138985928D01*
X108009500Y-139200214D01*
X107795214Y-139271642D01*
X107652357Y-139271642D01*
X107652357Y-140628785D02*
X107652357Y-140128785D01*
X108438071Y-140128785D02*
X106938071Y-140128785D01*
X106938071Y-140843071D01*
X108438071Y-141628785D02*
X108366642Y-141485928D01*
X108295214Y-141414500D01*
X108152357Y-141343071D01*
X107723785Y-141343071D01*
X107580928Y-141414500D01*
X107509500Y-141485928D01*
X107438071Y-141628785D01*
X107438071Y-141843071D01*
X107509500Y-141985928D01*
X107580928Y-142057357D01*
X107723785Y-142128785D01*
X108152357Y-142128785D01*
X108295214Y-142057357D01*
X108366642Y-141985928D01*
X108438071Y-141843071D01*
X108438071Y-141628785D01*
X108438071Y-142985928D02*
X108366642Y-142843071D01*
X108223785Y-142771642D01*
X106938071Y-142771642D01*
X108438071Y-144200214D02*
X106938071Y-144200214D01*
X108366642Y-144200214D02*
X108438071Y-144057357D01*
X108438071Y-143771642D01*
X108366642Y-143628785D01*
X108295214Y-143557357D01*
X108152357Y-143485928D01*
X107723785Y-143485928D01*
X107580928Y-143557357D01*
X107509500Y-143628785D01*
X107438071Y-143771642D01*
X107438071Y-144057357D01*
X107509500Y-144200214D01*
X107438071Y-145914500D02*
X108438071Y-146271642D01*
X107438071Y-146628785D01*
X108438071Y-147985928D02*
X108438071Y-147128785D01*
X108438071Y-147557357D02*
X106938071Y-147557357D01*
X107152357Y-147414500D01*
X107295214Y-147271642D01*
X107366642Y-147128785D01*
X108295214Y-148628785D02*
X108366642Y-148700214D01*
X108438071Y-148628785D01*
X108366642Y-148557357D01*
X108295214Y-148628785D01*
X108438071Y-148628785D01*
X106938071Y-149628785D02*
X106938071Y-149771642D01*
X107009500Y-149914500D01*
X107080928Y-149985928D01*
X107223785Y-150057357D01*
X107509500Y-150128785D01*
X107866642Y-150128785D01*
X108152357Y-150057357D01*
X108295214Y-149985928D01*
X108366642Y-149914500D01*
X108438071Y-149771642D01*
X108438071Y-149628785D01*
X108366642Y-149485928D01*
X108295214Y-149414500D01*
X108152357Y-149343071D01*
X107866642Y-149271642D01*
X107509500Y-149271642D01*
X107223785Y-149343071D01*
X107080928Y-149414500D01*
X107009500Y-149485928D01*
X106938071Y-149628785D01*
D11*
X81265000Y-113061000D02*
X85105000Y-113061000D01*
X81265000Y-111221000D02*
X85105000Y-111221000D01*
X102728000Y-113342000D02*
X106568000Y-113342000D01*
X102728000Y-111502000D02*
X106568000Y-111502000D01*
X81011000Y-119220000D02*
X84851000Y-119220000D01*
X81011000Y-117380000D02*
X84851000Y-117380000D01*
X102474000Y-66467900D02*
X106314000Y-66467900D01*
X102474000Y-64627900D02*
X106314000Y-64627900D01*
X102664000Y-69309500D02*
X106504000Y-69309500D01*
X102664000Y-67469500D02*
X106504000Y-67469500D01*
X81011000Y-116300000D02*
X84851000Y-116300000D01*
X81011000Y-114460000D02*
X84851000Y-114460000D01*
X92441000Y-119094000D02*
X96281000Y-119094000D01*
X92441000Y-117254000D02*
X96281000Y-117254000D01*
X81138000Y-105414000D02*
X84978000Y-105414000D01*
X81138000Y-103574000D02*
X84978000Y-103574000D01*
X81138000Y-110512000D02*
X84978000Y-110512000D01*
X81138000Y-108672000D02*
X84978000Y-108672000D01*
X81392000Y-83724000D02*
X85232000Y-83724000D01*
X81392000Y-81884000D02*
X85232000Y-81884000D01*
X81265000Y-89439000D02*
X85105000Y-89439000D01*
X81265000Y-87599000D02*
X85105000Y-87599000D01*
X102792000Y-83914500D02*
X106632000Y-83914500D01*
X102792000Y-82074500D02*
X106632000Y-82074500D01*
X102474000Y-63626200D02*
X106314000Y-63626200D01*
X102474000Y-61786200D02*
X106314000Y-61786200D01*
X102728000Y-108244000D02*
X106568000Y-108244000D01*
X102728000Y-106404000D02*
X106568000Y-106404000D01*
X102474000Y-60784600D02*
X106314000Y-60784600D01*
X102474000Y-58944600D02*
X106314000Y-58944600D01*
X80947500Y-107963000D02*
X84787500Y-107963000D01*
X80947500Y-106123000D02*
X84787500Y-106123000D01*
X102728000Y-105695000D02*
X106568000Y-105695000D01*
X102728000Y-103855000D02*
X106568000Y-103855000D01*
X102792000Y-86772000D02*
X106632000Y-86772000D01*
X102792000Y-84932000D02*
X106632000Y-84932000D01*
X102474000Y-57943000D02*
X106314000Y-57943000D01*
X102474000Y-56103000D02*
X106314000Y-56103000D01*
X102728000Y-110793000D02*
X106568000Y-110793000D01*
X102728000Y-108953000D02*
X106568000Y-108953000D01*
X81392000Y-86581500D02*
X85232000Y-86581500D01*
X81392000Y-84741500D02*
X85232000Y-84741500D01*
X102792000Y-89629500D02*
X106632000Y-89629500D01*
X102792000Y-87789500D02*
X106632000Y-87789500D01*
X106740000Y-131308000D02*
X107070000Y-131308000D01*
X107070000Y-131308000D02*
X107070000Y-125868000D01*
X107070000Y-125868000D02*
X106740000Y-125868000D01*
X104460000Y-131308000D02*
X104130000Y-131308000D01*
X104130000Y-131308000D02*
X104130000Y-125868000D01*
X104130000Y-125868000D02*
X104460000Y-125868000D01*
X107070000Y-130408000D02*
X104130000Y-130408000D01*
X107070000Y-130288000D02*
X104130000Y-130288000D01*
X107070000Y-130528000D02*
X104130000Y-130528000D01*
X82991500Y-131498000D02*
X83321500Y-131498000D01*
X83321500Y-131498000D02*
X83321500Y-126058000D01*
X83321500Y-126058000D02*
X82991500Y-126058000D01*
X80711500Y-131498000D02*
X80381500Y-131498000D01*
X80381500Y-131498000D02*
X80381500Y-126058000D01*
X80381500Y-126058000D02*
X80711500Y-126058000D01*
X83321500Y-130598000D02*
X80381500Y-130598000D01*
X83321500Y-130478000D02*
X80381500Y-130478000D01*
X83321500Y-130718000D02*
X80381500Y-130718000D01*
X106528184Y-116161205D02*
G75*
G03*
X106004000Y-115434000I-2324184J-1122795D01*
G01*
X106560400Y-118382807D02*
G75*
G02*
X104204000Y-119884000I-2356400J1098807D01*
G01*
X101847600Y-118382807D02*
G75*
G03*
X104204000Y-119884000I2356400J1098807D01*
G01*
X101879816Y-116161205D02*
G75*
G02*
X102404000Y-115434000I2324184J-1122795D01*
G01*
X102404000Y-115434000D02*
X106004000Y-115434000D01*
X106613000Y-96726000D02*
G75*
G03*
X106613000Y-98726000I0J-1000000D01*
G01*
X106613000Y-98726000D02*
X106613000Y-100376000D01*
X106613000Y-100376000D02*
X96333000Y-100376000D01*
X96333000Y-100376000D02*
X96333000Y-95076000D01*
X96333000Y-95076000D02*
X106613000Y-95076000D01*
X106613000Y-95076000D02*
X106613000Y-96726000D01*
X91690500Y-96028000D02*
G75*
G03*
X91690500Y-98028000I0J-1000000D01*
G01*
X91690500Y-98028000D02*
X91690500Y-99678000D01*
X91690500Y-99678000D02*
X81410500Y-99678000D01*
X81410500Y-99678000D02*
X81410500Y-94378000D01*
X81410500Y-94378000D02*
X91690500Y-94378000D01*
X91690500Y-94378000D02*
X91690500Y-96028000D01*
X93087500Y-74438000D02*
G75*
G03*
X93087500Y-76438000I0J-1000000D01*
G01*
X93087500Y-76438000D02*
X93087500Y-78088000D01*
X93087500Y-78088000D02*
X82807500Y-78088000D01*
X82807500Y-78088000D02*
X82807500Y-72788000D01*
X82807500Y-72788000D02*
X93087500Y-72788000D01*
X93087500Y-72788000D02*
X93087500Y-74438000D01*
X99739500Y-135247000D02*
X98739500Y-134747000D01*
X99739500Y-134247000D02*
X99739500Y-135247000D01*
X98739500Y-134747000D02*
X99739500Y-134247000D01*
X97039500Y-141877000D02*
X98349500Y-141877000D01*
X97039500Y-141877000D02*
X97039500Y-141877000D01*
X97039500Y-148817000D02*
X97039500Y-141877000D01*
X90539500Y-148817000D02*
X97039500Y-148817000D01*
X90539500Y-130837000D02*
X90539500Y-148817000D01*
X97039500Y-130837000D02*
X90539500Y-130837000D01*
X97039500Y-137777000D02*
X97039500Y-130837000D01*
X98349500Y-137777000D02*
X97039500Y-137777000D01*
X98349500Y-150117000D02*
X98349500Y-129537000D01*
X89229500Y-150117000D02*
X98349500Y-150117000D01*
X89229500Y-129537000D02*
X89229500Y-150117000D01*
X98349500Y-129537000D02*
X89229500Y-129537000D01*
D12*
X106362000Y-75882500D02*
G75*
G02*
X106362000Y-74930000I0J476250D01*
G01*
X106362000Y-77787500D02*
X96202000Y-77787500D01*
X96202000Y-77787500D02*
X96202000Y-72707500D01*
X96202000Y-72707500D02*
X106362000Y-72707500D01*
X106362000Y-72707500D02*
X106362000Y-77787500D01*
D11*
X80708500Y-67741500D02*
X85648500Y-67741500D01*
X80708500Y-65001500D02*
X85648500Y-65001500D01*
X80708500Y-67741500D02*
X80708500Y-67426500D01*
X80708500Y-65316500D02*
X80708500Y-65001500D01*
X85648500Y-67741500D02*
X85648500Y-67426500D01*
X85648500Y-65316500D02*
X85648500Y-65001500D01*
X80708500Y-63691500D02*
X85648500Y-63691500D01*
X80708500Y-60951500D02*
X85648500Y-60951500D01*
X80708500Y-63691500D02*
X80708500Y-63376500D01*
X80708500Y-61266500D02*
X80708500Y-60951500D01*
X85648500Y-63691500D02*
X85648500Y-63376500D01*
X85648500Y-61266500D02*
X85648500Y-60951500D01*
X80548000Y-59980500D02*
X85488000Y-59980500D01*
X80548000Y-57240500D02*
X85488000Y-57240500D01*
X80548000Y-59980500D02*
X80548000Y-59665500D01*
X80548000Y-57555500D02*
X80548000Y-57240500D01*
X85488000Y-59980500D02*
X85488000Y-59665500D01*
X85488000Y-57555500D02*
X85488000Y-57240500D01*
D13*
X83827857Y-114513380D02*
X84161190Y-114037190D01*
X84399285Y-114513380D02*
X84399285Y-113513380D01*
X84018333Y-113513380D01*
X83923095Y-113561000D01*
X83875476Y-113608619D01*
X83827857Y-113703857D01*
X83827857Y-113846714D01*
X83875476Y-113941952D01*
X83923095Y-113989571D01*
X84018333Y-114037190D01*
X84399285Y-114037190D01*
X83446904Y-113608619D02*
X83399285Y-113561000D01*
X83304047Y-113513380D01*
X83065952Y-113513380D01*
X82970714Y-113561000D01*
X82923095Y-113608619D01*
X82875476Y-113703857D01*
X82875476Y-113799095D01*
X82923095Y-113941952D01*
X83494523Y-114513380D01*
X82875476Y-114513380D01*
X82494523Y-113608619D02*
X82446904Y-113561000D01*
X82351666Y-113513380D01*
X82113571Y-113513380D01*
X82018333Y-113561000D01*
X81970714Y-113608619D01*
X81923095Y-113703857D01*
X81923095Y-113799095D01*
X81970714Y-113941952D01*
X82542142Y-114513380D01*
X81923095Y-114513380D01*
X105290857Y-114794380D02*
X105624190Y-114318190D01*
X105862285Y-114794380D02*
X105862285Y-113794380D01*
X105481333Y-113794380D01*
X105386095Y-113842000D01*
X105338476Y-113889619D01*
X105290857Y-113984857D01*
X105290857Y-114127714D01*
X105338476Y-114222952D01*
X105386095Y-114270571D01*
X105481333Y-114318190D01*
X105862285Y-114318190D01*
X104909904Y-113889619D02*
X104862285Y-113842000D01*
X104767047Y-113794380D01*
X104528952Y-113794380D01*
X104433714Y-113842000D01*
X104386095Y-113889619D01*
X104338476Y-113984857D01*
X104338476Y-114080095D01*
X104386095Y-114222952D01*
X104957523Y-114794380D01*
X104338476Y-114794380D01*
X103386095Y-114794380D02*
X103957523Y-114794380D01*
X103671809Y-114794380D02*
X103671809Y-113794380D01*
X103767047Y-113937238D01*
X103862285Y-114032476D01*
X103957523Y-114080095D01*
X83573857Y-120672380D02*
X83907190Y-120196190D01*
X84145285Y-120672380D02*
X84145285Y-119672380D01*
X83764333Y-119672380D01*
X83669095Y-119720000D01*
X83621476Y-119767619D01*
X83573857Y-119862857D01*
X83573857Y-120005714D01*
X83621476Y-120100952D01*
X83669095Y-120148571D01*
X83764333Y-120196190D01*
X84145285Y-120196190D01*
X83192904Y-119767619D02*
X83145285Y-119720000D01*
X83050047Y-119672380D01*
X82811952Y-119672380D01*
X82716714Y-119720000D01*
X82669095Y-119767619D01*
X82621476Y-119862857D01*
X82621476Y-119958095D01*
X82669095Y-120100952D01*
X83240523Y-120672380D01*
X82621476Y-120672380D01*
X82002428Y-119672380D02*
X81907190Y-119672380D01*
X81811952Y-119720000D01*
X81764333Y-119767619D01*
X81716714Y-119862857D01*
X81669095Y-120053333D01*
X81669095Y-120291428D01*
X81716714Y-120481904D01*
X81764333Y-120577142D01*
X81811952Y-120624761D01*
X81907190Y-120672380D01*
X82002428Y-120672380D01*
X82097666Y-120624761D01*
X82145285Y-120577142D01*
X82192904Y-120481904D01*
X82240523Y-120291428D01*
X82240523Y-120053333D01*
X82192904Y-119862857D01*
X82145285Y-119767619D01*
X82097666Y-119720000D01*
X82002428Y-119672380D01*
X105036857Y-67920280D02*
X105370190Y-67444090D01*
X105608285Y-67920280D02*
X105608285Y-66920280D01*
X105227333Y-66920280D01*
X105132095Y-66967900D01*
X105084476Y-67015519D01*
X105036857Y-67110757D01*
X105036857Y-67253614D01*
X105084476Y-67348852D01*
X105132095Y-67396471D01*
X105227333Y-67444090D01*
X105608285Y-67444090D01*
X104084476Y-67920280D02*
X104655904Y-67920280D01*
X104370190Y-67920280D02*
X104370190Y-66920280D01*
X104465428Y-67063138D01*
X104560666Y-67158376D01*
X104655904Y-67205995D01*
X103608285Y-67920280D02*
X103417809Y-67920280D01*
X103322571Y-67872661D01*
X103274952Y-67825042D01*
X103179714Y-67682185D01*
X103132095Y-67491709D01*
X103132095Y-67110757D01*
X103179714Y-67015519D01*
X103227333Y-66967900D01*
X103322571Y-66920280D01*
X103513047Y-66920280D01*
X103608285Y-66967900D01*
X103655904Y-67015519D01*
X103703523Y-67110757D01*
X103703523Y-67348852D01*
X103655904Y-67444090D01*
X103608285Y-67491709D01*
X103513047Y-67539328D01*
X103322571Y-67539328D01*
X103227333Y-67491709D01*
X103179714Y-67444090D01*
X103132095Y-67348852D01*
X105226857Y-70761880D02*
X105560190Y-70285690D01*
X105798285Y-70761880D02*
X105798285Y-69761880D01*
X105417333Y-69761880D01*
X105322095Y-69809500D01*
X105274476Y-69857119D01*
X105226857Y-69952357D01*
X105226857Y-70095214D01*
X105274476Y-70190452D01*
X105322095Y-70238071D01*
X105417333Y-70285690D01*
X105798285Y-70285690D01*
X104274476Y-70761880D02*
X104845904Y-70761880D01*
X104560190Y-70761880D02*
X104560190Y-69761880D01*
X104655428Y-69904738D01*
X104750666Y-69999976D01*
X104845904Y-70047595D01*
X103703047Y-70190452D02*
X103798285Y-70142833D01*
X103845904Y-70095214D01*
X103893523Y-69999976D01*
X103893523Y-69952357D01*
X103845904Y-69857119D01*
X103798285Y-69809500D01*
X103703047Y-69761880D01*
X103512571Y-69761880D01*
X103417333Y-69809500D01*
X103369714Y-69857119D01*
X103322095Y-69952357D01*
X103322095Y-69999976D01*
X103369714Y-70095214D01*
X103417333Y-70142833D01*
X103512571Y-70190452D01*
X103703047Y-70190452D01*
X103798285Y-70238071D01*
X103845904Y-70285690D01*
X103893523Y-70380928D01*
X103893523Y-70571404D01*
X103845904Y-70666642D01*
X103798285Y-70714261D01*
X103703047Y-70761880D01*
X103512571Y-70761880D01*
X103417333Y-70714261D01*
X103369714Y-70666642D01*
X103322095Y-70571404D01*
X103322095Y-70380928D01*
X103369714Y-70285690D01*
X103417333Y-70238071D01*
X103512571Y-70190452D01*
X83573857Y-117752380D02*
X83907190Y-117276190D01*
X84145285Y-117752380D02*
X84145285Y-116752380D01*
X83764333Y-116752380D01*
X83669095Y-116800000D01*
X83621476Y-116847619D01*
X83573857Y-116942857D01*
X83573857Y-117085714D01*
X83621476Y-117180952D01*
X83669095Y-117228571D01*
X83764333Y-117276190D01*
X84145285Y-117276190D01*
X82621476Y-117752380D02*
X83192904Y-117752380D01*
X82907190Y-117752380D02*
X82907190Y-116752380D01*
X83002428Y-116895238D01*
X83097666Y-116990476D01*
X83192904Y-117038095D01*
X82288142Y-116752380D02*
X81621476Y-116752380D01*
X82050047Y-117752380D01*
X95003857Y-120546380D02*
X95337190Y-120070190D01*
X95575285Y-120546380D02*
X95575285Y-119546380D01*
X95194333Y-119546380D01*
X95099095Y-119594000D01*
X95051476Y-119641619D01*
X95003857Y-119736857D01*
X95003857Y-119879714D01*
X95051476Y-119974952D01*
X95099095Y-120022571D01*
X95194333Y-120070190D01*
X95575285Y-120070190D01*
X94051476Y-120546380D02*
X94622904Y-120546380D01*
X94337190Y-120546380D02*
X94337190Y-119546380D01*
X94432428Y-119689238D01*
X94527666Y-119784476D01*
X94622904Y-119832095D01*
X93194333Y-119546380D02*
X93384809Y-119546380D01*
X93480047Y-119594000D01*
X93527666Y-119641619D01*
X93622904Y-119784476D01*
X93670523Y-119974952D01*
X93670523Y-120355904D01*
X93622904Y-120451142D01*
X93575285Y-120498761D01*
X93480047Y-120546380D01*
X93289571Y-120546380D01*
X93194333Y-120498761D01*
X93146714Y-120451142D01*
X93099095Y-120355904D01*
X93099095Y-120117809D01*
X93146714Y-120022571D01*
X93194333Y-119974952D01*
X93289571Y-119927333D01*
X93480047Y-119927333D01*
X93575285Y-119974952D01*
X93622904Y-120022571D01*
X93670523Y-120117809D01*
X83700857Y-106866380D02*
X84034190Y-106390190D01*
X84272285Y-106866380D02*
X84272285Y-105866380D01*
X83891333Y-105866380D01*
X83796095Y-105914000D01*
X83748476Y-105961619D01*
X83700857Y-106056857D01*
X83700857Y-106199714D01*
X83748476Y-106294952D01*
X83796095Y-106342571D01*
X83891333Y-106390190D01*
X84272285Y-106390190D01*
X82748476Y-106866380D02*
X83319904Y-106866380D01*
X83034190Y-106866380D02*
X83034190Y-105866380D01*
X83129428Y-106009238D01*
X83224666Y-106104476D01*
X83319904Y-106152095D01*
X81843714Y-105866380D02*
X82319904Y-105866380D01*
X82367523Y-106342571D01*
X82319904Y-106294952D01*
X82224666Y-106247333D01*
X81986571Y-106247333D01*
X81891333Y-106294952D01*
X81843714Y-106342571D01*
X81796095Y-106437809D01*
X81796095Y-106675904D01*
X81843714Y-106771142D01*
X81891333Y-106818761D01*
X81986571Y-106866380D01*
X82224666Y-106866380D01*
X82319904Y-106818761D01*
X82367523Y-106771142D01*
X83700857Y-111964380D02*
X84034190Y-111488190D01*
X84272285Y-111964380D02*
X84272285Y-110964380D01*
X83891333Y-110964380D01*
X83796095Y-111012000D01*
X83748476Y-111059619D01*
X83700857Y-111154857D01*
X83700857Y-111297714D01*
X83748476Y-111392952D01*
X83796095Y-111440571D01*
X83891333Y-111488190D01*
X84272285Y-111488190D01*
X82748476Y-111964380D02*
X83319904Y-111964380D01*
X83034190Y-111964380D02*
X83034190Y-110964380D01*
X83129428Y-111107238D01*
X83224666Y-111202476D01*
X83319904Y-111250095D01*
X81891333Y-111297714D02*
X81891333Y-111964380D01*
X82129428Y-110916761D02*
X82367523Y-111631047D01*
X81748476Y-111631047D01*
X83954857Y-85176380D02*
X84288190Y-84700190D01*
X84526285Y-85176380D02*
X84526285Y-84176380D01*
X84145333Y-84176380D01*
X84050095Y-84224000D01*
X84002476Y-84271619D01*
X83954857Y-84366857D01*
X83954857Y-84509714D01*
X84002476Y-84604952D01*
X84050095Y-84652571D01*
X84145333Y-84700190D01*
X84526285Y-84700190D01*
X83002476Y-85176380D02*
X83573904Y-85176380D01*
X83288190Y-85176380D02*
X83288190Y-84176380D01*
X83383428Y-84319238D01*
X83478666Y-84414476D01*
X83573904Y-84462095D01*
X82669142Y-84176380D02*
X82050095Y-84176380D01*
X82383428Y-84557333D01*
X82240571Y-84557333D01*
X82145333Y-84604952D01*
X82097714Y-84652571D01*
X82050095Y-84747809D01*
X82050095Y-84985904D01*
X82097714Y-85081142D01*
X82145333Y-85128761D01*
X82240571Y-85176380D01*
X82526285Y-85176380D01*
X82621523Y-85128761D01*
X82669142Y-85081142D01*
X83827857Y-90891380D02*
X84161190Y-90415190D01*
X84399285Y-90891380D02*
X84399285Y-89891380D01*
X84018333Y-89891380D01*
X83923095Y-89939000D01*
X83875476Y-89986619D01*
X83827857Y-90081857D01*
X83827857Y-90224714D01*
X83875476Y-90319952D01*
X83923095Y-90367571D01*
X84018333Y-90415190D01*
X84399285Y-90415190D01*
X82875476Y-90891380D02*
X83446904Y-90891380D01*
X83161190Y-90891380D02*
X83161190Y-89891380D01*
X83256428Y-90034238D01*
X83351666Y-90129476D01*
X83446904Y-90177095D01*
X82494523Y-89986619D02*
X82446904Y-89939000D01*
X82351666Y-89891380D01*
X82113571Y-89891380D01*
X82018333Y-89939000D01*
X81970714Y-89986619D01*
X81923095Y-90081857D01*
X81923095Y-90177095D01*
X81970714Y-90319952D01*
X82542142Y-90891380D01*
X81923095Y-90891380D01*
X105354857Y-85366880D02*
X105688190Y-84890690D01*
X105926285Y-85366880D02*
X105926285Y-84366880D01*
X105545333Y-84366880D01*
X105450095Y-84414500D01*
X105402476Y-84462119D01*
X105354857Y-84557357D01*
X105354857Y-84700214D01*
X105402476Y-84795452D01*
X105450095Y-84843071D01*
X105545333Y-84890690D01*
X105926285Y-84890690D01*
X104402476Y-85366880D02*
X104973904Y-85366880D01*
X104688190Y-85366880D02*
X104688190Y-84366880D01*
X104783428Y-84509738D01*
X104878666Y-84604976D01*
X104973904Y-84652595D01*
X103450095Y-85366880D02*
X104021523Y-85366880D01*
X103735809Y-85366880D02*
X103735809Y-84366880D01*
X103831047Y-84509738D01*
X103926285Y-84604976D01*
X104021523Y-84652595D01*
X105036857Y-65078580D02*
X105370190Y-64602390D01*
X105608285Y-65078580D02*
X105608285Y-64078580D01*
X105227333Y-64078580D01*
X105132095Y-64126200D01*
X105084476Y-64173819D01*
X105036857Y-64269057D01*
X105036857Y-64411914D01*
X105084476Y-64507152D01*
X105132095Y-64554771D01*
X105227333Y-64602390D01*
X105608285Y-64602390D01*
X104084476Y-65078580D02*
X104655904Y-65078580D01*
X104370190Y-65078580D02*
X104370190Y-64078580D01*
X104465428Y-64221438D01*
X104560666Y-64316676D01*
X104655904Y-64364295D01*
X103465428Y-64078580D02*
X103370190Y-64078580D01*
X103274952Y-64126200D01*
X103227333Y-64173819D01*
X103179714Y-64269057D01*
X103132095Y-64459533D01*
X103132095Y-64697628D01*
X103179714Y-64888104D01*
X103227333Y-64983342D01*
X103274952Y-65030961D01*
X103370190Y-65078580D01*
X103465428Y-65078580D01*
X103560666Y-65030961D01*
X103608285Y-64983342D01*
X103655904Y-64888104D01*
X103703523Y-64697628D01*
X103703523Y-64459533D01*
X103655904Y-64269057D01*
X103608285Y-64173819D01*
X103560666Y-64126200D01*
X103465428Y-64078580D01*
X104814666Y-109696380D02*
X105148000Y-109220190D01*
X105386095Y-109696380D02*
X105386095Y-108696380D01*
X105005142Y-108696380D01*
X104909904Y-108744000D01*
X104862285Y-108791619D01*
X104814666Y-108886857D01*
X104814666Y-109029714D01*
X104862285Y-109124952D01*
X104909904Y-109172571D01*
X105005142Y-109220190D01*
X105386095Y-109220190D01*
X104338476Y-109696380D02*
X104148000Y-109696380D01*
X104052761Y-109648761D01*
X104005142Y-109601142D01*
X103909904Y-109458285D01*
X103862285Y-109267809D01*
X103862285Y-108886857D01*
X103909904Y-108791619D01*
X103957523Y-108744000D01*
X104052761Y-108696380D01*
X104243238Y-108696380D01*
X104338476Y-108744000D01*
X104386095Y-108791619D01*
X104433714Y-108886857D01*
X104433714Y-109124952D01*
X104386095Y-109220190D01*
X104338476Y-109267809D01*
X104243238Y-109315428D01*
X104052761Y-109315428D01*
X103957523Y-109267809D01*
X103909904Y-109220190D01*
X103862285Y-109124952D01*
X104560666Y-62236980D02*
X104894000Y-61760790D01*
X105132095Y-62236980D02*
X105132095Y-61236980D01*
X104751142Y-61236980D01*
X104655904Y-61284600D01*
X104608285Y-61332219D01*
X104560666Y-61427457D01*
X104560666Y-61570314D01*
X104608285Y-61665552D01*
X104655904Y-61713171D01*
X104751142Y-61760790D01*
X105132095Y-61760790D01*
X103989238Y-61665552D02*
X104084476Y-61617933D01*
X104132095Y-61570314D01*
X104179714Y-61475076D01*
X104179714Y-61427457D01*
X104132095Y-61332219D01*
X104084476Y-61284600D01*
X103989238Y-61236980D01*
X103798761Y-61236980D01*
X103703523Y-61284600D01*
X103655904Y-61332219D01*
X103608285Y-61427457D01*
X103608285Y-61475076D01*
X103655904Y-61570314D01*
X103703523Y-61617933D01*
X103798761Y-61665552D01*
X103989238Y-61665552D01*
X104084476Y-61713171D01*
X104132095Y-61760790D01*
X104179714Y-61856028D01*
X104179714Y-62046504D01*
X104132095Y-62141742D01*
X104084476Y-62189361D01*
X103989238Y-62236980D01*
X103798761Y-62236980D01*
X103703523Y-62189361D01*
X103655904Y-62141742D01*
X103608285Y-62046504D01*
X103608285Y-61856028D01*
X103655904Y-61760790D01*
X103703523Y-61713171D01*
X103798761Y-61665552D01*
X83034166Y-109415380D02*
X83367500Y-108939190D01*
X83605595Y-109415380D02*
X83605595Y-108415380D01*
X83224642Y-108415380D01*
X83129404Y-108463000D01*
X83081785Y-108510619D01*
X83034166Y-108605857D01*
X83034166Y-108748714D01*
X83081785Y-108843952D01*
X83129404Y-108891571D01*
X83224642Y-108939190D01*
X83605595Y-108939190D01*
X82700833Y-108415380D02*
X82034166Y-108415380D01*
X82462738Y-109415380D01*
X104814666Y-107147380D02*
X105148000Y-106671190D01*
X105386095Y-107147380D02*
X105386095Y-106147380D01*
X105005142Y-106147380D01*
X104909904Y-106195000D01*
X104862285Y-106242619D01*
X104814666Y-106337857D01*
X104814666Y-106480714D01*
X104862285Y-106575952D01*
X104909904Y-106623571D01*
X105005142Y-106671190D01*
X105386095Y-106671190D01*
X103957523Y-106147380D02*
X104148000Y-106147380D01*
X104243238Y-106195000D01*
X104290857Y-106242619D01*
X104386095Y-106385476D01*
X104433714Y-106575952D01*
X104433714Y-106956904D01*
X104386095Y-107052142D01*
X104338476Y-107099761D01*
X104243238Y-107147380D01*
X104052761Y-107147380D01*
X103957523Y-107099761D01*
X103909904Y-107052142D01*
X103862285Y-106956904D01*
X103862285Y-106718809D01*
X103909904Y-106623571D01*
X103957523Y-106575952D01*
X104052761Y-106528333D01*
X104243238Y-106528333D01*
X104338476Y-106575952D01*
X104386095Y-106623571D01*
X104433714Y-106718809D01*
X104878666Y-88224380D02*
X105212000Y-87748190D01*
X105450095Y-88224380D02*
X105450095Y-87224380D01*
X105069142Y-87224380D01*
X104973904Y-87272000D01*
X104926285Y-87319619D01*
X104878666Y-87414857D01*
X104878666Y-87557714D01*
X104926285Y-87652952D01*
X104973904Y-87700571D01*
X105069142Y-87748190D01*
X105450095Y-87748190D01*
X103973904Y-87224380D02*
X104450095Y-87224380D01*
X104497714Y-87700571D01*
X104450095Y-87652952D01*
X104354857Y-87605333D01*
X104116761Y-87605333D01*
X104021523Y-87652952D01*
X103973904Y-87700571D01*
X103926285Y-87795809D01*
X103926285Y-88033904D01*
X103973904Y-88129142D01*
X104021523Y-88176761D01*
X104116761Y-88224380D01*
X104354857Y-88224380D01*
X104450095Y-88176761D01*
X104497714Y-88129142D01*
X104560666Y-59395380D02*
X104894000Y-58919190D01*
X105132095Y-59395380D02*
X105132095Y-58395380D01*
X104751142Y-58395380D01*
X104655904Y-58443000D01*
X104608285Y-58490619D01*
X104560666Y-58585857D01*
X104560666Y-58728714D01*
X104608285Y-58823952D01*
X104655904Y-58871571D01*
X104751142Y-58919190D01*
X105132095Y-58919190D01*
X103703523Y-58728714D02*
X103703523Y-59395380D01*
X103941619Y-58347761D02*
X104179714Y-59062047D01*
X103560666Y-59062047D01*
X104814666Y-112245380D02*
X105148000Y-111769190D01*
X105386095Y-112245380D02*
X105386095Y-111245380D01*
X105005142Y-111245380D01*
X104909904Y-111293000D01*
X104862285Y-111340619D01*
X104814666Y-111435857D01*
X104814666Y-111578714D01*
X104862285Y-111673952D01*
X104909904Y-111721571D01*
X105005142Y-111769190D01*
X105386095Y-111769190D01*
X104481333Y-111245380D02*
X103862285Y-111245380D01*
X104195619Y-111626333D01*
X104052761Y-111626333D01*
X103957523Y-111673952D01*
X103909904Y-111721571D01*
X103862285Y-111816809D01*
X103862285Y-112054904D01*
X103909904Y-112150142D01*
X103957523Y-112197761D01*
X104052761Y-112245380D01*
X104338476Y-112245380D01*
X104433714Y-112197761D01*
X104481333Y-112150142D01*
X83478666Y-88033880D02*
X83812000Y-87557690D01*
X84050095Y-88033880D02*
X84050095Y-87033880D01*
X83669142Y-87033880D01*
X83573904Y-87081500D01*
X83526285Y-87129119D01*
X83478666Y-87224357D01*
X83478666Y-87367214D01*
X83526285Y-87462452D01*
X83573904Y-87510071D01*
X83669142Y-87557690D01*
X84050095Y-87557690D01*
X83097714Y-87129119D02*
X83050095Y-87081500D01*
X82954857Y-87033880D01*
X82716761Y-87033880D01*
X82621523Y-87081500D01*
X82573904Y-87129119D01*
X82526285Y-87224357D01*
X82526285Y-87319595D01*
X82573904Y-87462452D01*
X83145333Y-88033880D01*
X82526285Y-88033880D01*
X104878666Y-91081880D02*
X105212000Y-90605690D01*
X105450095Y-91081880D02*
X105450095Y-90081880D01*
X105069142Y-90081880D01*
X104973904Y-90129500D01*
X104926285Y-90177119D01*
X104878666Y-90272357D01*
X104878666Y-90415214D01*
X104926285Y-90510452D01*
X104973904Y-90558071D01*
X105069142Y-90605690D01*
X105450095Y-90605690D01*
X103926285Y-91081880D02*
X104497714Y-91081880D01*
X104212000Y-91081880D02*
X104212000Y-90081880D01*
X104307238Y-90224738D01*
X104402476Y-90319976D01*
X104497714Y-90367595D01*
X108522380Y-127849904D02*
X107522380Y-127849904D01*
X107522380Y-128088000D01*
X107570000Y-128230857D01*
X107665238Y-128326095D01*
X107760476Y-128373714D01*
X107950952Y-128421333D01*
X108093809Y-128421333D01*
X108284285Y-128373714D01*
X108379523Y-128326095D01*
X108474761Y-128230857D01*
X108522380Y-128088000D01*
X108522380Y-127849904D01*
X107617619Y-128802285D02*
X107570000Y-128849904D01*
X107522380Y-128945142D01*
X107522380Y-129183238D01*
X107570000Y-129278476D01*
X107617619Y-129326095D01*
X107712857Y-129373714D01*
X107808095Y-129373714D01*
X107950952Y-129326095D01*
X108522380Y-128754666D01*
X108522380Y-129373714D01*
X107952380Y-132136095D02*
X106952380Y-132136095D01*
X107952380Y-132707523D02*
X107380952Y-132278952D01*
X106952380Y-132707523D02*
X107523809Y-132136095D01*
X84773880Y-128039904D02*
X83773880Y-128039904D01*
X83773880Y-128278000D01*
X83821500Y-128420857D01*
X83916738Y-128516095D01*
X84011976Y-128563714D01*
X84202452Y-128611333D01*
X84345309Y-128611333D01*
X84535785Y-128563714D01*
X84631023Y-128516095D01*
X84726261Y-128420857D01*
X84773880Y-128278000D01*
X84773880Y-128039904D01*
X84773880Y-129563714D02*
X84773880Y-128992285D01*
X84773880Y-129278000D02*
X83773880Y-129278000D01*
X83916738Y-129182761D01*
X84011976Y-129087523D01*
X84059595Y-128992285D01*
X84203880Y-132326095D02*
X83203880Y-132326095D01*
X84203880Y-132897523D02*
X83632452Y-132468952D01*
X83203880Y-132897523D02*
X83775309Y-132326095D01*
X104299238Y-121391619D02*
X104394476Y-121344000D01*
X104489714Y-121248761D01*
X104632571Y-121105904D01*
X104727809Y-121058285D01*
X104823047Y-121058285D01*
X104775428Y-121296380D02*
X104870666Y-121248761D01*
X104965904Y-121153523D01*
X105013523Y-120963047D01*
X105013523Y-120629714D01*
X104965904Y-120439238D01*
X104870666Y-120344000D01*
X104775428Y-120296380D01*
X104584952Y-120296380D01*
X104489714Y-120344000D01*
X104394476Y-120439238D01*
X104346857Y-120629714D01*
X104346857Y-120963047D01*
X104394476Y-121153523D01*
X104489714Y-121248761D01*
X104584952Y-121296380D01*
X104775428Y-121296380D01*
X103394476Y-121296380D02*
X103965904Y-121296380D01*
X103680190Y-121296380D02*
X103680190Y-120296380D01*
X103775428Y-120439238D01*
X103870666Y-120534476D01*
X103965904Y-120582095D01*
X107065380Y-96964095D02*
X107874904Y-96964095D01*
X107970142Y-97011714D01*
X108017761Y-97059333D01*
X108065380Y-97154571D01*
X108065380Y-97345047D01*
X108017761Y-97440285D01*
X107970142Y-97487904D01*
X107874904Y-97535523D01*
X107065380Y-97535523D01*
X107065380Y-97916476D02*
X107065380Y-98535523D01*
X107446333Y-98202190D01*
X107446333Y-98345047D01*
X107493952Y-98440285D01*
X107541571Y-98487904D01*
X107636809Y-98535523D01*
X107874904Y-98535523D01*
X107970142Y-98487904D01*
X108017761Y-98440285D01*
X108065380Y-98345047D01*
X108065380Y-98059333D01*
X108017761Y-97964095D01*
X107970142Y-97916476D01*
X92142880Y-96266095D02*
X92952404Y-96266095D01*
X93047642Y-96313714D01*
X93095261Y-96361333D01*
X93142880Y-96456571D01*
X93142880Y-96647047D01*
X93095261Y-96742285D01*
X93047642Y-96789904D01*
X92952404Y-96837523D01*
X92142880Y-96837523D01*
X92238119Y-97266095D02*
X92190500Y-97313714D01*
X92142880Y-97408952D01*
X92142880Y-97647047D01*
X92190500Y-97742285D01*
X92238119Y-97789904D01*
X92333357Y-97837523D01*
X92428595Y-97837523D01*
X92571452Y-97789904D01*
X93142880Y-97218476D01*
X93142880Y-97837523D01*
X93539880Y-74676095D02*
X94349404Y-74676095D01*
X94444642Y-74723714D01*
X94492261Y-74771333D01*
X94539880Y-74866571D01*
X94539880Y-75057047D01*
X94492261Y-75152285D01*
X94444642Y-75199904D01*
X94349404Y-75247523D01*
X93539880Y-75247523D01*
X94539880Y-76247523D02*
X94539880Y-75676095D01*
X94539880Y-75961809D02*
X93539880Y-75961809D01*
X93682738Y-75866571D01*
X93777976Y-75771333D01*
X93825595Y-75676095D01*
X94122833Y-128099380D02*
X94122833Y-128813666D01*
X94170452Y-128956523D01*
X94265690Y-129051761D01*
X94408547Y-129099380D01*
X94503785Y-129099380D01*
X93122833Y-129099380D02*
X93694261Y-129099380D01*
X93408547Y-129099380D02*
X93408547Y-128099380D01*
X93503785Y-128242238D01*
X93599023Y-128337476D01*
X93694261Y-128385095D01*
X108084380Y-73953809D02*
X107084380Y-73953809D01*
X107989142Y-75001428D02*
X108036761Y-74953809D01*
X108084380Y-74810952D01*
X108084380Y-74715714D01*
X108036761Y-74572857D01*
X107941523Y-74477619D01*
X107846285Y-74430000D01*
X107655809Y-74382380D01*
X107512952Y-74382380D01*
X107322476Y-74430000D01*
X107227238Y-74477619D01*
X107132000Y-74572857D01*
X107084380Y-74715714D01*
X107084380Y-74810952D01*
X107132000Y-74953809D01*
X107179619Y-75001428D01*
X108084380Y-75953809D02*
X108084380Y-75382380D01*
X108084380Y-75668095D02*
X107084380Y-75668095D01*
X107227238Y-75572857D01*
X107322476Y-75477619D01*
X107370095Y-75382380D01*
X83345166Y-69228642D02*
X83392785Y-69276261D01*
X83535642Y-69323880D01*
X83630880Y-69323880D01*
X83773738Y-69276261D01*
X83868976Y-69181023D01*
X83916595Y-69085785D01*
X83964214Y-68895309D01*
X83964214Y-68752452D01*
X83916595Y-68561976D01*
X83868976Y-68466738D01*
X83773738Y-68371500D01*
X83630880Y-68323880D01*
X83535642Y-68323880D01*
X83392785Y-68371500D01*
X83345166Y-68419119D01*
X83011833Y-68323880D02*
X82392785Y-68323880D01*
X82726119Y-68704833D01*
X82583261Y-68704833D01*
X82488023Y-68752452D01*
X82440404Y-68800071D01*
X82392785Y-68895309D01*
X82392785Y-69133404D01*
X82440404Y-69228642D01*
X82488023Y-69276261D01*
X82583261Y-69323880D01*
X82868976Y-69323880D01*
X82964214Y-69276261D01*
X83011833Y-69228642D01*
X83345166Y-65178642D02*
X83392785Y-65226261D01*
X83535642Y-65273880D01*
X83630880Y-65273880D01*
X83773738Y-65226261D01*
X83868976Y-65131023D01*
X83916595Y-65035785D01*
X83964214Y-64845309D01*
X83964214Y-64702452D01*
X83916595Y-64511976D01*
X83868976Y-64416738D01*
X83773738Y-64321500D01*
X83630880Y-64273880D01*
X83535642Y-64273880D01*
X83392785Y-64321500D01*
X83345166Y-64369119D01*
X82964214Y-64369119D02*
X82916595Y-64321500D01*
X82821357Y-64273880D01*
X82583261Y-64273880D01*
X82488023Y-64321500D01*
X82440404Y-64369119D01*
X82392785Y-64464357D01*
X82392785Y-64559595D01*
X82440404Y-64702452D01*
X83011833Y-65273880D01*
X82392785Y-65273880D01*
X83184666Y-61467642D02*
X83232285Y-61515261D01*
X83375142Y-61562880D01*
X83470380Y-61562880D01*
X83613238Y-61515261D01*
X83708476Y-61420023D01*
X83756095Y-61324785D01*
X83803714Y-61134309D01*
X83803714Y-60991452D01*
X83756095Y-60800976D01*
X83708476Y-60705738D01*
X83613238Y-60610500D01*
X83470380Y-60562880D01*
X83375142Y-60562880D01*
X83232285Y-60610500D01*
X83184666Y-60658119D01*
X82232285Y-61562880D02*
X82803714Y-61562880D01*
X82518000Y-61562880D02*
X82518000Y-60562880D01*
X82613238Y-60705738D01*
X82708476Y-60800976D01*
X82803714Y-60848595D01*
%LPC*%
D14*
X85725000Y-112141000D03*
D15*
X80645000Y-112141000D03*
D14*
X107188000Y-112422000D03*
D15*
X102108000Y-112422000D03*
D14*
X85471000Y-118300000D03*
D15*
X80391000Y-118300000D03*
D14*
X106934000Y-65547900D03*
D15*
X101854000Y-65547900D03*
D14*
X107124000Y-68389500D03*
D15*
X102044000Y-68389500D03*
D14*
X85471000Y-115380000D03*
D15*
X80391000Y-115380000D03*
D14*
X96901000Y-118174000D03*
D15*
X91821000Y-118174000D03*
D14*
X85598000Y-104494000D03*
D15*
X80518000Y-104494000D03*
D14*
X85598000Y-109592000D03*
D15*
X80518000Y-109592000D03*
D14*
X85852000Y-82804000D03*
D15*
X80772000Y-82804000D03*
D14*
X85725000Y-88519000D03*
D15*
X80645000Y-88519000D03*
D14*
X107252000Y-82994500D03*
D15*
X102172000Y-82994500D03*
D14*
X106934000Y-62706200D03*
D15*
X101854000Y-62706200D03*
D14*
X107188000Y-107324000D03*
D15*
X102108000Y-107324000D03*
D14*
X106934000Y-59864600D03*
D15*
X101854000Y-59864600D03*
D14*
X85407500Y-107043000D03*
D15*
X80327500Y-107043000D03*
D14*
X107188000Y-104775000D03*
D15*
X102108000Y-104775000D03*
D14*
X107252000Y-85852000D03*
D15*
X102172000Y-85852000D03*
D14*
X106934000Y-57023000D03*
D15*
X101854000Y-57023000D03*
D14*
X107188000Y-109873000D03*
D15*
X102108000Y-109873000D03*
D14*
X85852000Y-85661500D03*
D15*
X80772000Y-85661500D03*
D14*
X107252000Y-88709500D03*
D15*
X102172000Y-88709500D03*
D16*
X105600000Y-124778000D03*
D17*
X105600000Y-132398000D03*
D16*
X81851500Y-124968000D03*
D17*
X81851500Y-132588000D03*
D18*
X101664000Y-117284000D03*
D19*
X106744000Y-117284000D03*
X104204000Y-117284000D03*
D20*
X105283000Y-93916000D03*
X97663000Y-101536000D03*
X102743000Y-93916000D03*
X100203000Y-101536000D03*
X100203000Y-93916000D03*
X102743000Y-101536000D03*
X97663000Y-93916000D03*
D21*
X105283000Y-101536000D03*
D20*
X90360500Y-93218000D03*
X82740500Y-100838000D03*
X87820500Y-93218000D03*
X85280500Y-100838000D03*
X85280500Y-93218000D03*
X87820500Y-100838000D03*
X82740500Y-93218000D03*
D21*
X90360500Y-100838000D03*
D20*
X91757500Y-71628000D03*
X84137500Y-79248000D03*
X89217500Y-71628000D03*
X86677500Y-79248000D03*
X86677500Y-71628000D03*
X89217500Y-79248000D03*
X84137500Y-71628000D03*
D21*
X91757500Y-79248000D03*
D22*
X89076500Y-59556000D03*
X98676500Y-59556000D03*
D23*
X96376500Y-67056000D03*
X93876500Y-67056000D03*
D17*
X91376500Y-67056000D03*
D22*
X89076500Y-82860500D03*
X98676500Y-82860500D03*
D23*
X96376500Y-90360500D03*
X93876500Y-90360500D03*
D17*
X91376500Y-90360500D03*
D22*
X89076500Y-106736000D03*
X98676500Y-106736000D03*
D23*
X96376500Y-114236000D03*
X93876500Y-114236000D03*
D17*
X91376500Y-114236000D03*
G36*
G01*
X101820000Y-148161000D02*
X101820000Y-149461000D01*
G75*
G02*
X101170000Y-150111000I-650000J0D01*
G01*
X99870000Y-150111000D01*
G75*
G02*
X99220000Y-149461000I0J650000D01*
G01*
X99220000Y-148161000D01*
G75*
G02*
X99870000Y-147511000I650000J0D01*
G01*
X101170000Y-147511000D01*
G75*
G02*
X101820000Y-148161000I0J-650000D01*
G01*
G37*
D24*
X100520000Y-137411000D03*
G36*
G01*
X101820000Y-139861000D02*
X101820000Y-141161000D01*
G75*
G02*
X101170000Y-141811000I-650000J0D01*
G01*
X99870000Y-141811000D01*
G75*
G02*
X99220000Y-141161000I0J650000D01*
G01*
X99220000Y-139861000D01*
G75*
G02*
X99870000Y-139211000I650000J0D01*
G01*
X101170000Y-139211000D01*
G75*
G02*
X101820000Y-139861000I0J-650000D01*
G01*
G37*
G36*
G01*
X101694000Y-132794000D02*
X101694000Y-134094000D01*
G75*
G02*
X101044000Y-134744000I-650000J0D01*
G01*
X99744000Y-134744000D01*
G75*
G02*
X99094000Y-134094000I0J650000D01*
G01*
X99094000Y-132794000D01*
G75*
G02*
X99744000Y-132144000I650000J0D01*
G01*
X101044000Y-132144000D01*
G75*
G02*
X101694000Y-132794000I0J-650000D01*
G01*
G37*
X100394000Y-122044000D03*
G36*
G01*
X101694000Y-124494000D02*
X101694000Y-125794000D01*
G75*
G02*
X101044000Y-126444000I-650000J0D01*
G01*
X99744000Y-126444000D01*
G75*
G02*
X99094000Y-125794000I0J650000D01*
G01*
X99094000Y-124494000D01*
G75*
G02*
X99744000Y-123844000I650000J0D01*
G01*
X101044000Y-123844000D01*
G75*
G02*
X101694000Y-124494000I0J-650000D01*
G01*
G37*
D25*
X92519500Y-144907000D03*
X92519500Y-142367000D03*
X92519500Y-139827000D03*
X92519500Y-137287000D03*
X92519500Y-134747000D03*
X95059500Y-144907000D03*
X95059500Y-142367000D03*
X95059500Y-139827000D03*
X95059500Y-137287000D03*
G36*
G01*
X95909500Y-134147000D02*
X95909500Y-135347000D01*
G75*
G02*
X95659500Y-135597000I-250000J0D01*
G01*
X94459500Y-135597000D01*
G75*
G02*
X94209500Y-135347000I0J250000D01*
G01*
X94209500Y-134147000D01*
G75*
G02*
X94459500Y-133897000I250000J0D01*
G01*
X95659500Y-133897000D01*
G75*
G02*
X95909500Y-134147000I0J-250000D01*
G01*
G37*
G36*
G01*
X88549000Y-148161000D02*
X88549000Y-149461000D01*
G75*
G02*
X87899000Y-150111000I-650000J0D01*
G01*
X86599000Y-150111000D01*
G75*
G02*
X85949000Y-149461000I0J650000D01*
G01*
X85949000Y-148161000D01*
G75*
G02*
X86599000Y-147511000I650000J0D01*
G01*
X87899000Y-147511000D01*
G75*
G02*
X88549000Y-148161000I0J-650000D01*
G01*
G37*
D24*
X87249000Y-137411000D03*
G36*
G01*
X88549000Y-139861000D02*
X88549000Y-141161000D01*
G75*
G02*
X87899000Y-141811000I-650000J0D01*
G01*
X86599000Y-141811000D01*
G75*
G02*
X85949000Y-141161000I0J650000D01*
G01*
X85949000Y-139861000D01*
G75*
G02*
X86599000Y-139211000I650000J0D01*
G01*
X87899000Y-139211000D01*
G75*
G02*
X88549000Y-139861000I0J-650000D01*
G01*
G37*
D26*
X105092000Y-71437500D03*
X102552000Y-71437500D03*
X100012000Y-71437500D03*
X97472000Y-71437500D03*
X97472000Y-79057500D03*
X100012000Y-79057500D03*
X102552000Y-79057500D03*
D27*
X105092000Y-79057500D03*
G36*
G01*
X88485500Y-132794000D02*
X88485500Y-134094000D01*
G75*
G02*
X87835500Y-134744000I-650000J0D01*
G01*
X86535500Y-134744000D01*
G75*
G02*
X85885500Y-134094000I0J650000D01*
G01*
X85885500Y-132794000D01*
G75*
G02*
X86535500Y-132144000I650000J0D01*
G01*
X87835500Y-132144000D01*
G75*
G02*
X88485500Y-132794000I0J-650000D01*
G01*
G37*
D24*
X87185500Y-122044000D03*
G36*
G01*
X88485500Y-124494000D02*
X88485500Y-125794000D01*
G75*
G02*
X87835500Y-126444000I-650000J0D01*
G01*
X86535500Y-126444000D01*
G75*
G02*
X85885500Y-125794000I0J650000D01*
G01*
X85885500Y-124494000D01*
G75*
G02*
X86535500Y-123844000I650000J0D01*
G01*
X87835500Y-123844000D01*
G75*
G02*
X88485500Y-124494000I0J-650000D01*
G01*
G37*
D28*
X85678500Y-66371500D03*
X80678500Y-66371500D03*
X85678500Y-62321500D03*
X80678500Y-62321500D03*
X85518000Y-58610500D03*
X80518000Y-58610500D03*
M02*
