G04 #@! TF.GenerationSoftware,KiCad,Pcbnew,(5.1.10-1-10_14)*
G04 #@! TF.CreationDate,2021-09-13T20:29:14+02:00*
G04 #@! TF.ProjectId,Ring_fold_panel,52696e67-5f66-46f6-9c64-5f70616e656c,rev?*
G04 #@! TF.SameCoordinates,Original*
G04 #@! TF.FileFunction,Profile,NP*
%FSLAX46Y46*%
G04 Gerber Fmt 4.6, Leading zero omitted, Abs format (unit mm)*
G04 Created by KiCad (PCBNEW (5.1.10-1-10_14)) date 2021-09-13 20:29:14*
%MOMM*%
%LPD*%
G01*
G04 APERTURE LIST*
G04 #@! TA.AperFunction,Profile*
%ADD10C,0.100000*%
G04 #@! TD*
G04 APERTURE END LIST*
D10*
X118674500Y-34492500D02*
X148914500Y-34492500D01*
X148914500Y-34492500D02*
X148914500Y-162992500D01*
X148914500Y-162992500D02*
X118674500Y-162992500D01*
X118674500Y-162992500D02*
X118674500Y-34492500D01*
X118674500Y-34492500D02*
X118674500Y-34492500D01*
X125024500Y-35892500D02*
X127324500Y-35892500D01*
X127324500Y-35892500D02*
X127488540Y-35900730D01*
X127488540Y-35900730D02*
X127647740Y-35924890D01*
X127647740Y-35924890D02*
X127801310Y-35964200D01*
X127801310Y-35964200D02*
X127948450Y-36017850D01*
X127948450Y-36017850D02*
X128088370Y-36085060D01*
X128088370Y-36085060D02*
X128220280Y-36165030D01*
X128220280Y-36165030D02*
X128456900Y-36360100D01*
X128456900Y-36360100D02*
X128651970Y-36596720D01*
X128651970Y-36596720D02*
X128731900Y-36728630D01*
X128731900Y-36728630D02*
X128799100Y-36868550D01*
X128799100Y-36868550D02*
X128852800Y-37015690D01*
X128852800Y-37015690D02*
X128892100Y-37169260D01*
X128892100Y-37169260D02*
X128916300Y-37328460D01*
X128916300Y-37328460D02*
X128924500Y-37492500D01*
X128924500Y-37492500D02*
X128916300Y-37656540D01*
X128916300Y-37656540D02*
X128892100Y-37815740D01*
X128892100Y-37815740D02*
X128852800Y-37969310D01*
X128852800Y-37969310D02*
X128799100Y-38116450D01*
X128799100Y-38116450D02*
X128731900Y-38256370D01*
X128731900Y-38256370D02*
X128651970Y-38388280D01*
X128651970Y-38388280D02*
X128456900Y-38624900D01*
X128456900Y-38624900D02*
X128220280Y-38819970D01*
X128220280Y-38819970D02*
X128088370Y-38899940D01*
X128088370Y-38899940D02*
X127948450Y-38967150D01*
X127948450Y-38967150D02*
X127801310Y-39020800D01*
X127801310Y-39020800D02*
X127647740Y-39060110D01*
X127647740Y-39060110D02*
X127488540Y-39084270D01*
X127488540Y-39084270D02*
X127324500Y-39092500D01*
X127324500Y-39092500D02*
X125024500Y-39092500D01*
X125024500Y-39092500D02*
X124860460Y-39084270D01*
X124860460Y-39084270D02*
X124701260Y-39060110D01*
X124701260Y-39060110D02*
X124547690Y-39020800D01*
X124547690Y-39020800D02*
X124400550Y-38967150D01*
X124400550Y-38967150D02*
X124260630Y-38899940D01*
X124260630Y-38899940D02*
X124128720Y-38819970D01*
X124128720Y-38819970D02*
X123892100Y-38624900D01*
X123892100Y-38624900D02*
X123697030Y-38388280D01*
X123697030Y-38388280D02*
X123617060Y-38256370D01*
X123617060Y-38256370D02*
X123549850Y-38116450D01*
X123549850Y-38116450D02*
X123496200Y-37969310D01*
X123496200Y-37969310D02*
X123456890Y-37815740D01*
X123456890Y-37815740D02*
X123432730Y-37656540D01*
X123432730Y-37656540D02*
X123424500Y-37492500D01*
X123424500Y-37492500D02*
X123432730Y-37328460D01*
X123432730Y-37328460D02*
X123456890Y-37169260D01*
X123456890Y-37169260D02*
X123496200Y-37015690D01*
X123496200Y-37015690D02*
X123549850Y-36868550D01*
X123549850Y-36868550D02*
X123617060Y-36728630D01*
X123617060Y-36728630D02*
X123697030Y-36596720D01*
X123697030Y-36596720D02*
X123892100Y-36360100D01*
X123892100Y-36360100D02*
X124128720Y-36165030D01*
X124128720Y-36165030D02*
X124260630Y-36085060D01*
X124260630Y-36085060D02*
X124400550Y-36017850D01*
X124400550Y-36017850D02*
X124547690Y-35964200D01*
X124547690Y-35964200D02*
X124701260Y-35924890D01*
X124701260Y-35924890D02*
X124860460Y-35900730D01*
X124860460Y-35900730D02*
X125024500Y-35892500D01*
X125024500Y-35892500D02*
X125024500Y-35892500D01*
X125024500Y-35892500D02*
X125024500Y-35892500D01*
X140695000Y-158392500D02*
X142995000Y-158392500D01*
X142995000Y-158392500D02*
X143159100Y-158400500D01*
X143159100Y-158400500D02*
X143318300Y-158424500D01*
X143318300Y-158424500D02*
X143471800Y-158464500D01*
X143471800Y-158464500D02*
X143619000Y-158517500D01*
X143619000Y-158517500D02*
X143758900Y-158585500D01*
X143758900Y-158585500D02*
X143890800Y-158665500D01*
X143890800Y-158665500D02*
X144127400Y-158860500D01*
X144127400Y-158860500D02*
X144322500Y-159096500D01*
X144322500Y-159096500D02*
X144402500Y-159228500D01*
X144402500Y-159228500D02*
X144469700Y-159368500D01*
X144469700Y-159368500D02*
X144523300Y-159515500D01*
X144523300Y-159515500D02*
X144562600Y-159669500D01*
X144562600Y-159669500D02*
X144586800Y-159828500D01*
X144586800Y-159828500D02*
X144595000Y-159992500D01*
X144595000Y-159992500D02*
X144586800Y-160156500D01*
X144586800Y-160156500D02*
X144562600Y-160315500D01*
X144562600Y-160315500D02*
X144523300Y-160469500D01*
X144523300Y-160469500D02*
X144469700Y-160616500D01*
X144469700Y-160616500D02*
X144402500Y-160756500D01*
X144402500Y-160756500D02*
X144322500Y-160888500D01*
X144322500Y-160888500D02*
X144127400Y-161124500D01*
X144127400Y-161124500D02*
X143890800Y-161319500D01*
X143890800Y-161319500D02*
X143758900Y-161399500D01*
X143758900Y-161399500D02*
X143619000Y-161467500D01*
X143619000Y-161467500D02*
X143471800Y-161520500D01*
X143471800Y-161520500D02*
X143318300Y-161560500D01*
X143318300Y-161560500D02*
X143159100Y-161584500D01*
X143159100Y-161584500D02*
X142995000Y-161592500D01*
X142995000Y-161592500D02*
X140695000Y-161592500D01*
X140695000Y-161592500D02*
X140531000Y-161584500D01*
X140531000Y-161584500D02*
X140371800Y-161560500D01*
X140371800Y-161560500D02*
X140218200Y-161520500D01*
X140218200Y-161520500D02*
X140071100Y-161467500D01*
X140071100Y-161467500D02*
X139931200Y-161399500D01*
X139931200Y-161399500D02*
X139799300Y-161319500D01*
X139799300Y-161319500D02*
X139562600Y-161124500D01*
X139562600Y-161124500D02*
X139367600Y-160888500D01*
X139367600Y-160888500D02*
X139287600Y-160756500D01*
X139287600Y-160756500D02*
X139220400Y-160616500D01*
X139220400Y-160616500D02*
X139166700Y-160469500D01*
X139166700Y-160469500D02*
X139127400Y-160315500D01*
X139127400Y-160315500D02*
X139103300Y-160156500D01*
X139103300Y-160156500D02*
X139095000Y-159992500D01*
X139095000Y-159992500D02*
X139103300Y-159828500D01*
X139103300Y-159828500D02*
X139127400Y-159669500D01*
X139127400Y-159669500D02*
X139166700Y-159515500D01*
X139166700Y-159515500D02*
X139220400Y-159368500D01*
X139220400Y-159368500D02*
X139287600Y-159228500D01*
X139287600Y-159228500D02*
X139367600Y-159096500D01*
X139367600Y-159096500D02*
X139562600Y-158860500D01*
X139562600Y-158860500D02*
X139799300Y-158665500D01*
X139799300Y-158665500D02*
X139931200Y-158585500D01*
X139931200Y-158585500D02*
X140071100Y-158517500D01*
X140071100Y-158517500D02*
X140218200Y-158464500D01*
X140218200Y-158464500D02*
X140371800Y-158424500D01*
X140371800Y-158424500D02*
X140531000Y-158400500D01*
X140531000Y-158400500D02*
X140695000Y-158392500D01*
X140695000Y-158392500D02*
X140695000Y-158392500D01*
X140695000Y-158392500D02*
X140695000Y-158392500D01*
X137494500Y-54548400D02*
X137475400Y-54926700D01*
X137475400Y-54926700D02*
X137419300Y-55294000D01*
X137419300Y-55294000D02*
X137328100Y-55648600D01*
X137328100Y-55648600D02*
X137203700Y-55988600D01*
X137203700Y-55988600D02*
X137047900Y-56312000D01*
X137047900Y-56312000D02*
X136862600Y-56617100D01*
X136862600Y-56617100D02*
X136649600Y-56901900D01*
X136649600Y-56901900D02*
X136410800Y-57164700D01*
X136410800Y-57164700D02*
X136148000Y-57403500D01*
X136148000Y-57403500D02*
X135863200Y-57616500D01*
X135863200Y-57616500D02*
X135558100Y-57801800D01*
X135558100Y-57801800D02*
X135234700Y-57957600D01*
X135234700Y-57957600D02*
X134894700Y-58082000D01*
X134894700Y-58082000D02*
X134540200Y-58173200D01*
X134540200Y-58173200D02*
X134172800Y-58229300D01*
X134172800Y-58229300D02*
X133794500Y-58248400D01*
X133794500Y-58248400D02*
X133428800Y-58230300D01*
X133428800Y-58230300D02*
X133069300Y-58176600D01*
X133069300Y-58176600D02*
X132718400Y-58088400D01*
X132718400Y-58088400D02*
X132378500Y-57966700D01*
X132378500Y-57966700D02*
X132052200Y-57812500D01*
X132052200Y-57812500D02*
X131741700Y-57626700D01*
X131741700Y-57626700D02*
X131449600Y-57410400D01*
X131449600Y-57410400D02*
X131178200Y-57164700D01*
X131178200Y-57164700D02*
X130932400Y-56893300D01*
X130932400Y-56893300D02*
X130716100Y-56601100D01*
X130716100Y-56601100D02*
X130530400Y-56290700D01*
X130530400Y-56290700D02*
X130376100Y-55964300D01*
X130376100Y-55964300D02*
X130254400Y-55624500D01*
X130254400Y-55624500D02*
X130166200Y-55273600D01*
X130166200Y-55273600D02*
X130112600Y-54914100D01*
X130112600Y-54914100D02*
X130094500Y-54548400D01*
X130094500Y-54548400D02*
X130112600Y-54182700D01*
X130112600Y-54182700D02*
X130166200Y-53823200D01*
X130166200Y-53823200D02*
X130254400Y-53472300D01*
X130254400Y-53472300D02*
X130376100Y-53132400D01*
X130376100Y-53132400D02*
X130530400Y-52806100D01*
X130530400Y-52806100D02*
X130716100Y-52495600D01*
X130716100Y-52495600D02*
X130932400Y-52203500D01*
X130932400Y-52203500D02*
X131178200Y-51932100D01*
X131178200Y-51932100D02*
X131449600Y-51686300D01*
X131449600Y-51686300D02*
X131741700Y-51470000D01*
X131741700Y-51470000D02*
X132052200Y-51284300D01*
X132052200Y-51284300D02*
X132378500Y-51130000D01*
X132378500Y-51130000D02*
X132718400Y-51008300D01*
X132718400Y-51008300D02*
X133069300Y-50920100D01*
X133069300Y-50920100D02*
X133428800Y-50866500D01*
X133428800Y-50866500D02*
X133794500Y-50848400D01*
X133794500Y-50848400D02*
X134160200Y-50866500D01*
X134160200Y-50866500D02*
X134519700Y-50920100D01*
X134519700Y-50920100D02*
X134870600Y-51008300D01*
X134870600Y-51008300D02*
X135210400Y-51130000D01*
X135210400Y-51130000D02*
X135536800Y-51284300D01*
X135536800Y-51284300D02*
X135847200Y-51470000D01*
X135847200Y-51470000D02*
X136139400Y-51686300D01*
X136139400Y-51686300D02*
X136410800Y-51932100D01*
X136410800Y-51932100D02*
X136656600Y-52203500D01*
X136656600Y-52203500D02*
X136872800Y-52495600D01*
X136872800Y-52495600D02*
X137058600Y-52806100D01*
X137058600Y-52806100D02*
X137212800Y-53132400D01*
X137212800Y-53132400D02*
X137334500Y-53472300D01*
X137334500Y-53472300D02*
X137422700Y-53823200D01*
X137422700Y-53823200D02*
X137476400Y-54182700D01*
X137476400Y-54182700D02*
X137494500Y-54548400D01*
X137494500Y-54548400D02*
X137494500Y-54548400D01*
X137494500Y-77865900D02*
X137475400Y-78244200D01*
X137475400Y-78244200D02*
X137419300Y-78611500D01*
X137419300Y-78611500D02*
X137328100Y-78966100D01*
X137328100Y-78966100D02*
X137203700Y-79306100D01*
X137203700Y-79306100D02*
X137047900Y-79629500D01*
X137047900Y-79629500D02*
X136862600Y-79934600D01*
X136862600Y-79934600D02*
X136649600Y-80219400D01*
X136649600Y-80219400D02*
X136410800Y-80482200D01*
X136410800Y-80482200D02*
X136148000Y-80721000D01*
X136148000Y-80721000D02*
X135863200Y-80934000D01*
X135863200Y-80934000D02*
X135558100Y-81119300D01*
X135558100Y-81119300D02*
X135234700Y-81275100D01*
X135234700Y-81275100D02*
X134894700Y-81399500D01*
X134894700Y-81399500D02*
X134540200Y-81490700D01*
X134540200Y-81490700D02*
X134172800Y-81546800D01*
X134172800Y-81546800D02*
X133794500Y-81565900D01*
X133794500Y-81565900D02*
X133428800Y-81547800D01*
X133428800Y-81547800D02*
X133069300Y-81494100D01*
X133069300Y-81494100D02*
X132718400Y-81405900D01*
X132718400Y-81405900D02*
X132378500Y-81284200D01*
X132378500Y-81284200D02*
X132052200Y-81130000D01*
X132052200Y-81130000D02*
X131741700Y-80944200D01*
X131741700Y-80944200D02*
X131449600Y-80727900D01*
X131449600Y-80727900D02*
X131178200Y-80482200D01*
X131178200Y-80482200D02*
X130932400Y-80210800D01*
X130932400Y-80210800D02*
X130716100Y-79918600D01*
X130716100Y-79918600D02*
X130530400Y-79608200D01*
X130530400Y-79608200D02*
X130376100Y-79281800D01*
X130376100Y-79281800D02*
X130254400Y-78942000D01*
X130254400Y-78942000D02*
X130166200Y-78591100D01*
X130166200Y-78591100D02*
X130112600Y-78231600D01*
X130112600Y-78231600D02*
X130094500Y-77865900D01*
X130094500Y-77865900D02*
X130112600Y-77500200D01*
X130112600Y-77500200D02*
X130166200Y-77140700D01*
X130166200Y-77140700D02*
X130254400Y-76789800D01*
X130254400Y-76789800D02*
X130376100Y-76449900D01*
X130376100Y-76449900D02*
X130530400Y-76123600D01*
X130530400Y-76123600D02*
X130716100Y-75813100D01*
X130716100Y-75813100D02*
X130932400Y-75521000D01*
X130932400Y-75521000D02*
X131178200Y-75249600D01*
X131178200Y-75249600D02*
X131449600Y-75003800D01*
X131449600Y-75003800D02*
X131741700Y-74787500D01*
X131741700Y-74787500D02*
X132052200Y-74601800D01*
X132052200Y-74601800D02*
X132378500Y-74447500D01*
X132378500Y-74447500D02*
X132718400Y-74325800D01*
X132718400Y-74325800D02*
X133069300Y-74237600D01*
X133069300Y-74237600D02*
X133428800Y-74184000D01*
X133428800Y-74184000D02*
X133794500Y-74165900D01*
X133794500Y-74165900D02*
X134160200Y-74184000D01*
X134160200Y-74184000D02*
X134519700Y-74237600D01*
X134519700Y-74237600D02*
X134870600Y-74325800D01*
X134870600Y-74325800D02*
X135210400Y-74447500D01*
X135210400Y-74447500D02*
X135536800Y-74601800D01*
X135536800Y-74601800D02*
X135847200Y-74787500D01*
X135847200Y-74787500D02*
X136139400Y-75003800D01*
X136139400Y-75003800D02*
X136410800Y-75249600D01*
X136410800Y-75249600D02*
X136656600Y-75521000D01*
X136656600Y-75521000D02*
X136872800Y-75813100D01*
X136872800Y-75813100D02*
X137058600Y-76123600D01*
X137058600Y-76123600D02*
X137212800Y-76449900D01*
X137212800Y-76449900D02*
X137334500Y-76789800D01*
X137334500Y-76789800D02*
X137422700Y-77140700D01*
X137422700Y-77140700D02*
X137476400Y-77500200D01*
X137476400Y-77500200D02*
X137494500Y-77865900D01*
X137494500Y-77865900D02*
X137494500Y-77865900D01*
X137494500Y-101712600D02*
X137475400Y-102090900D01*
X137475400Y-102090900D02*
X137419300Y-102458200D01*
X137419300Y-102458200D02*
X137328100Y-102812800D01*
X137328100Y-102812800D02*
X137203700Y-103152800D01*
X137203700Y-103152800D02*
X137047900Y-103476200D01*
X137047900Y-103476200D02*
X136862600Y-103781300D01*
X136862600Y-103781300D02*
X136649600Y-104066100D01*
X136649600Y-104066100D02*
X136410800Y-104328900D01*
X136410800Y-104328900D02*
X136148000Y-104567700D01*
X136148000Y-104567700D02*
X135863200Y-104780700D01*
X135863200Y-104780700D02*
X135558100Y-104966000D01*
X135558100Y-104966000D02*
X135234700Y-105121800D01*
X135234700Y-105121800D02*
X134894700Y-105246200D01*
X134894700Y-105246200D02*
X134540200Y-105337400D01*
X134540200Y-105337400D02*
X134172800Y-105393500D01*
X134172800Y-105393500D02*
X133794500Y-105412600D01*
X133794500Y-105412600D02*
X133428800Y-105394500D01*
X133428800Y-105394500D02*
X133069300Y-105340800D01*
X133069300Y-105340800D02*
X132718400Y-105252600D01*
X132718400Y-105252600D02*
X132378500Y-105130900D01*
X132378500Y-105130900D02*
X132052200Y-104976700D01*
X132052200Y-104976700D02*
X131741700Y-104790900D01*
X131741700Y-104790900D02*
X131449600Y-104574600D01*
X131449600Y-104574600D02*
X131178200Y-104328900D01*
X131178200Y-104328900D02*
X130932400Y-104057500D01*
X130932400Y-104057500D02*
X130716100Y-103765300D01*
X130716100Y-103765300D02*
X130530400Y-103454900D01*
X130530400Y-103454900D02*
X130376100Y-103128500D01*
X130376100Y-103128500D02*
X130254400Y-102788700D01*
X130254400Y-102788700D02*
X130166200Y-102437800D01*
X130166200Y-102437800D02*
X130112600Y-102078300D01*
X130112600Y-102078300D02*
X130094500Y-101712600D01*
X130094500Y-101712600D02*
X130112600Y-101346900D01*
X130112600Y-101346900D02*
X130166200Y-100987400D01*
X130166200Y-100987400D02*
X130254400Y-100636500D01*
X130254400Y-100636500D02*
X130376100Y-100296600D01*
X130376100Y-100296600D02*
X130530400Y-99970300D01*
X130530400Y-99970300D02*
X130716100Y-99659800D01*
X130716100Y-99659800D02*
X130932400Y-99367700D01*
X130932400Y-99367700D02*
X131178200Y-99096300D01*
X131178200Y-99096300D02*
X131449600Y-98850500D01*
X131449600Y-98850500D02*
X131741700Y-98634200D01*
X131741700Y-98634200D02*
X132052200Y-98448500D01*
X132052200Y-98448500D02*
X132378500Y-98294200D01*
X132378500Y-98294200D02*
X132718400Y-98172500D01*
X132718400Y-98172500D02*
X133069300Y-98084300D01*
X133069300Y-98084300D02*
X133428800Y-98030700D01*
X133428800Y-98030700D02*
X133794500Y-98012600D01*
X133794500Y-98012600D02*
X134160200Y-98030700D01*
X134160200Y-98030700D02*
X134519700Y-98084300D01*
X134519700Y-98084300D02*
X134870600Y-98172500D01*
X134870600Y-98172500D02*
X135210400Y-98294200D01*
X135210400Y-98294200D02*
X135536800Y-98448500D01*
X135536800Y-98448500D02*
X135847200Y-98634200D01*
X135847200Y-98634200D02*
X136139400Y-98850500D01*
X136139400Y-98850500D02*
X136410800Y-99096300D01*
X136410800Y-99096300D02*
X136656600Y-99367700D01*
X136656600Y-99367700D02*
X136872800Y-99659800D01*
X136872800Y-99659800D02*
X137058600Y-99970300D01*
X137058600Y-99970300D02*
X137212800Y-100296600D01*
X137212800Y-100296600D02*
X137334500Y-100636500D01*
X137334500Y-100636500D02*
X137422700Y-100987400D01*
X137422700Y-100987400D02*
X137476400Y-101346900D01*
X137476400Y-101346900D02*
X137494500Y-101712600D01*
X137494500Y-101712600D02*
X137494500Y-101712600D01*
X130379000Y-123473800D02*
X130363400Y-123790100D01*
X130363400Y-123790100D02*
X130317000Y-124101000D01*
X130317000Y-124101000D02*
X130240700Y-124404500D01*
X130240700Y-124404500D02*
X130135400Y-124698400D01*
X130135400Y-124698400D02*
X130002100Y-124980600D01*
X130002100Y-124980600D02*
X129841400Y-125249200D01*
X129841400Y-125249200D02*
X129654300Y-125501800D01*
X129654300Y-125501800D02*
X129441800Y-125736500D01*
X129441800Y-125736500D02*
X129207000Y-125949100D01*
X129207000Y-125949100D02*
X128954400Y-126136200D01*
X128954400Y-126136200D02*
X128685900Y-126296800D01*
X128685900Y-126296800D02*
X128403590Y-126430200D01*
X128403590Y-126430200D02*
X128109670Y-126535500D01*
X128109670Y-126535500D02*
X127806210Y-126611700D01*
X127806210Y-126611700D02*
X127495280Y-126658100D01*
X127495280Y-126658100D02*
X127179000Y-126673800D01*
X127179000Y-126673800D02*
X126862720Y-126658100D01*
X126862720Y-126658100D02*
X126551800Y-126611700D01*
X126551800Y-126611700D02*
X126248330Y-126535500D01*
X126248330Y-126535500D02*
X125954410Y-126430200D01*
X125954410Y-126430200D02*
X125672150Y-126296800D01*
X125672150Y-126296800D02*
X125403640Y-126136200D01*
X125403640Y-126136200D02*
X125150980Y-125949100D01*
X125150980Y-125949100D02*
X124916260Y-125736500D01*
X124916260Y-125736500D02*
X124703690Y-125501800D01*
X124703690Y-125501800D02*
X124516640Y-125249200D01*
X124516640Y-125249200D02*
X124355980Y-124980600D01*
X124355980Y-124980600D02*
X124222590Y-124698400D01*
X124222590Y-124698400D02*
X124117320Y-124404500D01*
X124117320Y-124404500D02*
X124041060Y-124101000D01*
X124041060Y-124101000D02*
X123994660Y-123790100D01*
X123994660Y-123790100D02*
X123979000Y-123473800D01*
X123979000Y-123473800D02*
X123994660Y-123157500D01*
X123994660Y-123157500D02*
X124041060Y-122846600D01*
X124041060Y-122846600D02*
X124117320Y-122543100D01*
X124117320Y-122543100D02*
X124222590Y-122249200D01*
X124222590Y-122249200D02*
X124355980Y-121966900D01*
X124355980Y-121966900D02*
X124516640Y-121698400D01*
X124516640Y-121698400D02*
X124703690Y-121445800D01*
X124703690Y-121445800D02*
X124916260Y-121211100D01*
X124916260Y-121211100D02*
X125150980Y-120998500D01*
X125150980Y-120998500D02*
X125403640Y-120811400D01*
X125403640Y-120811400D02*
X125672150Y-120650800D01*
X125672150Y-120650800D02*
X125954410Y-120517400D01*
X125954410Y-120517400D02*
X126248330Y-120412100D01*
X126248330Y-120412100D02*
X126551800Y-120335800D01*
X126551800Y-120335800D02*
X126862720Y-120289500D01*
X126862720Y-120289500D02*
X127179000Y-120273800D01*
X127179000Y-120273800D02*
X127495280Y-120289500D01*
X127495280Y-120289500D02*
X127806210Y-120335800D01*
X127806210Y-120335800D02*
X128109670Y-120412100D01*
X128109670Y-120412100D02*
X128403590Y-120517400D01*
X128403590Y-120517400D02*
X128685900Y-120650800D01*
X128685900Y-120650800D02*
X128954400Y-120811400D01*
X128954400Y-120811400D02*
X129207000Y-120998500D01*
X129207000Y-120998500D02*
X129441800Y-121211100D01*
X129441800Y-121211100D02*
X129654300Y-121445800D01*
X129654300Y-121445800D02*
X129841400Y-121698400D01*
X129841400Y-121698400D02*
X130002100Y-121966900D01*
X130002100Y-121966900D02*
X130135400Y-122249200D01*
X130135400Y-122249200D02*
X130240700Y-122543100D01*
X130240700Y-122543100D02*
X130317000Y-122846600D01*
X130317000Y-122846600D02*
X130363400Y-123157500D01*
X130363400Y-123157500D02*
X130379000Y-123473800D01*
X130379000Y-123473800D02*
X130379000Y-123473800D01*
X130379000Y-123473800D02*
X130379000Y-123473800D01*
X143610000Y-123473800D02*
X143594400Y-123790100D01*
X143594400Y-123790100D02*
X143548000Y-124101000D01*
X143548000Y-124101000D02*
X143471700Y-124404500D01*
X143471700Y-124404500D02*
X143366400Y-124698400D01*
X143366400Y-124698400D02*
X143233100Y-124980600D01*
X143233100Y-124980600D02*
X143072400Y-125249200D01*
X143072400Y-125249200D02*
X142885300Y-125501800D01*
X142885300Y-125501800D02*
X142672800Y-125736500D01*
X142672800Y-125736500D02*
X142438100Y-125949100D01*
X142438100Y-125949100D02*
X142185400Y-126136200D01*
X142185400Y-126136200D02*
X141916900Y-126296800D01*
X141916900Y-126296800D02*
X141634600Y-126430200D01*
X141634600Y-126430200D02*
X141340700Y-126535500D01*
X141340700Y-126535500D02*
X141037200Y-126611700D01*
X141037200Y-126611700D02*
X140726300Y-126658100D01*
X140726300Y-126658100D02*
X140410000Y-126673800D01*
X140410000Y-126673800D02*
X140093700Y-126658100D01*
X140093700Y-126658100D02*
X139782800Y-126611700D01*
X139782800Y-126611700D02*
X139479400Y-126535500D01*
X139479400Y-126535500D02*
X139185400Y-126430200D01*
X139185400Y-126430200D02*
X138903200Y-126296800D01*
X138903200Y-126296800D02*
X138634700Y-126136200D01*
X138634700Y-126136200D02*
X138382000Y-125949100D01*
X138382000Y-125949100D02*
X138147300Y-125736500D01*
X138147300Y-125736500D02*
X137934700Y-125501800D01*
X137934700Y-125501800D02*
X137747700Y-125249200D01*
X137747700Y-125249200D02*
X137587000Y-124980600D01*
X137587000Y-124980600D02*
X137453600Y-124698400D01*
X137453600Y-124698400D02*
X137348300Y-124404500D01*
X137348300Y-124404500D02*
X137272100Y-124101000D01*
X137272100Y-124101000D02*
X137225700Y-123790100D01*
X137225700Y-123790100D02*
X137210000Y-123473800D01*
X137210000Y-123473800D02*
X137225700Y-123157500D01*
X137225700Y-123157500D02*
X137272100Y-122846600D01*
X137272100Y-122846600D02*
X137348300Y-122543100D01*
X137348300Y-122543100D02*
X137453600Y-122249200D01*
X137453600Y-122249200D02*
X137587000Y-121966900D01*
X137587000Y-121966900D02*
X137747700Y-121698400D01*
X137747700Y-121698400D02*
X137934700Y-121445800D01*
X137934700Y-121445800D02*
X138147300Y-121211100D01*
X138147300Y-121211100D02*
X138382000Y-120998500D01*
X138382000Y-120998500D02*
X138634700Y-120811400D01*
X138634700Y-120811400D02*
X138903200Y-120650800D01*
X138903200Y-120650800D02*
X139185400Y-120517400D01*
X139185400Y-120517400D02*
X139479400Y-120412100D01*
X139479400Y-120412100D02*
X139782800Y-120335800D01*
X139782800Y-120335800D02*
X140093700Y-120289500D01*
X140093700Y-120289500D02*
X140410000Y-120273800D01*
X140410000Y-120273800D02*
X140726300Y-120289500D01*
X140726300Y-120289500D02*
X141037200Y-120335800D01*
X141037200Y-120335800D02*
X141340700Y-120412100D01*
X141340700Y-120412100D02*
X141634600Y-120517400D01*
X141634600Y-120517400D02*
X141916900Y-120650800D01*
X141916900Y-120650800D02*
X142185400Y-120811400D01*
X142185400Y-120811400D02*
X142438100Y-120998500D01*
X142438100Y-120998500D02*
X142672800Y-121211100D01*
X142672800Y-121211100D02*
X142885300Y-121445800D01*
X142885300Y-121445800D02*
X143072400Y-121698400D01*
X143072400Y-121698400D02*
X143233100Y-121966900D01*
X143233100Y-121966900D02*
X143366400Y-122249200D01*
X143366400Y-122249200D02*
X143471700Y-122543100D01*
X143471700Y-122543100D02*
X143548000Y-122846600D01*
X143548000Y-122846600D02*
X143594400Y-123157500D01*
X143594400Y-123157500D02*
X143610000Y-123473800D01*
X143610000Y-123473800D02*
X143610000Y-123473800D01*
X143610000Y-123473800D02*
X143610000Y-123473800D01*
X130379000Y-138896500D02*
X130363400Y-139212500D01*
X130363400Y-139212500D02*
X130317000Y-139523500D01*
X130317000Y-139523500D02*
X130240700Y-139826500D01*
X130240700Y-139826500D02*
X130135400Y-140120500D01*
X130135400Y-140120500D02*
X130002100Y-140402500D01*
X130002100Y-140402500D02*
X129841400Y-140671500D01*
X129841400Y-140671500D02*
X129654300Y-140924500D01*
X129654300Y-140924500D02*
X129441800Y-141158500D01*
X129441800Y-141158500D02*
X129207000Y-141371500D01*
X129207000Y-141371500D02*
X128954400Y-141558500D01*
X128954400Y-141558500D02*
X128685900Y-141719500D01*
X128685900Y-141719500D02*
X128403590Y-141852500D01*
X128403590Y-141852500D02*
X128109670Y-141957500D01*
X128109670Y-141957500D02*
X127806210Y-142033500D01*
X127806210Y-142033500D02*
X127495280Y-142080500D01*
X127495280Y-142080500D02*
X127179000Y-142096500D01*
X127179000Y-142096500D02*
X126862720Y-142080500D01*
X126862720Y-142080500D02*
X126551800Y-142033500D01*
X126551800Y-142033500D02*
X126248330Y-141957500D01*
X126248330Y-141957500D02*
X125954410Y-141852500D01*
X125954410Y-141852500D02*
X125672150Y-141719500D01*
X125672150Y-141719500D02*
X125403640Y-141558500D01*
X125403640Y-141558500D02*
X125150980Y-141371500D01*
X125150980Y-141371500D02*
X124916260Y-141158500D01*
X124916260Y-141158500D02*
X124703690Y-140924500D01*
X124703690Y-140924500D02*
X124516640Y-140671500D01*
X124516640Y-140671500D02*
X124355980Y-140402500D01*
X124355980Y-140402500D02*
X124222590Y-140120500D01*
X124222590Y-140120500D02*
X124117320Y-139826500D01*
X124117320Y-139826500D02*
X124041060Y-139523500D01*
X124041060Y-139523500D02*
X123994660Y-139212500D01*
X123994660Y-139212500D02*
X123979000Y-138896500D01*
X123979000Y-138896500D02*
X123994660Y-138579500D01*
X123994660Y-138579500D02*
X124041060Y-138268500D01*
X124041060Y-138268500D02*
X124117320Y-137965500D01*
X124117320Y-137965500D02*
X124222590Y-137671500D01*
X124222590Y-137671500D02*
X124355980Y-137389500D01*
X124355980Y-137389500D02*
X124516640Y-137120500D01*
X124516640Y-137120500D02*
X124703690Y-136868500D01*
X124703690Y-136868500D02*
X124916260Y-136633500D01*
X124916260Y-136633500D02*
X125150980Y-136420500D01*
X125150980Y-136420500D02*
X125403640Y-136233500D01*
X125403640Y-136233500D02*
X125672150Y-136073500D01*
X125672150Y-136073500D02*
X125954410Y-135939500D01*
X125954410Y-135939500D02*
X126248330Y-135834500D01*
X126248330Y-135834500D02*
X126551800Y-135758500D01*
X126551800Y-135758500D02*
X126862720Y-135711500D01*
X126862720Y-135711500D02*
X127179000Y-135696500D01*
X127179000Y-135696500D02*
X127495280Y-135711500D01*
X127495280Y-135711500D02*
X127806210Y-135758500D01*
X127806210Y-135758500D02*
X128109670Y-135834500D01*
X128109670Y-135834500D02*
X128403590Y-135939500D01*
X128403590Y-135939500D02*
X128685900Y-136073500D01*
X128685900Y-136073500D02*
X128954400Y-136233500D01*
X128954400Y-136233500D02*
X129207000Y-136420500D01*
X129207000Y-136420500D02*
X129441800Y-136633500D01*
X129441800Y-136633500D02*
X129654300Y-136868500D01*
X129654300Y-136868500D02*
X129841400Y-137120500D01*
X129841400Y-137120500D02*
X130002100Y-137389500D01*
X130002100Y-137389500D02*
X130135400Y-137671500D01*
X130135400Y-137671500D02*
X130240700Y-137965500D01*
X130240700Y-137965500D02*
X130317000Y-138268500D01*
X130317000Y-138268500D02*
X130363400Y-138579500D01*
X130363400Y-138579500D02*
X130379000Y-138896500D01*
X130379000Y-138896500D02*
X130379000Y-138896500D01*
X130379000Y-138896500D02*
X130379000Y-138896500D01*
X143610000Y-138896500D02*
X143594400Y-139212500D01*
X143594400Y-139212500D02*
X143548000Y-139523500D01*
X143548000Y-139523500D02*
X143471700Y-139826500D01*
X143471700Y-139826500D02*
X143366400Y-140120500D01*
X143366400Y-140120500D02*
X143233100Y-140402500D01*
X143233100Y-140402500D02*
X143072400Y-140671500D01*
X143072400Y-140671500D02*
X142885300Y-140924500D01*
X142885300Y-140924500D02*
X142672800Y-141158500D01*
X142672800Y-141158500D02*
X142438100Y-141371500D01*
X142438100Y-141371500D02*
X142185400Y-141558500D01*
X142185400Y-141558500D02*
X141916900Y-141719500D01*
X141916900Y-141719500D02*
X141634600Y-141852500D01*
X141634600Y-141852500D02*
X141340700Y-141957500D01*
X141340700Y-141957500D02*
X141037200Y-142033500D01*
X141037200Y-142033500D02*
X140726300Y-142080500D01*
X140726300Y-142080500D02*
X140410000Y-142096500D01*
X140410000Y-142096500D02*
X140093700Y-142080500D01*
X140093700Y-142080500D02*
X139782800Y-142033500D01*
X139782800Y-142033500D02*
X139479400Y-141957500D01*
X139479400Y-141957500D02*
X139185400Y-141852500D01*
X139185400Y-141852500D02*
X138903200Y-141719500D01*
X138903200Y-141719500D02*
X138634700Y-141558500D01*
X138634700Y-141558500D02*
X138382000Y-141371500D01*
X138382000Y-141371500D02*
X138147300Y-141158500D01*
X138147300Y-141158500D02*
X137934700Y-140924500D01*
X137934700Y-140924500D02*
X137747700Y-140671500D01*
X137747700Y-140671500D02*
X137587000Y-140402500D01*
X137587000Y-140402500D02*
X137453600Y-140120500D01*
X137453600Y-140120500D02*
X137348300Y-139826500D01*
X137348300Y-139826500D02*
X137272100Y-139523500D01*
X137272100Y-139523500D02*
X137225700Y-139212500D01*
X137225700Y-139212500D02*
X137210000Y-138896500D01*
X137210000Y-138896500D02*
X137225700Y-138579500D01*
X137225700Y-138579500D02*
X137272100Y-138268500D01*
X137272100Y-138268500D02*
X137348300Y-137965500D01*
X137348300Y-137965500D02*
X137453600Y-137671500D01*
X137453600Y-137671500D02*
X137587000Y-137389500D01*
X137587000Y-137389500D02*
X137747700Y-137120500D01*
X137747700Y-137120500D02*
X137934700Y-136868500D01*
X137934700Y-136868500D02*
X138147300Y-136633500D01*
X138147300Y-136633500D02*
X138382000Y-136420500D01*
X138382000Y-136420500D02*
X138634700Y-136233500D01*
X138634700Y-136233500D02*
X138903200Y-136073500D01*
X138903200Y-136073500D02*
X139185400Y-135939500D01*
X139185400Y-135939500D02*
X139479400Y-135834500D01*
X139479400Y-135834500D02*
X139782800Y-135758500D01*
X139782800Y-135758500D02*
X140093700Y-135711500D01*
X140093700Y-135711500D02*
X140410000Y-135696500D01*
X140410000Y-135696500D02*
X140726300Y-135711500D01*
X140726300Y-135711500D02*
X141037200Y-135758500D01*
X141037200Y-135758500D02*
X141340700Y-135834500D01*
X141340700Y-135834500D02*
X141634600Y-135939500D01*
X141634600Y-135939500D02*
X141916900Y-136073500D01*
X141916900Y-136073500D02*
X142185400Y-136233500D01*
X142185400Y-136233500D02*
X142438100Y-136420500D01*
X142438100Y-136420500D02*
X142672800Y-136633500D01*
X142672800Y-136633500D02*
X142885300Y-136868500D01*
X142885300Y-136868500D02*
X143072400Y-137120500D01*
X143072400Y-137120500D02*
X143233100Y-137389500D01*
X143233100Y-137389500D02*
X143366400Y-137671500D01*
X143366400Y-137671500D02*
X143471700Y-137965500D01*
X143471700Y-137965500D02*
X143548000Y-138268500D01*
X143548000Y-138268500D02*
X143594400Y-138579500D01*
X143594400Y-138579500D02*
X143610000Y-138896500D01*
X143610000Y-138896500D02*
X143610000Y-138896500D01*
X143610000Y-138896500D02*
X143610000Y-138896500D01*
M02*
