G04 #@! TF.GenerationSoftware,KiCad,Pcbnew,(5.1.10-1-10_14)*
G04 #@! TF.CreationDate,2021-10-15T00:01:35+02:00*
G04 #@! TF.ProjectId,main,6d61696e-2e6b-4696-9361-645f70636258,rev?*
G04 #@! TF.SameCoordinates,Original*
G04 #@! TF.FileFunction,Soldermask,Bot*
G04 #@! TF.FilePolarity,Negative*
%FSLAX46Y46*%
G04 Gerber Fmt 4.6, Leading zero omitted, Abs format (unit mm)*
G04 Created by KiCad (PCBNEW (5.1.10-1-10_14)) date 2021-10-15 00:01:35*
%MOMM*%
%LPD*%
G01*
G04 APERTURE LIST*
%ADD10C,1.700000*%
%ADD11O,1.600000X1.600000*%
%ADD12R,1.600000X1.600000*%
%ADD13O,3.100000X2.300000*%
%ADD14O,2.720000X3.240000*%
%ADD15C,1.800000*%
%ADD16R,1.800000X1.800000*%
%ADD17O,1.400000X1.400000*%
%ADD18C,1.400000*%
%ADD19C,1.600000*%
G04 APERTURE END LIST*
D10*
X90297000Y-68516500D03*
X92837000Y-68516500D03*
X95377000Y-68516500D03*
X97917000Y-68516500D03*
X100457000Y-68516500D03*
X102997000Y-68516500D03*
X105537000Y-68516500D03*
X108077000Y-68516500D03*
X90297000Y-71056500D03*
X92837000Y-71056500D03*
X95377000Y-71056500D03*
X97917000Y-71056500D03*
X100457000Y-71056500D03*
X102997000Y-71056500D03*
X105537000Y-71056500D03*
G36*
G01*
X108677000Y-71906500D02*
X107477000Y-71906500D01*
G75*
G02*
X107227000Y-71656500I0J250000D01*
G01*
X107227000Y-70456500D01*
G75*
G02*
X107477000Y-70206500I250000J0D01*
G01*
X108677000Y-70206500D01*
G75*
G02*
X108927000Y-70456500I0J-250000D01*
G01*
X108927000Y-71656500D01*
G75*
G02*
X108677000Y-71906500I-250000J0D01*
G01*
G37*
D11*
X104394000Y-100707000D03*
D12*
X112014000Y-100707000D03*
D11*
X108727000Y-86233000D03*
D12*
X108727000Y-93853000D03*
D11*
X104394000Y-97431500D03*
D12*
X112014000Y-97431500D03*
D11*
X108611000Y-76136500D03*
D12*
X108611000Y-83756500D03*
D11*
X112003000Y-86233000D03*
D12*
X112003000Y-93853000D03*
D11*
X111887000Y-76136500D03*
D12*
X111887000Y-83756500D03*
G36*
G01*
X104554000Y-132192000D02*
X104554000Y-130892000D01*
G75*
G02*
X105204000Y-130242000I650000J0D01*
G01*
X106504000Y-130242000D01*
G75*
G02*
X107154000Y-130892000I0J-650000D01*
G01*
X107154000Y-132192000D01*
G75*
G02*
X106504000Y-132842000I-650000J0D01*
G01*
X105204000Y-132842000D01*
G75*
G02*
X104554000Y-132192000I0J650000D01*
G01*
G37*
D13*
X105854000Y-142942000D03*
G36*
G01*
X104554000Y-140492000D02*
X104554000Y-139192000D01*
G75*
G02*
X105204000Y-138542000I650000J0D01*
G01*
X106504000Y-138542000D01*
G75*
G02*
X107154000Y-139192000I0J-650000D01*
G01*
X107154000Y-140492000D01*
G75*
G02*
X106504000Y-141142000I-650000J0D01*
G01*
X105204000Y-141142000D01*
G75*
G02*
X104554000Y-140492000I0J650000D01*
G01*
G37*
D11*
X85407500Y-96583500D03*
X93027500Y-88963500D03*
X87947500Y-96583500D03*
X90487500Y-88963500D03*
X90487500Y-96583500D03*
X87947500Y-88963500D03*
X93027500Y-96583500D03*
D12*
X85407500Y-88963500D03*
D14*
X94918500Y-86162500D03*
X104518500Y-86162500D03*
D15*
X102218500Y-93662500D03*
X99718500Y-93662500D03*
D16*
X97218500Y-93662500D03*
D14*
X94410500Y-57714500D03*
X104010500Y-57714500D03*
D15*
X101710500Y-65214500D03*
X99210500Y-65214500D03*
D16*
X96710500Y-65214500D03*
D17*
X86169500Y-116205000D03*
D18*
X86169500Y-123825000D03*
D17*
X93281500Y-79283400D03*
D18*
X85661500Y-79283400D03*
D17*
X86659300Y-53594000D03*
D18*
X86659300Y-61214000D03*
D17*
X110898000Y-54419500D03*
D18*
X110898000Y-62039500D03*
D17*
X108022000Y-54419500D03*
D18*
X108022000Y-62039500D03*
D17*
X89535200Y-53594000D03*
D18*
X89535200Y-61214000D03*
D17*
X93281500Y-82159200D03*
D18*
X85661500Y-82159200D03*
D17*
X93281500Y-76407500D03*
D18*
X85661500Y-76407500D03*
G36*
G01*
X104300000Y-114856000D02*
X104300000Y-113556000D01*
G75*
G02*
X104950000Y-112906000I650000J0D01*
G01*
X106250000Y-112906000D01*
G75*
G02*
X106900000Y-113556000I0J-650000D01*
G01*
X106900000Y-114856000D01*
G75*
G02*
X106250000Y-115506000I-650000J0D01*
G01*
X104950000Y-115506000D01*
G75*
G02*
X104300000Y-114856000I0J650000D01*
G01*
G37*
D13*
X105600000Y-125606000D03*
G36*
G01*
X104300000Y-123156000D02*
X104300000Y-121856000D01*
G75*
G02*
X104950000Y-121206000I650000J0D01*
G01*
X106250000Y-121206000D01*
G75*
G02*
X106900000Y-121856000I0J-650000D01*
G01*
X106900000Y-123156000D01*
G75*
G02*
X106250000Y-123806000I-650000J0D01*
G01*
X104950000Y-123806000D01*
G75*
G02*
X104300000Y-123156000I0J650000D01*
G01*
G37*
D16*
X90487500Y-119253000D03*
D15*
X93027500Y-119253000D03*
D16*
X98425000Y-74485500D03*
D15*
X100965000Y-74485500D03*
G36*
G01*
X90457500Y-132192000D02*
X90457500Y-130892000D01*
G75*
G02*
X91107500Y-130242000I650000J0D01*
G01*
X92407500Y-130242000D01*
G75*
G02*
X93057500Y-130892000I0J-650000D01*
G01*
X93057500Y-132192000D01*
G75*
G02*
X92407500Y-132842000I-650000J0D01*
G01*
X91107500Y-132842000D01*
G75*
G02*
X90457500Y-132192000I0J650000D01*
G01*
G37*
D13*
X91757500Y-142942000D03*
G36*
G01*
X90457500Y-140492000D02*
X90457500Y-139192000D01*
G75*
G02*
X91107500Y-138542000I650000J0D01*
G01*
X92407500Y-138542000D01*
G75*
G02*
X93057500Y-139192000I0J-650000D01*
G01*
X93057500Y-140492000D01*
G75*
G02*
X92407500Y-141142000I-650000J0D01*
G01*
X91107500Y-141142000D01*
G75*
G02*
X90457500Y-140492000I0J650000D01*
G01*
G37*
D19*
X93071000Y-126789000D03*
X90571000Y-126789000D03*
X92880500Y-123413000D03*
X90380500Y-123413000D03*
D11*
X111696500Y-105092000D03*
X96456500Y-105092000D03*
X111696500Y-140652000D03*
X96456500Y-107632000D03*
X111696500Y-138112000D03*
X96456500Y-110172000D03*
X111696500Y-135572000D03*
X96456500Y-112712000D03*
X111696500Y-133032000D03*
X96456500Y-115252000D03*
X111696500Y-130492000D03*
X96456500Y-117792000D03*
X111696500Y-127952000D03*
X96456500Y-120332000D03*
X111696500Y-125412000D03*
X96456500Y-122872000D03*
X111696500Y-122872000D03*
X96456500Y-125412000D03*
X111696500Y-120332000D03*
X96456500Y-127952000D03*
X111696500Y-117792000D03*
X96456500Y-130492000D03*
X111696500Y-115252000D03*
X96456500Y-133032000D03*
X111696500Y-112712000D03*
X96456500Y-135572000D03*
X111696500Y-110172000D03*
X96456500Y-138112000D03*
X111696500Y-107632000D03*
D12*
X96456500Y-140652000D03*
M02*
