M48
; DRILL file {KiCad (5.1.10-1-10_14)} date Friday, October 15, 2021 at 12:01:35 AM
; FORMAT={-:-/ absolute / inch / decimal}
; #@! TF.CreationDate,2021-10-15T00:01:35+02:00
; #@! TF.GenerationSoftware,Kicad,Pcbnew,(5.1.10-1-10_14)
; #@! TF.FileFunction,Plated,1,2,PTH
FMAT,2
INCH
T1C0.0157
T2C0.0236
T3C0.0276
T4C0.0315
T5C0.0354
T6C0.0394
T7C0.0433
%
G90
G05
T1
X3.4548Y-3.2681
X3.5559Y-3.2237
X3.7224Y-4.5958
X3.7569Y-3.1458
X3.7811Y-2.9792
X3.8846Y-4.5053
X4.0218Y-3.9756
T3
X3.3725Y-3.0082
X3.3725Y-3.1214
X3.3725Y-3.2346
X3.3925Y-4.575
X3.3925Y-4.875
X3.4118Y-2.11
X3.4118Y-2.41
X3.525Y-2.11
X3.525Y-2.41
X3.6725Y-3.0082
X3.6725Y-3.1214
X3.6725Y-3.2346
X4.2528Y-2.1425
X4.2528Y-2.4425
X4.3661Y-2.1425
X4.3661Y-2.4425
T4
X3.3625Y-3.5025
X3.3625Y-3.8025
X3.4625Y-3.5025
X3.4625Y-3.8025
X3.5583Y-4.8588
X3.5625Y-3.5025
X3.5625Y-3.8025
X3.5658Y-4.9917
X3.6567Y-4.8588
X3.6625Y-3.5025
X3.6625Y-3.8025
X3.6642Y-4.9917
X4.11Y-3.8359
X4.11Y-3.9648
X4.276Y-2.9975
X4.276Y-3.2975
X4.2806Y-3.395
X4.2806Y-3.695
X4.405Y-2.9975
X4.405Y-3.2975
X4.4096Y-3.395
X4.4096Y-3.695
X4.41Y-3.8359
X4.41Y-3.9648
T5
X3.5625Y-4.695
X3.6625Y-4.695
X3.875Y-2.9325
X3.975Y-2.9325
T6
X3.555Y-2.6975
X3.555Y-2.7975
X3.655Y-2.6975
X3.655Y-2.7975
X3.755Y-2.6975
X3.755Y-2.7975
X3.7975Y-4.1375
X3.7975Y-4.2375
X3.7975Y-4.3375
X3.7975Y-4.4375
X3.7975Y-4.5375
X3.7975Y-4.6375
X3.7975Y-4.7375
X3.7975Y-4.8375
X3.7975Y-4.9375
X3.7975Y-5.0375
X3.7975Y-5.1375
X3.7975Y-5.2375
X3.7975Y-5.3375
X3.7975Y-5.4375
X3.7975Y-5.5375
X3.8075Y-2.5675
X3.8275Y-3.6875
X3.855Y-2.6975
X3.855Y-2.7975
X3.9059Y-2.5675
X3.9259Y-3.6875
X3.955Y-2.6975
X3.955Y-2.7975
X4.0044Y-2.5675
X4.0244Y-3.6875
X4.055Y-2.6975
X4.055Y-2.7975
X4.155Y-2.6975
X4.155Y-2.7975
X4.255Y-2.6975
X4.255Y-2.7975
X4.3975Y-4.1375
X4.3975Y-4.2375
X4.3975Y-4.3375
X4.3975Y-4.4375
X4.3975Y-4.5375
X4.3975Y-4.6375
X4.3975Y-4.7375
X4.3975Y-4.8375
X4.3975Y-4.9375
X4.3975Y-5.0375
X4.3975Y-5.1375
X4.3975Y-5.2375
X4.3975Y-5.3375
X4.3975Y-5.4375
X4.3975Y-5.5375
T2
G00X3.5928Y-5.1788
M15
G01X3.6322Y-5.1788
M16
G05
G00X3.5928Y-5.5056
M15
G01X3.6322Y-5.5056
M16
G05
G00X3.5928Y-5.6276
M15
G01X3.6322Y-5.6276
M16
G05
G00X4.1378Y-4.4963
M15
G01X4.1772Y-4.4963
M16
G05
G00X4.1378Y-4.8231
M15
G01X4.1772Y-4.8231
M16
G05
G00X4.1378Y-4.9451
M15
G01X4.1772Y-4.9451
M16
G05
G00X4.1478Y-5.1788
M15
G01X4.1872Y-5.1788
M16
G05
G00X4.1478Y-5.5056
M15
G01X4.1872Y-5.5056
M16
G05
G00X4.1478Y-5.6276
M15
G01X4.1872Y-5.6276
M16
G05
T6
G00X3.5369Y-3.9398
M15
G01X3.5881Y-3.9398
M16
G05
G00X3.5369Y-4.115
M15
G01X3.5881Y-4.115
M16
G05
G00X3.5369Y-4.2902
M15
G01X3.5881Y-4.2902
M16
G05
T7
G00X3.7169Y-2.286
M15
G01X3.7169Y-2.2584
M16
G05
G00X3.7369Y-3.406
M15
G01X3.7369Y-3.3784
M16
G05
G00X4.0949Y-2.286
M15
G01X4.0949Y-2.2584
M16
G05
G00X4.1149Y-3.406
M15
G01X4.1149Y-3.3784
M16
G05
T0
M30
