G04 #@! TF.GenerationSoftware,KiCad,Pcbnew,(5.1.10-1-10_14)*
G04 #@! TF.CreationDate,2021-10-15T00:01:35+02:00*
G04 #@! TF.ProjectId,main,6d61696e-2e6b-4696-9361-645f70636258,rev?*
G04 #@! TF.SameCoordinates,Original*
G04 #@! TF.FileFunction,Copper,L2,Bot*
G04 #@! TF.FilePolarity,Positive*
%FSLAX46Y46*%
G04 Gerber Fmt 4.6, Leading zero omitted, Abs format (unit mm)*
G04 Created by KiCad (PCBNEW (5.1.10-1-10_14)) date 2021-10-15 00:01:35*
%MOMM*%
%LPD*%
G01*
G04 APERTURE LIST*
G04 #@! TA.AperFunction,ComponentPad*
%ADD10C,1.700000*%
G04 #@! TD*
G04 #@! TA.AperFunction,ComponentPad*
%ADD11O,1.600000X1.600000*%
G04 #@! TD*
G04 #@! TA.AperFunction,ComponentPad*
%ADD12R,1.600000X1.600000*%
G04 #@! TD*
G04 #@! TA.AperFunction,ComponentPad*
%ADD13O,5.000000X3.200000*%
G04 #@! TD*
G04 #@! TA.AperFunction,ComponentPad*
%ADD14O,3.100000X2.300000*%
G04 #@! TD*
G04 #@! TA.AperFunction,ComponentPad*
%ADD15O,2.720000X3.240000*%
G04 #@! TD*
G04 #@! TA.AperFunction,ComponentPad*
%ADD16C,1.800000*%
G04 #@! TD*
G04 #@! TA.AperFunction,ComponentPad*
%ADD17R,1.800000X1.800000*%
G04 #@! TD*
G04 #@! TA.AperFunction,ComponentPad*
%ADD18O,1.400000X1.400000*%
G04 #@! TD*
G04 #@! TA.AperFunction,ComponentPad*
%ADD19C,1.400000*%
G04 #@! TD*
G04 #@! TA.AperFunction,ComponentPad*
%ADD20C,1.600000*%
G04 #@! TD*
G04 #@! TA.AperFunction,ViaPad*
%ADD21C,0.800000*%
G04 #@! TD*
G04 #@! TA.AperFunction,Conductor*
%ADD22C,0.300000*%
G04 #@! TD*
G04 APERTURE END LIST*
D10*
X90297000Y-68516500D03*
X92837000Y-68516500D03*
X95377000Y-68516500D03*
X97917000Y-68516500D03*
X100457000Y-68516500D03*
X102997000Y-68516500D03*
X105537000Y-68516500D03*
X108077000Y-68516500D03*
X90297000Y-71056500D03*
X92837000Y-71056500D03*
X95377000Y-71056500D03*
X97917000Y-71056500D03*
X100457000Y-71056500D03*
X102997000Y-71056500D03*
X105537000Y-71056500D03*
G04 #@! TA.AperFunction,ComponentPad*
G36*
G01*
X108677000Y-71906500D02*
X107477000Y-71906500D01*
G75*
G02*
X107227000Y-71656500I0J250000D01*
G01*
X107227000Y-70456500D01*
G75*
G02*
X107477000Y-70206500I250000J0D01*
G01*
X108677000Y-70206500D01*
G75*
G02*
X108927000Y-70456500I0J-250000D01*
G01*
X108927000Y-71656500D01*
G75*
G02*
X108677000Y-71906500I-250000J0D01*
G01*
G37*
G04 #@! TD.AperFunction*
D11*
X104394000Y-100707000D03*
D12*
X112014000Y-100707000D03*
D11*
X108727000Y-86233000D03*
D12*
X108727000Y-93853000D03*
D11*
X104394000Y-97431500D03*
D12*
X112014000Y-97431500D03*
D11*
X108611000Y-76136500D03*
D12*
X108611000Y-83756500D03*
D11*
X112003000Y-86233000D03*
D12*
X112003000Y-93853000D03*
D11*
X111887000Y-76136500D03*
D12*
X111887000Y-83756500D03*
D13*
X90487500Y-108971000D03*
X90487500Y-104521000D03*
X90487500Y-100071000D03*
G04 #@! TA.AperFunction,ComponentPad*
G36*
G01*
X104554000Y-132192000D02*
X104554000Y-130892000D01*
G75*
G02*
X105204000Y-130242000I650000J0D01*
G01*
X106504000Y-130242000D01*
G75*
G02*
X107154000Y-130892000I0J-650000D01*
G01*
X107154000Y-132192000D01*
G75*
G02*
X106504000Y-132842000I-650000J0D01*
G01*
X105204000Y-132842000D01*
G75*
G02*
X104554000Y-132192000I0J650000D01*
G01*
G37*
G04 #@! TD.AperFunction*
D14*
X105854000Y-142942000D03*
G04 #@! TA.AperFunction,ComponentPad*
G36*
G01*
X104554000Y-140492000D02*
X104554000Y-139192000D01*
G75*
G02*
X105204000Y-138542000I650000J0D01*
G01*
X106504000Y-138542000D01*
G75*
G02*
X107154000Y-139192000I0J-650000D01*
G01*
X107154000Y-140492000D01*
G75*
G02*
X106504000Y-141142000I-650000J0D01*
G01*
X105204000Y-141142000D01*
G75*
G02*
X104554000Y-140492000I0J650000D01*
G01*
G37*
G04 #@! TD.AperFunction*
D11*
X85407500Y-96583500D03*
X93027500Y-88963500D03*
X87947500Y-96583500D03*
X90487500Y-88963500D03*
X90487500Y-96583500D03*
X87947500Y-88963500D03*
X93027500Y-96583500D03*
D12*
X85407500Y-88963500D03*
D15*
X94918500Y-86162500D03*
X104518500Y-86162500D03*
D16*
X102218500Y-93662500D03*
X99718500Y-93662500D03*
D17*
X97218500Y-93662500D03*
D15*
X94410500Y-57714500D03*
X104010500Y-57714500D03*
D16*
X101710500Y-65214500D03*
X99210500Y-65214500D03*
D17*
X96710500Y-65214500D03*
D18*
X86169500Y-116205000D03*
D19*
X86169500Y-123825000D03*
D18*
X93281500Y-79283400D03*
D19*
X85661500Y-79283400D03*
D18*
X86659300Y-53594000D03*
D19*
X86659300Y-61214000D03*
D18*
X110898000Y-54419500D03*
D19*
X110898000Y-62039500D03*
D18*
X108022000Y-54419500D03*
D19*
X108022000Y-62039500D03*
D18*
X89535200Y-53594000D03*
D19*
X89535200Y-61214000D03*
D18*
X93281500Y-82159200D03*
D19*
X85661500Y-82159200D03*
D18*
X93281500Y-76407500D03*
D19*
X85661500Y-76407500D03*
G04 #@! TA.AperFunction,ComponentPad*
G36*
G01*
X104300000Y-114856000D02*
X104300000Y-113556000D01*
G75*
G02*
X104950000Y-112906000I650000J0D01*
G01*
X106250000Y-112906000D01*
G75*
G02*
X106900000Y-113556000I0J-650000D01*
G01*
X106900000Y-114856000D01*
G75*
G02*
X106250000Y-115506000I-650000J0D01*
G01*
X104950000Y-115506000D01*
G75*
G02*
X104300000Y-114856000I0J650000D01*
G01*
G37*
G04 #@! TD.AperFunction*
D14*
X105600000Y-125606000D03*
G04 #@! TA.AperFunction,ComponentPad*
G36*
G01*
X104300000Y-123156000D02*
X104300000Y-121856000D01*
G75*
G02*
X104950000Y-121206000I650000J0D01*
G01*
X106250000Y-121206000D01*
G75*
G02*
X106900000Y-121856000I0J-650000D01*
G01*
X106900000Y-123156000D01*
G75*
G02*
X106250000Y-123806000I-650000J0D01*
G01*
X104950000Y-123806000D01*
G75*
G02*
X104300000Y-123156000I0J650000D01*
G01*
G37*
G04 #@! TD.AperFunction*
D17*
X90487500Y-119253000D03*
D16*
X93027500Y-119253000D03*
D17*
X98425000Y-74485500D03*
D16*
X100965000Y-74485500D03*
G04 #@! TA.AperFunction,ComponentPad*
G36*
G01*
X90457500Y-132192000D02*
X90457500Y-130892000D01*
G75*
G02*
X91107500Y-130242000I650000J0D01*
G01*
X92407500Y-130242000D01*
G75*
G02*
X93057500Y-130892000I0J-650000D01*
G01*
X93057500Y-132192000D01*
G75*
G02*
X92407500Y-132842000I-650000J0D01*
G01*
X91107500Y-132842000D01*
G75*
G02*
X90457500Y-132192000I0J650000D01*
G01*
G37*
G04 #@! TD.AperFunction*
D14*
X91757500Y-142942000D03*
G04 #@! TA.AperFunction,ComponentPad*
G36*
G01*
X90457500Y-140492000D02*
X90457500Y-139192000D01*
G75*
G02*
X91107500Y-138542000I650000J0D01*
G01*
X92407500Y-138542000D01*
G75*
G02*
X93057500Y-139192000I0J-650000D01*
G01*
X93057500Y-140492000D01*
G75*
G02*
X92407500Y-141142000I-650000J0D01*
G01*
X91107500Y-141142000D01*
G75*
G02*
X90457500Y-140492000I0J650000D01*
G01*
G37*
G04 #@! TD.AperFunction*
D20*
X93071000Y-126789000D03*
X90571000Y-126789000D03*
X92880500Y-123413000D03*
X90380500Y-123413000D03*
D11*
X111696500Y-105092000D03*
X96456500Y-105092000D03*
X111696500Y-140652000D03*
X96456500Y-107632000D03*
X111696500Y-138112000D03*
X96456500Y-110172000D03*
X111696500Y-135572000D03*
X96456500Y-112712000D03*
X111696500Y-133032000D03*
X96456500Y-115252000D03*
X111696500Y-130492000D03*
X96456500Y-117792000D03*
X111696500Y-127952000D03*
X96456500Y-120332000D03*
X111696500Y-125412000D03*
X96456500Y-122872000D03*
X111696500Y-122872000D03*
X96456500Y-125412000D03*
X111696500Y-120332000D03*
X96456500Y-127952000D03*
X111696500Y-117792000D03*
X96456500Y-130492000D03*
X111696500Y-115252000D03*
X96456500Y-133032000D03*
X111696500Y-112712000D03*
X96456500Y-135572000D03*
X111696500Y-110172000D03*
X96456500Y-138112000D03*
X111696500Y-107632000D03*
D12*
X96456500Y-140652000D03*
D21*
X102153200Y-100980600D03*
X98669300Y-114435200D03*
X96040200Y-75671200D03*
X95424400Y-79902200D03*
X94548200Y-116732700D03*
X90318800Y-81881000D03*
X87752900Y-83009500D03*
D22*
X90487500Y-90213800D02*
X90487500Y-90711700D01*
X90487500Y-90711700D02*
X100702600Y-100926800D01*
X100702600Y-100926800D02*
X100702600Y-101657800D01*
X100702600Y-101657800D02*
X104136800Y-105092000D01*
X104136800Y-105092000D02*
X111696500Y-105092000D01*
X90487500Y-88963500D02*
X90487500Y-90213800D01*
X108962200Y-139596000D02*
X110446200Y-138112000D01*
X105854000Y-142942000D02*
X105854000Y-142704200D01*
X105854000Y-142704200D02*
X108962200Y-139596000D01*
X108962200Y-139596000D02*
X101086200Y-131720100D01*
X101086200Y-131720100D02*
X101024600Y-131781700D01*
X101024600Y-131781700D02*
X96456500Y-131781700D01*
X105600000Y-127206300D02*
X101086200Y-131720100D01*
X112003000Y-86233000D02*
X110752700Y-86233000D01*
X102218500Y-93662500D02*
X103323200Y-93662500D01*
X103323200Y-93662500D02*
X110752700Y-86233000D01*
X111696500Y-138112000D02*
X110446200Y-138112000D01*
X101710500Y-68516500D02*
X100457000Y-68516500D01*
X102997000Y-68516500D02*
X101710500Y-68516500D01*
X101710500Y-68516500D02*
X101710500Y-65214500D01*
X90487500Y-100071000D02*
X90487500Y-98020700D01*
X87947500Y-96583500D02*
X87947500Y-97833800D01*
X87947500Y-97833800D02*
X90300600Y-97833800D01*
X90300600Y-97833800D02*
X90487500Y-98020700D01*
X90487500Y-100071000D02*
X90487500Y-102121300D01*
X90487500Y-119253000D02*
X87570800Y-119253000D01*
X87570800Y-119253000D02*
X84989200Y-116671400D01*
X84989200Y-116671400D02*
X84989200Y-106198200D01*
X84989200Y-106198200D02*
X89066100Y-102121300D01*
X89066100Y-102121300D02*
X90487500Y-102121300D01*
X93071000Y-126789000D02*
X93071000Y-129222900D01*
X93071000Y-129222900D02*
X95629800Y-131781700D01*
X95629800Y-131781700D02*
X96456500Y-131781700D01*
X105537000Y-68516500D02*
X102997000Y-68516500D01*
X100457000Y-71056500D02*
X102997000Y-71056500D01*
X98425000Y-74485500D02*
X98425000Y-73088500D01*
X98425000Y-73088500D02*
X100457000Y-71056500D01*
X105537000Y-71056500D02*
X102997000Y-71056500D01*
X105600000Y-125606000D02*
X105600000Y-127206300D01*
X96456500Y-133032000D02*
X96456500Y-131781700D01*
X87947500Y-90213800D02*
X91757500Y-94023800D01*
X91757500Y-94023800D02*
X91757500Y-97477100D01*
X91757500Y-97477100D02*
X94957600Y-100677200D01*
X94957600Y-100677200D02*
X94957600Y-107970000D01*
X94957600Y-107970000D02*
X95909300Y-108921700D01*
X95909300Y-108921700D02*
X96456500Y-108921700D01*
X87947500Y-88963500D02*
X87947500Y-90213800D01*
X96456500Y-110172000D02*
X96456500Y-108921700D01*
X93027500Y-96583500D02*
X93027500Y-97833800D01*
X96456500Y-112712000D02*
X96456500Y-111461700D01*
X96456500Y-111461700D02*
X97003500Y-111461700D01*
X97003500Y-111461700D02*
X97708200Y-110757000D01*
X97708200Y-110757000D02*
X97708200Y-102514500D01*
X97708200Y-102514500D02*
X93027500Y-97833800D01*
X85407500Y-88963500D02*
X85407500Y-87713200D01*
X85407500Y-87713200D02*
X84470300Y-86776000D01*
X84470300Y-86776000D02*
X84470300Y-81666600D01*
X84470300Y-81666600D02*
X85179300Y-80957600D01*
X85179300Y-80957600D02*
X86919700Y-80957600D01*
X86919700Y-80957600D02*
X92377700Y-86415600D01*
X92377700Y-86415600D02*
X92377700Y-86493600D01*
X92377700Y-86493600D02*
X97218500Y-91334400D01*
X97218500Y-91334400D02*
X97218500Y-93662500D01*
X90487500Y-95333200D02*
X85407500Y-90253200D01*
X85407500Y-90253200D02*
X85407500Y-88963500D01*
X97218500Y-93662500D02*
X98582800Y-95026800D01*
X98582800Y-95026800D02*
X106302900Y-95026800D01*
X106302900Y-95026800D02*
X107476700Y-93853000D01*
X111887000Y-83756500D02*
X113269000Y-85138500D01*
X113269000Y-85138500D02*
X113269000Y-88060700D01*
X113269000Y-88060700D02*
X108727000Y-92602700D01*
X111887000Y-83756500D02*
X108611000Y-83756500D01*
X108727000Y-93853000D02*
X108727000Y-92602700D01*
X90487500Y-96583500D02*
X90487500Y-95333200D01*
X108727000Y-93853000D02*
X107476700Y-93853000D01*
X96710500Y-65214500D02*
X96710500Y-66564800D01*
X96710500Y-66564800D02*
X95377000Y-67898300D01*
X95377000Y-67898300D02*
X95377000Y-68516500D01*
X96456500Y-117792000D02*
X96456500Y-116541700D01*
X112003000Y-93853000D02*
X110752700Y-93853000D01*
X102153200Y-100980600D02*
X104064500Y-99069300D01*
X104064500Y-99069300D02*
X105770800Y-99069300D01*
X105770800Y-99069300D02*
X110752700Y-94087400D01*
X110752700Y-94087400D02*
X110752700Y-93853000D01*
X96456500Y-116541700D02*
X96991800Y-116541700D01*
X96991800Y-116541700D02*
X98669300Y-114864200D01*
X98669300Y-114864200D02*
X98669300Y-114435200D01*
X111887000Y-76136500D02*
X110636700Y-76136500D01*
X85661500Y-76407500D02*
X86818600Y-77564600D01*
X86818600Y-77564600D02*
X109208600Y-77564600D01*
X109208600Y-77564600D02*
X110636700Y-76136500D01*
X110898000Y-55569800D02*
X112093700Y-56765500D01*
X112093700Y-56765500D02*
X112093700Y-70127800D01*
X112093700Y-70127800D02*
X106384100Y-75837400D01*
X106384100Y-75837400D02*
X96206400Y-75837400D01*
X96206400Y-75837400D02*
X96040200Y-75671200D01*
X110898000Y-54419500D02*
X110898000Y-55569800D01*
X96456500Y-122872000D02*
X95206200Y-122872000D01*
X95206200Y-122872000D02*
X93414800Y-124663400D01*
X93414800Y-124663400D02*
X87007900Y-124663400D01*
X87007900Y-124663400D02*
X86169500Y-123825000D01*
X85661500Y-79283400D02*
X87359300Y-79283400D01*
X87359300Y-79283400D02*
X88828400Y-80752500D01*
X88828400Y-80752500D02*
X101996200Y-80752500D01*
X101996200Y-80752500D02*
X107476700Y-86233000D01*
X108727000Y-86233000D02*
X107476700Y-86233000D01*
X111696500Y-122872000D02*
X110446200Y-122872000D01*
X110446200Y-122872000D02*
X108288100Y-120713900D01*
X108288100Y-120713900D02*
X104536000Y-120713900D01*
X104536000Y-120713900D02*
X101107900Y-124142000D01*
X101107900Y-124142000D02*
X95933100Y-124142000D01*
X95933100Y-124142000D02*
X94801600Y-125273500D01*
X94801600Y-125273500D02*
X92086500Y-125273500D01*
X92086500Y-125273500D02*
X90571000Y-126789000D01*
X85661500Y-82159200D02*
X89217500Y-85715200D01*
X89217500Y-85715200D02*
X89217500Y-90348600D01*
X89217500Y-90348600D02*
X100102300Y-101233400D01*
X100102300Y-101233400D02*
X100102300Y-102082600D01*
X100102300Y-102082600D02*
X107356200Y-109336500D01*
X107356200Y-109336500D02*
X107356200Y-117792000D01*
X107356200Y-117792000D02*
X111696500Y-117792000D01*
X90380500Y-123413000D02*
X92181300Y-121612200D01*
X92181300Y-121612200D02*
X101182400Y-121612200D01*
X101182400Y-121612200D02*
X105002600Y-117792000D01*
X105002600Y-117792000D02*
X107356200Y-117792000D01*
X100965000Y-74485500D02*
X106882700Y-74485500D01*
X106882700Y-74485500D02*
X110898000Y-70470200D01*
X110898000Y-70470200D02*
X110898000Y-62039500D01*
X108611000Y-76136500D02*
X107360700Y-76136500D01*
X86659300Y-61214000D02*
X86659300Y-69281400D01*
X86659300Y-69281400D02*
X90972500Y-73594600D01*
X90972500Y-73594600D02*
X92542900Y-73594600D01*
X92542900Y-73594600D02*
X95473200Y-76524900D01*
X95473200Y-76524900D02*
X106972300Y-76524900D01*
X106972300Y-76524900D02*
X107360700Y-76136500D01*
X94431800Y-79283400D02*
X95050600Y-79902200D01*
X95050600Y-79902200D02*
X95424400Y-79902200D01*
X93281500Y-79283400D02*
X94431800Y-79283400D01*
X93027500Y-119253000D02*
X94548200Y-117732300D01*
X94548200Y-117732300D02*
X94548200Y-116732700D01*
X105600000Y-114206000D02*
X104978900Y-113584900D01*
X104978900Y-113584900D02*
X98317200Y-113584900D01*
X98317200Y-113584900D02*
X97920100Y-113982000D01*
X97920100Y-113982000D02*
X89542800Y-113982000D01*
X89542800Y-113982000D02*
X87319800Y-116205000D01*
X86169500Y-116205000D02*
X87319800Y-116205000D01*
X90318800Y-81881000D02*
X91794500Y-83356700D01*
X91794500Y-83356700D02*
X94950800Y-83356700D01*
X94950800Y-83356700D02*
X99718500Y-88124400D01*
X99718500Y-88124400D02*
X99718500Y-93662500D01*
X87752900Y-83009500D02*
X91757500Y-87014100D01*
X91757500Y-87014100D02*
X91757500Y-91132800D01*
X91757500Y-91132800D02*
X101302900Y-100678200D01*
X101302900Y-100678200D02*
X101302900Y-101409200D01*
X101302900Y-101409200D02*
X103135900Y-103242200D01*
X103135900Y-103242200D02*
X111629800Y-103242200D01*
X111629800Y-103242200D02*
X112996000Y-104608400D01*
X112996000Y-104608400D02*
X112996000Y-123385200D01*
X112996000Y-123385200D02*
X112239300Y-124141900D01*
X112239300Y-124141900D02*
X111161300Y-124141900D01*
X111161300Y-124141900D02*
X105854000Y-129449200D01*
X105854000Y-129449200D02*
X105854000Y-131542000D01*
M02*
