G04 #@! TF.GenerationSoftware,KiCad,Pcbnew,(5.1.10-1-10_14)*
G04 #@! TF.CreationDate,2021-10-15T00:01:35+02:00*
G04 #@! TF.ProjectId,main,6d61696e-2e6b-4696-9361-645f70636258,rev?*
G04 #@! TF.SameCoordinates,Original*
G04 #@! TF.FileFunction,Copper,L1,Top*
G04 #@! TF.FilePolarity,Positive*
%FSLAX46Y46*%
G04 Gerber Fmt 4.6, Leading zero omitted, Abs format (unit mm)*
G04 Created by KiCad (PCBNEW (5.1.10-1-10_14)) date 2021-10-15 00:01:35*
%MOMM*%
%LPD*%
G01*
G04 APERTURE LIST*
G04 #@! TA.AperFunction,ComponentPad*
%ADD10C,1.700000*%
G04 #@! TD*
G04 #@! TA.AperFunction,ComponentPad*
%ADD11O,1.600000X1.600000*%
G04 #@! TD*
G04 #@! TA.AperFunction,ComponentPad*
%ADD12R,1.600000X1.600000*%
G04 #@! TD*
G04 #@! TA.AperFunction,ComponentPad*
%ADD13O,5.000000X3.200000*%
G04 #@! TD*
G04 #@! TA.AperFunction,ComponentPad*
%ADD14O,3.100000X2.300000*%
G04 #@! TD*
G04 #@! TA.AperFunction,ComponentPad*
%ADD15O,2.720000X3.240000*%
G04 #@! TD*
G04 #@! TA.AperFunction,ComponentPad*
%ADD16C,1.800000*%
G04 #@! TD*
G04 #@! TA.AperFunction,ComponentPad*
%ADD17R,1.800000X1.800000*%
G04 #@! TD*
G04 #@! TA.AperFunction,ComponentPad*
%ADD18O,1.400000X1.400000*%
G04 #@! TD*
G04 #@! TA.AperFunction,ComponentPad*
%ADD19C,1.400000*%
G04 #@! TD*
G04 #@! TA.AperFunction,ComponentPad*
%ADD20C,1.600000*%
G04 #@! TD*
G04 #@! TA.AperFunction,ViaPad*
%ADD21C,0.800000*%
G04 #@! TD*
G04 #@! TA.AperFunction,Conductor*
%ADD22C,0.300000*%
G04 #@! TD*
G04 APERTURE END LIST*
D10*
X90297000Y-68516500D03*
X92837000Y-68516500D03*
X95377000Y-68516500D03*
X97917000Y-68516500D03*
X100457000Y-68516500D03*
X102997000Y-68516500D03*
X105537000Y-68516500D03*
X108077000Y-68516500D03*
X90297000Y-71056500D03*
X92837000Y-71056500D03*
X95377000Y-71056500D03*
X97917000Y-71056500D03*
X100457000Y-71056500D03*
X102997000Y-71056500D03*
X105537000Y-71056500D03*
G04 #@! TA.AperFunction,ComponentPad*
G36*
G01*
X108677000Y-71906500D02*
X107477000Y-71906500D01*
G75*
G02*
X107227000Y-71656500I0J250000D01*
G01*
X107227000Y-70456500D01*
G75*
G02*
X107477000Y-70206500I250000J0D01*
G01*
X108677000Y-70206500D01*
G75*
G02*
X108927000Y-70456500I0J-250000D01*
G01*
X108927000Y-71656500D01*
G75*
G02*
X108677000Y-71906500I-250000J0D01*
G01*
G37*
G04 #@! TD.AperFunction*
D11*
X104394000Y-100707000D03*
D12*
X112014000Y-100707000D03*
D11*
X108727000Y-86233000D03*
D12*
X108727000Y-93853000D03*
D11*
X104394000Y-97431500D03*
D12*
X112014000Y-97431500D03*
D11*
X108611000Y-76136500D03*
D12*
X108611000Y-83756500D03*
D11*
X112003000Y-86233000D03*
D12*
X112003000Y-93853000D03*
D11*
X111887000Y-76136500D03*
D12*
X111887000Y-83756500D03*
D13*
X90487500Y-108971000D03*
X90487500Y-104521000D03*
X90487500Y-100071000D03*
G04 #@! TA.AperFunction,ComponentPad*
G36*
G01*
X104554000Y-132192000D02*
X104554000Y-130892000D01*
G75*
G02*
X105204000Y-130242000I650000J0D01*
G01*
X106504000Y-130242000D01*
G75*
G02*
X107154000Y-130892000I0J-650000D01*
G01*
X107154000Y-132192000D01*
G75*
G02*
X106504000Y-132842000I-650000J0D01*
G01*
X105204000Y-132842000D01*
G75*
G02*
X104554000Y-132192000I0J650000D01*
G01*
G37*
G04 #@! TD.AperFunction*
D14*
X105854000Y-142942000D03*
G04 #@! TA.AperFunction,ComponentPad*
G36*
G01*
X104554000Y-140492000D02*
X104554000Y-139192000D01*
G75*
G02*
X105204000Y-138542000I650000J0D01*
G01*
X106504000Y-138542000D01*
G75*
G02*
X107154000Y-139192000I0J-650000D01*
G01*
X107154000Y-140492000D01*
G75*
G02*
X106504000Y-141142000I-650000J0D01*
G01*
X105204000Y-141142000D01*
G75*
G02*
X104554000Y-140492000I0J650000D01*
G01*
G37*
G04 #@! TD.AperFunction*
D11*
X85407500Y-96583500D03*
X93027500Y-88963500D03*
X87947500Y-96583500D03*
X90487500Y-88963500D03*
X90487500Y-96583500D03*
X87947500Y-88963500D03*
X93027500Y-96583500D03*
D12*
X85407500Y-88963500D03*
D15*
X94918500Y-86162500D03*
X104518500Y-86162500D03*
D16*
X102218500Y-93662500D03*
X99718500Y-93662500D03*
D17*
X97218500Y-93662500D03*
D15*
X94410500Y-57714500D03*
X104010500Y-57714500D03*
D16*
X101710500Y-65214500D03*
X99210500Y-65214500D03*
D17*
X96710500Y-65214500D03*
D18*
X86169500Y-116205000D03*
D19*
X86169500Y-123825000D03*
D18*
X93281500Y-79283400D03*
D19*
X85661500Y-79283400D03*
D18*
X86659300Y-53594000D03*
D19*
X86659300Y-61214000D03*
D18*
X110898000Y-54419500D03*
D19*
X110898000Y-62039500D03*
D18*
X108022000Y-54419500D03*
D19*
X108022000Y-62039500D03*
D18*
X89535200Y-53594000D03*
D19*
X89535200Y-61214000D03*
D18*
X93281500Y-82159200D03*
D19*
X85661500Y-82159200D03*
D18*
X93281500Y-76407500D03*
D19*
X85661500Y-76407500D03*
G04 #@! TA.AperFunction,ComponentPad*
G36*
G01*
X104300000Y-114856000D02*
X104300000Y-113556000D01*
G75*
G02*
X104950000Y-112906000I650000J0D01*
G01*
X106250000Y-112906000D01*
G75*
G02*
X106900000Y-113556000I0J-650000D01*
G01*
X106900000Y-114856000D01*
G75*
G02*
X106250000Y-115506000I-650000J0D01*
G01*
X104950000Y-115506000D01*
G75*
G02*
X104300000Y-114856000I0J650000D01*
G01*
G37*
G04 #@! TD.AperFunction*
D14*
X105600000Y-125606000D03*
G04 #@! TA.AperFunction,ComponentPad*
G36*
G01*
X104300000Y-123156000D02*
X104300000Y-121856000D01*
G75*
G02*
X104950000Y-121206000I650000J0D01*
G01*
X106250000Y-121206000D01*
G75*
G02*
X106900000Y-121856000I0J-650000D01*
G01*
X106900000Y-123156000D01*
G75*
G02*
X106250000Y-123806000I-650000J0D01*
G01*
X104950000Y-123806000D01*
G75*
G02*
X104300000Y-123156000I0J650000D01*
G01*
G37*
G04 #@! TD.AperFunction*
D17*
X90487500Y-119253000D03*
D16*
X93027500Y-119253000D03*
D17*
X98425000Y-74485500D03*
D16*
X100965000Y-74485500D03*
G04 #@! TA.AperFunction,ComponentPad*
G36*
G01*
X90457500Y-132192000D02*
X90457500Y-130892000D01*
G75*
G02*
X91107500Y-130242000I650000J0D01*
G01*
X92407500Y-130242000D01*
G75*
G02*
X93057500Y-130892000I0J-650000D01*
G01*
X93057500Y-132192000D01*
G75*
G02*
X92407500Y-132842000I-650000J0D01*
G01*
X91107500Y-132842000D01*
G75*
G02*
X90457500Y-132192000I0J650000D01*
G01*
G37*
G04 #@! TD.AperFunction*
D14*
X91757500Y-142942000D03*
G04 #@! TA.AperFunction,ComponentPad*
G36*
G01*
X90457500Y-140492000D02*
X90457500Y-139192000D01*
G75*
G02*
X91107500Y-138542000I650000J0D01*
G01*
X92407500Y-138542000D01*
G75*
G02*
X93057500Y-139192000I0J-650000D01*
G01*
X93057500Y-140492000D01*
G75*
G02*
X92407500Y-141142000I-650000J0D01*
G01*
X91107500Y-141142000D01*
G75*
G02*
X90457500Y-140492000I0J650000D01*
G01*
G37*
G04 #@! TD.AperFunction*
D20*
X93071000Y-126789000D03*
X90571000Y-126789000D03*
X92880500Y-123413000D03*
X90380500Y-123413000D03*
D11*
X111696500Y-105092000D03*
X96456500Y-105092000D03*
X111696500Y-140652000D03*
X96456500Y-107632000D03*
X111696500Y-138112000D03*
X96456500Y-110172000D03*
X111696500Y-135572000D03*
X96456500Y-112712000D03*
X111696500Y-133032000D03*
X96456500Y-115252000D03*
X111696500Y-130492000D03*
X96456500Y-117792000D03*
X111696500Y-127952000D03*
X96456500Y-120332000D03*
X111696500Y-125412000D03*
X96456500Y-122872000D03*
X111696500Y-122872000D03*
X96456500Y-125412000D03*
X111696500Y-120332000D03*
X96456500Y-127952000D03*
X111696500Y-117792000D03*
X96456500Y-130492000D03*
X111696500Y-115252000D03*
X96456500Y-133032000D03*
X111696500Y-112712000D03*
X96456500Y-135572000D03*
X111696500Y-110172000D03*
X96456500Y-138112000D03*
X111696500Y-107632000D03*
D12*
X96456500Y-140652000D03*
D21*
X102153200Y-100980600D03*
X98669300Y-114435200D03*
X96040200Y-75671200D03*
X95424400Y-79902200D03*
X94548200Y-116732700D03*
X90318800Y-81881000D03*
X87752900Y-83009500D03*
D22*
X93027500Y-88963500D02*
X93027500Y-90213800D01*
X96456500Y-107632000D02*
X96456500Y-106381700D01*
X96456500Y-106381700D02*
X95909500Y-106381700D01*
X95909500Y-106381700D02*
X94605800Y-105078000D01*
X94605800Y-105078000D02*
X94605800Y-91792100D01*
X94605800Y-91792100D02*
X93027500Y-90213800D01*
X105537000Y-68516500D02*
X105537000Y-64524500D01*
X105537000Y-64524500D02*
X108022000Y-62039500D01*
X105537000Y-71056500D02*
X105537000Y-68516500D01*
X104394000Y-97431500D02*
X104394000Y-96181200D01*
X104394000Y-96181200D02*
X102218500Y-94005700D01*
X102218500Y-94005700D02*
X102218500Y-93662500D01*
X104394000Y-97431500D02*
X104394000Y-100707000D01*
X96456500Y-133032000D02*
X96456500Y-134282300D01*
X96456500Y-134282300D02*
X95909400Y-134282300D01*
X95909400Y-134282300D02*
X95206200Y-134985500D01*
X95206200Y-134985500D02*
X95206200Y-139493300D01*
X95206200Y-139493300D02*
X91757500Y-142942000D01*
X105600000Y-125606000D02*
X103840200Y-123846200D01*
X103840200Y-123846200D02*
X103840200Y-102511100D01*
X103840200Y-102511100D02*
X104394000Y-101957300D01*
X98425000Y-74485500D02*
X98425000Y-75835800D01*
X102218500Y-93662500D02*
X102218500Y-79629300D01*
X102218500Y-79629300D02*
X98425000Y-75835800D01*
X104394000Y-100707000D02*
X104394000Y-101957300D01*
X90487500Y-119253000D02*
X90487500Y-121020000D01*
X90487500Y-121020000D02*
X92880500Y-123413000D01*
X92880500Y-123413000D02*
X93071000Y-123603500D01*
X93071000Y-123603500D02*
X93071000Y-126789000D01*
X97218500Y-93662500D02*
X97218500Y-92312200D01*
X97218500Y-92312200D02*
X97953800Y-91576900D01*
X97953800Y-91576900D02*
X97953800Y-76780400D01*
X97953800Y-76780400D02*
X97074600Y-75901200D01*
X97074600Y-75901200D02*
X97074600Y-72754100D01*
X97074600Y-72754100D02*
X95377000Y-71056500D01*
X111696500Y-133032000D02*
X111696500Y-131781700D01*
X111696500Y-131781700D02*
X112243500Y-131781700D01*
X112243500Y-131781700D02*
X113264400Y-130760800D01*
X113264400Y-130760800D02*
X113264400Y-99691400D01*
X113264400Y-99691400D02*
X112429300Y-98856300D01*
X112429300Y-98856300D02*
X111179200Y-98856300D01*
X111179200Y-98856300D02*
X108727000Y-96404100D01*
X108727000Y-96404100D02*
X108727000Y-93853000D01*
X95377000Y-68516500D02*
X95377000Y-71056500D01*
X98669300Y-114435200D02*
X102153200Y-110951300D01*
X102153200Y-110951300D02*
X102153200Y-100980600D01*
X108022000Y-54419500D02*
X108022000Y-55569800D01*
X111887000Y-76136500D02*
X111887000Y-74886200D01*
X111887000Y-74886200D02*
X109460000Y-72459200D01*
X109460000Y-72459200D02*
X109460000Y-57007800D01*
X109460000Y-57007800D02*
X108022000Y-55569800D01*
X111887000Y-76761600D02*
X111887000Y-76136500D01*
X111887000Y-76761600D02*
X111887000Y-77386800D01*
X112003000Y-93853000D02*
X112003000Y-92602700D01*
X112003000Y-92602700D02*
X110636600Y-91236300D01*
X110636600Y-91236300D02*
X110636600Y-78637200D01*
X110636600Y-78637200D02*
X111887000Y-77386800D01*
X96456500Y-119081700D02*
X97003500Y-119081700D01*
X97003500Y-119081700D02*
X97819000Y-118266200D01*
X97819000Y-118266200D02*
X97819000Y-114083100D01*
X97819000Y-114083100D02*
X98368500Y-113533600D01*
X98368500Y-113533600D02*
X98368500Y-97945900D01*
X98368500Y-97945900D02*
X95868100Y-95445500D01*
X95868100Y-95445500D02*
X95868100Y-91477800D01*
X95868100Y-91477800D02*
X97352600Y-89993300D01*
X97352600Y-89993300D02*
X97352600Y-79930200D01*
X97352600Y-79930200D02*
X96040200Y-78617800D01*
X96040200Y-78617800D02*
X96040200Y-75671200D01*
X96456500Y-120332000D02*
X96456500Y-119081700D01*
X112014000Y-100707000D02*
X110763700Y-100707000D01*
X96456500Y-122872000D02*
X97706800Y-122872000D01*
X97706800Y-122872000D02*
X102087800Y-127253000D01*
X102087800Y-127253000D02*
X106630300Y-127253000D01*
X106630300Y-127253000D02*
X108879300Y-125004000D01*
X108879300Y-125004000D02*
X108879300Y-102591400D01*
X108879300Y-102591400D02*
X110763700Y-100707000D01*
X108727000Y-86233000D02*
X108727000Y-87483300D01*
X112014000Y-100707000D02*
X112014000Y-99456700D01*
X112014000Y-99456700D02*
X110920000Y-99456700D01*
X110920000Y-99456700D02*
X107476600Y-96013300D01*
X107476600Y-96013300D02*
X107476600Y-88733700D01*
X107476600Y-88733700D02*
X108727000Y-87483300D01*
X89535200Y-61214000D02*
X89535200Y-65465000D01*
X89535200Y-65465000D02*
X87753000Y-67247200D01*
X87753000Y-67247200D02*
X87753000Y-72661700D01*
X87753000Y-72661700D02*
X89217500Y-74126200D01*
X89217500Y-74126200D02*
X89217500Y-97468800D01*
X89217500Y-97468800D02*
X87537100Y-99149200D01*
X87537100Y-99149200D02*
X87537100Y-123755100D01*
X87537100Y-123755100D02*
X90571000Y-126789000D01*
X96456500Y-130492000D02*
X95206200Y-130492000D01*
X95206200Y-130492000D02*
X95206200Y-130960900D01*
X95206200Y-130960900D02*
X92856700Y-133310400D01*
X92856700Y-133310400D02*
X90662500Y-133310400D01*
X90662500Y-133310400D02*
X89955800Y-132603700D01*
X89955800Y-132603700D02*
X89955800Y-130466300D01*
X89955800Y-130466300D02*
X92256900Y-128165200D01*
X92256900Y-128165200D02*
X93499700Y-128165200D01*
X93499700Y-128165200D02*
X94399200Y-127265700D01*
X94399200Y-127265700D02*
X94399200Y-118675100D01*
X94399200Y-118675100D02*
X90487500Y-114763400D01*
X90487500Y-114763400D02*
X90487500Y-108971000D01*
X93281500Y-77557800D02*
X91757500Y-79081800D01*
X91757500Y-79081800D02*
X91757500Y-97468800D01*
X91757500Y-97468800D02*
X93697900Y-99409200D01*
X93697900Y-99409200D02*
X93697900Y-117084800D01*
X93697900Y-117084800D02*
X94999600Y-118386500D01*
X94999600Y-118386500D02*
X94999600Y-128299900D01*
X94999600Y-128299900D02*
X91757500Y-131542000D01*
X93281500Y-76407500D02*
X93281500Y-77557800D01*
X86659300Y-61214000D02*
X86552400Y-61320900D01*
X86552400Y-61320900D02*
X86552400Y-73158900D01*
X86552400Y-73158900D02*
X86821700Y-73428200D01*
X86821700Y-73428200D02*
X86821700Y-82626000D01*
X86821700Y-82626000D02*
X86657900Y-82789800D01*
X86657900Y-82789800D02*
X86657900Y-94082800D01*
X86657900Y-94082800D02*
X85407500Y-95333200D01*
X85407500Y-96583500D02*
X85407500Y-95333200D01*
X112014000Y-97431500D02*
X112014000Y-96181200D01*
X108611000Y-76136500D02*
X108611000Y-77386800D01*
X108611000Y-77386800D02*
X109977400Y-78753200D01*
X109977400Y-78753200D02*
X109977400Y-94144600D01*
X109977400Y-94144600D02*
X112014000Y-96181200D01*
X94548200Y-116732700D02*
X94548200Y-110255300D01*
X94548200Y-110255300D02*
X95901500Y-108902000D01*
X95901500Y-108902000D02*
X96995000Y-108902000D01*
X96995000Y-108902000D02*
X97764700Y-108132300D01*
X97764700Y-108132300D02*
X97764700Y-98199100D01*
X97764700Y-98199100D02*
X95206200Y-95640600D01*
X95206200Y-95640600D02*
X95206200Y-88869800D01*
X95206200Y-88869800D02*
X96752200Y-87323800D01*
X96752200Y-87323800D02*
X96752200Y-81230000D01*
X96752200Y-81230000D02*
X95424400Y-79902200D01*
X93281500Y-82159200D02*
X93281500Y-81008900D01*
X93281500Y-81008900D02*
X94443000Y-79847400D01*
X94443000Y-79847400D02*
X94443000Y-75890600D01*
X94443000Y-75890600D02*
X92453700Y-73901300D01*
X92453700Y-73901300D02*
X91245600Y-73901300D01*
X91245600Y-73901300D02*
X88953700Y-71609400D01*
X88953700Y-71609400D02*
X88953700Y-68006900D01*
X88953700Y-68006900D02*
X89744500Y-67216100D01*
X89744500Y-67216100D02*
X97208900Y-67216100D01*
X97208900Y-67216100D02*
X99210500Y-65214500D01*
X89535200Y-54744300D02*
X90706400Y-55915500D01*
X90706400Y-55915500D02*
X90706400Y-65405100D01*
X90706400Y-65405100D02*
X88353300Y-67758200D01*
X88353300Y-67758200D02*
X88353300Y-72413000D01*
X88353300Y-72413000D02*
X90318800Y-74378500D01*
X90318800Y-74378500D02*
X90318800Y-81881000D01*
X89535200Y-53594000D02*
X89535200Y-54744300D01*
X86659300Y-54744300D02*
X87855200Y-55940200D01*
X87855200Y-55940200D02*
X87855200Y-65709700D01*
X87855200Y-65709700D02*
X87152700Y-66412200D01*
X87152700Y-66412200D02*
X87152700Y-72910300D01*
X87152700Y-72910300D02*
X87752900Y-73510500D01*
X87752900Y-73510500D02*
X87752900Y-83009500D01*
X86659300Y-53594000D02*
X86659300Y-54744300D01*
X97917000Y-71056500D02*
X97917000Y-68516500D01*
X108077000Y-71056500D02*
X108077000Y-68516500D01*
M02*
