G04 #@! TF.GenerationSoftware,KiCad,Pcbnew,(5.1.10-1-10_14)*
G04 #@! TF.CreationDate,2021-10-15T00:01:35+02:00*
G04 #@! TF.ProjectId,main,6d61696e-2e6b-4696-9361-645f70636258,rev?*
G04 #@! TF.SameCoordinates,Original*
G04 #@! TF.FileFunction,Legend,Bot*
G04 #@! TF.FilePolarity,Positive*
%FSLAX46Y46*%
G04 Gerber Fmt 4.6, Leading zero omitted, Abs format (unit mm)*
G04 Created by KiCad (PCBNEW (5.1.10-1-10_14)) date 2021-10-15 00:01:35*
%MOMM*%
%LPD*%
G01*
G04 APERTURE LIST*
%ADD10C,0.120000*%
%ADD11C,0.150000*%
%ADD12C,1.700000*%
%ADD13O,1.600000X1.600000*%
%ADD14R,1.600000X1.600000*%
%ADD15O,3.100000X2.300000*%
%ADD16O,2.720000X3.240000*%
%ADD17C,1.800000*%
%ADD18R,1.800000X1.800000*%
%ADD19O,1.400000X1.400000*%
%ADD20C,1.400000*%
%ADD21C,1.600000*%
G04 APERTURE END LIST*
D10*
X107577000Y-75736500D02*
X108077000Y-74736500D01*
X108577000Y-75736500D02*
X107577000Y-75736500D01*
X108077000Y-74736500D02*
X108577000Y-75736500D01*
X97137000Y-73036500D02*
X97137000Y-74346500D01*
X97137000Y-73036500D02*
X97137000Y-73036500D01*
X86387000Y-73036500D02*
X97137000Y-73036500D01*
X86387000Y-66536500D02*
X86387000Y-73036500D01*
X111987000Y-66536500D02*
X86387000Y-66536500D01*
X111987000Y-73036500D02*
X111987000Y-66536500D01*
X101237000Y-73036500D02*
X111987000Y-73036500D01*
X101237000Y-74346500D02*
X101237000Y-73036500D01*
X85087000Y-74346500D02*
X113287000Y-74346500D01*
X85087000Y-65226500D02*
X85087000Y-74346500D01*
X113287000Y-65226500D02*
X85087000Y-65226500D01*
X113287000Y-74346500D02*
X113287000Y-65226500D01*
X110324000Y-99587000D02*
X110324000Y-101827000D01*
X110324000Y-101827000D02*
X106084000Y-101827000D01*
X106084000Y-101827000D02*
X106084000Y-99587000D01*
X106084000Y-99587000D02*
X110324000Y-99587000D01*
X110974000Y-100707000D02*
X110324000Y-100707000D01*
X105434000Y-100707000D02*
X106084000Y-100707000D01*
X109604000Y-99587000D02*
X109604000Y-101827000D01*
X109484000Y-99587000D02*
X109484000Y-101827000D01*
X109724000Y-99587000D02*
X109724000Y-101827000D01*
X109847000Y-92163000D02*
X107607000Y-92163000D01*
X107607000Y-92163000D02*
X107607000Y-87923000D01*
X107607000Y-87923000D02*
X109847000Y-87923000D01*
X109847000Y-87923000D02*
X109847000Y-92163000D01*
X108727000Y-92813000D02*
X108727000Y-92163000D01*
X108727000Y-87273000D02*
X108727000Y-87923000D01*
X109847000Y-91443000D02*
X107607000Y-91443000D01*
X109847000Y-91323000D02*
X107607000Y-91323000D01*
X109847000Y-91563000D02*
X107607000Y-91563000D01*
X110324000Y-96311500D02*
X110324000Y-98551500D01*
X110324000Y-98551500D02*
X106084000Y-98551500D01*
X106084000Y-98551500D02*
X106084000Y-96311500D01*
X106084000Y-96311500D02*
X110324000Y-96311500D01*
X110974000Y-97431500D02*
X110324000Y-97431500D01*
X105434000Y-97431500D02*
X106084000Y-97431500D01*
X109604000Y-96311500D02*
X109604000Y-98551500D01*
X109484000Y-96311500D02*
X109484000Y-98551500D01*
X109724000Y-96311500D02*
X109724000Y-98551500D01*
X109731000Y-82066500D02*
X107491000Y-82066500D01*
X107491000Y-82066500D02*
X107491000Y-77826500D01*
X107491000Y-77826500D02*
X109731000Y-77826500D01*
X109731000Y-77826500D02*
X109731000Y-82066500D01*
X108611000Y-82716500D02*
X108611000Y-82066500D01*
X108611000Y-77176500D02*
X108611000Y-77826500D01*
X109731000Y-81346500D02*
X107491000Y-81346500D01*
X109731000Y-81226500D02*
X107491000Y-81226500D01*
X109731000Y-81466500D02*
X107491000Y-81466500D01*
X113123000Y-92163000D02*
X110883000Y-92163000D01*
X110883000Y-92163000D02*
X110883000Y-87923000D01*
X110883000Y-87923000D02*
X113123000Y-87923000D01*
X113123000Y-87923000D02*
X113123000Y-92163000D01*
X112003000Y-92813000D02*
X112003000Y-92163000D01*
X112003000Y-87273000D02*
X112003000Y-87923000D01*
X113123000Y-91443000D02*
X110883000Y-91443000D01*
X113123000Y-91323000D02*
X110883000Y-91323000D01*
X113123000Y-91563000D02*
X110883000Y-91563000D01*
X113007000Y-82066500D02*
X110767000Y-82066500D01*
X110767000Y-82066500D02*
X110767000Y-77826500D01*
X110767000Y-77826500D02*
X113007000Y-77826500D01*
X113007000Y-77826500D02*
X113007000Y-82066500D01*
X111887000Y-82716500D02*
X111887000Y-82066500D01*
X111887000Y-77176500D02*
X111887000Y-77826500D01*
X113007000Y-81346500D02*
X110767000Y-81346500D01*
X113007000Y-81226500D02*
X110767000Y-81226500D01*
X113007000Y-81466500D02*
X110767000Y-81466500D01*
X84077500Y-93773500D02*
G75*
G03*
X84077500Y-91773500I0J1000000D01*
G01*
X84077500Y-91773500D02*
X84077500Y-90123500D01*
X84077500Y-90123500D02*
X94357500Y-90123500D01*
X94357500Y-90123500D02*
X94357500Y-95423500D01*
X94357500Y-95423500D02*
X84077500Y-95423500D01*
X84077500Y-95423500D02*
X84077500Y-93773500D01*
X87089500Y-121935000D02*
X85249500Y-121935000D01*
X85249500Y-121935000D02*
X85249500Y-118095000D01*
X85249500Y-118095000D02*
X87089500Y-118095000D01*
X87089500Y-118095000D02*
X87089500Y-121935000D01*
X86169500Y-122885000D02*
X86169500Y-121935000D01*
X86169500Y-117145000D02*
X86169500Y-118095000D01*
X87551500Y-80203400D02*
X87551500Y-78363400D01*
X87551500Y-78363400D02*
X91391500Y-78363400D01*
X91391500Y-78363400D02*
X91391500Y-80203400D01*
X91391500Y-80203400D02*
X87551500Y-80203400D01*
X86601500Y-79283400D02*
X87551500Y-79283400D01*
X92341500Y-79283400D02*
X91391500Y-79283400D01*
X87579300Y-59324000D02*
X85739300Y-59324000D01*
X85739300Y-59324000D02*
X85739300Y-55484000D01*
X85739300Y-55484000D02*
X87579300Y-55484000D01*
X87579300Y-55484000D02*
X87579300Y-59324000D01*
X86659300Y-60274000D02*
X86659300Y-59324000D01*
X86659300Y-54534000D02*
X86659300Y-55484000D01*
X111818000Y-60149500D02*
X109978000Y-60149500D01*
X109978000Y-60149500D02*
X109978000Y-56309500D01*
X109978000Y-56309500D02*
X111818000Y-56309500D01*
X111818000Y-56309500D02*
X111818000Y-60149500D01*
X110898000Y-61099500D02*
X110898000Y-60149500D01*
X110898000Y-55359500D02*
X110898000Y-56309500D01*
X108942000Y-60149500D02*
X107102000Y-60149500D01*
X107102000Y-60149500D02*
X107102000Y-56309500D01*
X107102000Y-56309500D02*
X108942000Y-56309500D01*
X108942000Y-56309500D02*
X108942000Y-60149500D01*
X108022000Y-61099500D02*
X108022000Y-60149500D01*
X108022000Y-55359500D02*
X108022000Y-56309500D01*
X90455200Y-59324000D02*
X88615200Y-59324000D01*
X88615200Y-59324000D02*
X88615200Y-55484000D01*
X88615200Y-55484000D02*
X90455200Y-55484000D01*
X90455200Y-55484000D02*
X90455200Y-59324000D01*
X89535200Y-60274000D02*
X89535200Y-59324000D01*
X89535200Y-54534000D02*
X89535200Y-55484000D01*
X87551500Y-83079200D02*
X87551500Y-81239200D01*
X87551500Y-81239200D02*
X91391500Y-81239200D01*
X91391500Y-81239200D02*
X91391500Y-83079200D01*
X91391500Y-83079200D02*
X87551500Y-83079200D01*
X86601500Y-82159200D02*
X87551500Y-82159200D01*
X92341500Y-82159200D02*
X91391500Y-82159200D01*
X87551500Y-77327500D02*
X87551500Y-75487500D01*
X87551500Y-75487500D02*
X91391500Y-75487500D01*
X91391500Y-75487500D02*
X91391500Y-77327500D01*
X91391500Y-77327500D02*
X87551500Y-77327500D01*
X86601500Y-76407500D02*
X87551500Y-76407500D01*
X92341500Y-76407500D02*
X91391500Y-76407500D01*
X90001000Y-127959000D02*
X93641000Y-127959000D01*
X90001000Y-125619000D02*
X93641000Y-125619000D01*
X90001000Y-127959000D02*
X90001000Y-127714000D01*
X90001000Y-125864000D02*
X90001000Y-125619000D01*
X93641000Y-127959000D02*
X93641000Y-127714000D01*
X93641000Y-125864000D02*
X93641000Y-125619000D01*
X89810500Y-124583000D02*
X93450500Y-124583000D01*
X89810500Y-122243000D02*
X93450500Y-122243000D01*
X89810500Y-124583000D02*
X89810500Y-124338000D01*
X89810500Y-122488000D02*
X89810500Y-122243000D01*
X93450500Y-124583000D02*
X93450500Y-124338000D01*
X93450500Y-122488000D02*
X93450500Y-122243000D01*
X97726500Y-139382000D02*
X97726500Y-141922000D01*
X97726500Y-141922000D02*
X95056500Y-141922000D01*
X95056500Y-139382000D02*
X95056500Y-101152000D01*
X95056500Y-144592000D02*
X95056500Y-141922000D01*
X110426500Y-141922000D02*
X113096500Y-141922000D01*
X110426500Y-141922000D02*
X110426500Y-103822000D01*
X110426500Y-103822000D02*
X113096500Y-103822000D01*
X97726500Y-139382000D02*
X95056500Y-139382000D01*
X97726500Y-139382000D02*
X97726500Y-103822000D01*
X97726500Y-103822000D02*
X95056500Y-103822000D01*
X95056500Y-101152000D02*
X113096500Y-101152000D01*
X113096500Y-101152000D02*
X113096500Y-144592000D01*
X113096500Y-144592000D02*
X95056500Y-144592000D01*
D11*
X113629380Y-69453166D02*
X114343666Y-69453166D01*
X114486523Y-69405547D01*
X114581761Y-69310309D01*
X114629380Y-69167452D01*
X114629380Y-69072214D01*
X114629380Y-70453166D02*
X114629380Y-69881738D01*
X114629380Y-70167452D02*
X113629380Y-70167452D01*
X113772238Y-70072214D01*
X113867476Y-69976976D01*
X113915095Y-69881738D01*
X108942095Y-99039380D02*
X108942095Y-98039380D01*
X108704000Y-98039380D01*
X108561142Y-98087000D01*
X108465904Y-98182238D01*
X108418285Y-98277476D01*
X108370666Y-98467952D01*
X108370666Y-98610809D01*
X108418285Y-98801285D01*
X108465904Y-98896523D01*
X108561142Y-98991761D01*
X108704000Y-99039380D01*
X108942095Y-99039380D01*
X108037333Y-98039380D02*
X107370666Y-98039380D01*
X107799238Y-99039380D01*
X112275904Y-99359380D02*
X112275904Y-98359380D01*
X111704476Y-99359380D02*
X112133047Y-98787952D01*
X111704476Y-98359380D02*
X112275904Y-98930809D01*
X111299380Y-89304904D02*
X110299380Y-89304904D01*
X110299380Y-89543000D01*
X110347000Y-89685857D01*
X110442238Y-89781095D01*
X110537476Y-89828714D01*
X110727952Y-89876333D01*
X110870809Y-89876333D01*
X111061285Y-89828714D01*
X111156523Y-89781095D01*
X111251761Y-89685857D01*
X111299380Y-89543000D01*
X111299380Y-89304904D01*
X110299380Y-90733476D02*
X110299380Y-90543000D01*
X110347000Y-90447761D01*
X110394619Y-90400142D01*
X110537476Y-90304904D01*
X110727952Y-90257285D01*
X111108904Y-90257285D01*
X111204142Y-90304904D01*
X111251761Y-90352523D01*
X111299380Y-90447761D01*
X111299380Y-90638238D01*
X111251761Y-90733476D01*
X111204142Y-90781095D01*
X111108904Y-90828714D01*
X110870809Y-90828714D01*
X110775571Y-90781095D01*
X110727952Y-90733476D01*
X110680333Y-90638238D01*
X110680333Y-90447761D01*
X110727952Y-90352523D01*
X110775571Y-90304904D01*
X110870809Y-90257285D01*
X110979380Y-93591095D02*
X109979380Y-93591095D01*
X110979380Y-94162523D02*
X110407952Y-93733952D01*
X109979380Y-94162523D02*
X110550809Y-93591095D01*
X108942095Y-95763880D02*
X108942095Y-94763880D01*
X108704000Y-94763880D01*
X108561142Y-94811500D01*
X108465904Y-94906738D01*
X108418285Y-95001976D01*
X108370666Y-95192452D01*
X108370666Y-95335309D01*
X108418285Y-95525785D01*
X108465904Y-95621023D01*
X108561142Y-95716261D01*
X108704000Y-95763880D01*
X108942095Y-95763880D01*
X107465904Y-94763880D02*
X107942095Y-94763880D01*
X107989714Y-95240071D01*
X107942095Y-95192452D01*
X107846857Y-95144833D01*
X107608761Y-95144833D01*
X107513523Y-95192452D01*
X107465904Y-95240071D01*
X107418285Y-95335309D01*
X107418285Y-95573404D01*
X107465904Y-95668642D01*
X107513523Y-95716261D01*
X107608761Y-95763880D01*
X107846857Y-95763880D01*
X107942095Y-95716261D01*
X107989714Y-95668642D01*
X112275904Y-96083880D02*
X112275904Y-95083880D01*
X111704476Y-96083880D02*
X112133047Y-95512452D01*
X111704476Y-95083880D02*
X112275904Y-95655309D01*
X111183380Y-79208404D02*
X110183380Y-79208404D01*
X110183380Y-79446500D01*
X110231000Y-79589357D01*
X110326238Y-79684595D01*
X110421476Y-79732214D01*
X110611952Y-79779833D01*
X110754809Y-79779833D01*
X110945285Y-79732214D01*
X111040523Y-79684595D01*
X111135761Y-79589357D01*
X111183380Y-79446500D01*
X111183380Y-79208404D01*
X110516714Y-80636976D02*
X111183380Y-80636976D01*
X110135761Y-80398880D02*
X110850047Y-80160785D01*
X110850047Y-80779833D01*
X110863380Y-83494595D02*
X109863380Y-83494595D01*
X110863380Y-84066023D02*
X110291952Y-83637452D01*
X109863380Y-84066023D02*
X110434809Y-83494595D01*
X114575380Y-89304904D02*
X113575380Y-89304904D01*
X113575380Y-89543000D01*
X113623000Y-89685857D01*
X113718238Y-89781095D01*
X113813476Y-89828714D01*
X114003952Y-89876333D01*
X114146809Y-89876333D01*
X114337285Y-89828714D01*
X114432523Y-89781095D01*
X114527761Y-89685857D01*
X114575380Y-89543000D01*
X114575380Y-89304904D01*
X113670619Y-90257285D02*
X113623000Y-90304904D01*
X113575380Y-90400142D01*
X113575380Y-90638238D01*
X113623000Y-90733476D01*
X113670619Y-90781095D01*
X113765857Y-90828714D01*
X113861095Y-90828714D01*
X114003952Y-90781095D01*
X114575380Y-90209666D01*
X114575380Y-90828714D01*
X114255380Y-93591095D02*
X113255380Y-93591095D01*
X114255380Y-94162523D02*
X113683952Y-93733952D01*
X113255380Y-94162523D02*
X113826809Y-93591095D01*
X114459380Y-79208404D02*
X113459380Y-79208404D01*
X113459380Y-79446500D01*
X113507000Y-79589357D01*
X113602238Y-79684595D01*
X113697476Y-79732214D01*
X113887952Y-79779833D01*
X114030809Y-79779833D01*
X114221285Y-79732214D01*
X114316523Y-79684595D01*
X114411761Y-79589357D01*
X114459380Y-79446500D01*
X114459380Y-79208404D01*
X114459380Y-80732214D02*
X114459380Y-80160785D01*
X114459380Y-80446500D02*
X113459380Y-80446500D01*
X113602238Y-80351261D01*
X113697476Y-80256023D01*
X113745095Y-80160785D01*
X114139380Y-83494595D02*
X113139380Y-83494595D01*
X114139380Y-84066023D02*
X113567952Y-83637452D01*
X113139380Y-84066023D02*
X113710809Y-83494595D01*
X82529880Y-92011595D02*
X83339404Y-92011595D01*
X83434642Y-92059214D01*
X83482261Y-92106833D01*
X83529880Y-92202071D01*
X83529880Y-92392547D01*
X83482261Y-92487785D01*
X83434642Y-92535404D01*
X83339404Y-92583023D01*
X82529880Y-92583023D01*
X83529880Y-93583023D02*
X83529880Y-93011595D01*
X83529880Y-93297309D02*
X82529880Y-93297309D01*
X82672738Y-93202071D01*
X82767976Y-93106833D01*
X82815595Y-93011595D01*
X88541880Y-119848333D02*
X88065690Y-119515000D01*
X88541880Y-119276904D02*
X87541880Y-119276904D01*
X87541880Y-119657857D01*
X87589500Y-119753095D01*
X87637119Y-119800714D01*
X87732357Y-119848333D01*
X87875214Y-119848333D01*
X87970452Y-119800714D01*
X88018071Y-119753095D01*
X88065690Y-119657857D01*
X88065690Y-119276904D01*
X87970452Y-120419761D02*
X87922833Y-120324523D01*
X87875214Y-120276904D01*
X87779976Y-120229285D01*
X87732357Y-120229285D01*
X87637119Y-120276904D01*
X87589500Y-120324523D01*
X87541880Y-120419761D01*
X87541880Y-120610238D01*
X87589500Y-120705476D01*
X87637119Y-120753095D01*
X87732357Y-120800714D01*
X87779976Y-120800714D01*
X87875214Y-120753095D01*
X87922833Y-120705476D01*
X87970452Y-120610238D01*
X87970452Y-120419761D01*
X88018071Y-120324523D01*
X88065690Y-120276904D01*
X88160928Y-120229285D01*
X88351404Y-120229285D01*
X88446642Y-120276904D01*
X88494261Y-120324523D01*
X88541880Y-120419761D01*
X88541880Y-120610238D01*
X88494261Y-120705476D01*
X88446642Y-120753095D01*
X88351404Y-120800714D01*
X88160928Y-120800714D01*
X88065690Y-120753095D01*
X88018071Y-120705476D01*
X87970452Y-120610238D01*
X85927274Y-119283575D02*
X86593940Y-119283575D01*
X85546321Y-119045480D02*
X86260607Y-118807384D01*
X86260607Y-119426432D01*
X85593940Y-119712146D02*
X85593940Y-120378813D01*
X86593940Y-119950241D01*
X85593940Y-120950241D02*
X85593940Y-121045480D01*
X85641560Y-121140718D01*
X85689179Y-121188337D01*
X85784417Y-121235956D01*
X85974893Y-121283575D01*
X86212988Y-121283575D01*
X86403464Y-121235956D01*
X86498702Y-121188337D01*
X86546321Y-121140718D01*
X86593940Y-121045480D01*
X86593940Y-120950241D01*
X86546321Y-120855003D01*
X86498702Y-120807384D01*
X86403464Y-120759765D01*
X86212988Y-120712146D01*
X85974893Y-120712146D01*
X85784417Y-120759765D01*
X85689179Y-120807384D01*
X85641560Y-120855003D01*
X85593940Y-120950241D01*
X89638166Y-81655780D02*
X89971500Y-81179590D01*
X90209595Y-81655780D02*
X90209595Y-80655780D01*
X89828642Y-80655780D01*
X89733404Y-80703400D01*
X89685785Y-80751019D01*
X89638166Y-80846257D01*
X89638166Y-80989114D01*
X89685785Y-81084352D01*
X89733404Y-81131971D01*
X89828642Y-81179590D01*
X90209595Y-81179590D01*
X89304833Y-80655780D02*
X88638166Y-80655780D01*
X89066738Y-81655780D01*
X90607686Y-78803079D02*
X90560067Y-78755460D01*
X90464829Y-78707840D01*
X90226734Y-78707840D01*
X90131496Y-78755460D01*
X90083877Y-78803079D01*
X90036258Y-78898317D01*
X90036258Y-78993555D01*
X90083877Y-79136412D01*
X90655305Y-79707840D01*
X90036258Y-79707840D01*
X89655305Y-78803079D02*
X89607686Y-78755460D01*
X89512448Y-78707840D01*
X89274353Y-78707840D01*
X89179115Y-78755460D01*
X89131496Y-78803079D01*
X89083877Y-78898317D01*
X89083877Y-78993555D01*
X89131496Y-79136412D01*
X89702924Y-79707840D01*
X89083877Y-79707840D01*
X88655305Y-79707840D02*
X88655305Y-78707840D01*
X88560067Y-79326888D02*
X88274353Y-79707840D01*
X88274353Y-79041174D02*
X88655305Y-79422126D01*
X89031680Y-57237333D02*
X88555490Y-56904000D01*
X89031680Y-56665904D02*
X88031680Y-56665904D01*
X88031680Y-57046857D01*
X88079300Y-57142095D01*
X88126919Y-57189714D01*
X88222157Y-57237333D01*
X88365014Y-57237333D01*
X88460252Y-57189714D01*
X88507871Y-57142095D01*
X88555490Y-57046857D01*
X88555490Y-56665904D01*
X88031680Y-58094476D02*
X88031680Y-57904000D01*
X88079300Y-57808761D01*
X88126919Y-57761142D01*
X88269776Y-57665904D01*
X88460252Y-57618285D01*
X88841204Y-57618285D01*
X88936442Y-57665904D01*
X88984061Y-57713523D01*
X89031680Y-57808761D01*
X89031680Y-57999238D01*
X88984061Y-58094476D01*
X88936442Y-58142095D01*
X88841204Y-58189714D01*
X88603109Y-58189714D01*
X88507871Y-58142095D01*
X88460252Y-58094476D01*
X88412633Y-57999238D01*
X88412633Y-57808761D01*
X88460252Y-57713523D01*
X88507871Y-57665904D01*
X88603109Y-57618285D01*
X86417074Y-56672575D02*
X87083740Y-56672575D01*
X86036121Y-56434480D02*
X86750407Y-56196384D01*
X86750407Y-56815432D01*
X86083740Y-57101146D02*
X86083740Y-57767813D01*
X87083740Y-57339241D01*
X86083740Y-58339241D02*
X86083740Y-58434480D01*
X86131360Y-58529718D01*
X86178979Y-58577337D01*
X86274217Y-58624956D01*
X86464693Y-58672575D01*
X86702788Y-58672575D01*
X86893264Y-58624956D01*
X86988502Y-58577337D01*
X87036121Y-58529718D01*
X87083740Y-58434480D01*
X87083740Y-58339241D01*
X87036121Y-58244003D01*
X86988502Y-58196384D01*
X86893264Y-58148765D01*
X86702788Y-58101146D01*
X86464693Y-58101146D01*
X86274217Y-58148765D01*
X86178979Y-58196384D01*
X86131360Y-58244003D01*
X86083740Y-58339241D01*
X113270380Y-58062833D02*
X112794190Y-57729500D01*
X113270380Y-57491404D02*
X112270380Y-57491404D01*
X112270380Y-57872357D01*
X112318000Y-57967595D01*
X112365619Y-58015214D01*
X112460857Y-58062833D01*
X112603714Y-58062833D01*
X112698952Y-58015214D01*
X112746571Y-57967595D01*
X112794190Y-57872357D01*
X112794190Y-57491404D01*
X112270380Y-58967595D02*
X112270380Y-58491404D01*
X112746571Y-58443785D01*
X112698952Y-58491404D01*
X112651333Y-58586642D01*
X112651333Y-58824738D01*
X112698952Y-58919976D01*
X112746571Y-58967595D01*
X112841809Y-59015214D01*
X113079904Y-59015214D01*
X113175142Y-58967595D01*
X113222761Y-58919976D01*
X113270380Y-58824738D01*
X113270380Y-58586642D01*
X113222761Y-58491404D01*
X113175142Y-58443785D01*
X111322440Y-57664741D02*
X111322440Y-57093313D01*
X111322440Y-57379027D02*
X110322440Y-57379027D01*
X110465298Y-57283789D01*
X110560536Y-57188551D01*
X110608155Y-57093313D01*
X110322440Y-58283789D02*
X110322440Y-58379027D01*
X110370060Y-58474265D01*
X110417679Y-58521884D01*
X110512917Y-58569503D01*
X110703393Y-58617122D01*
X110941488Y-58617122D01*
X111131964Y-58569503D01*
X111227202Y-58521884D01*
X111274821Y-58474265D01*
X111322440Y-58379027D01*
X111322440Y-58283789D01*
X111274821Y-58188551D01*
X111227202Y-58140932D01*
X111131964Y-58093313D01*
X110941488Y-58045694D01*
X110703393Y-58045694D01*
X110512917Y-58093313D01*
X110417679Y-58140932D01*
X110370060Y-58188551D01*
X110322440Y-58283789D01*
X111322440Y-59045694D02*
X110322440Y-59045694D01*
X110941488Y-59140932D02*
X111322440Y-59426646D01*
X110655774Y-59426646D02*
X111036726Y-59045694D01*
X110394380Y-58062833D02*
X109918190Y-57729500D01*
X110394380Y-57491404D02*
X109394380Y-57491404D01*
X109394380Y-57872357D01*
X109442000Y-57967595D01*
X109489619Y-58015214D01*
X109584857Y-58062833D01*
X109727714Y-58062833D01*
X109822952Y-58015214D01*
X109870571Y-57967595D01*
X109918190Y-57872357D01*
X109918190Y-57491404D01*
X109727714Y-58919976D02*
X110394380Y-58919976D01*
X109346761Y-58681880D02*
X110061047Y-58443785D01*
X110061047Y-59062833D01*
X108446440Y-57664741D02*
X108446440Y-57093313D01*
X108446440Y-57379027D02*
X107446440Y-57379027D01*
X107589298Y-57283789D01*
X107684536Y-57188551D01*
X107732155Y-57093313D01*
X107446440Y-58283789D02*
X107446440Y-58379027D01*
X107494060Y-58474265D01*
X107541679Y-58521884D01*
X107636917Y-58569503D01*
X107827393Y-58617122D01*
X108065488Y-58617122D01*
X108255964Y-58569503D01*
X108351202Y-58521884D01*
X108398821Y-58474265D01*
X108446440Y-58379027D01*
X108446440Y-58283789D01*
X108398821Y-58188551D01*
X108351202Y-58140932D01*
X108255964Y-58093313D01*
X108065488Y-58045694D01*
X107827393Y-58045694D01*
X107636917Y-58093313D01*
X107541679Y-58140932D01*
X107494060Y-58188551D01*
X107446440Y-58283789D01*
X108446440Y-59045694D02*
X107446440Y-59045694D01*
X108065488Y-59140932D02*
X108446440Y-59426646D01*
X107779774Y-59426646D02*
X108160726Y-59045694D01*
X91907580Y-57237333D02*
X91431390Y-56904000D01*
X91907580Y-56665904D02*
X90907580Y-56665904D01*
X90907580Y-57046857D01*
X90955200Y-57142095D01*
X91002819Y-57189714D01*
X91098057Y-57237333D01*
X91240914Y-57237333D01*
X91336152Y-57189714D01*
X91383771Y-57142095D01*
X91431390Y-57046857D01*
X91431390Y-56665904D01*
X90907580Y-57570666D02*
X90907580Y-58189714D01*
X91288533Y-57856380D01*
X91288533Y-57999238D01*
X91336152Y-58094476D01*
X91383771Y-58142095D01*
X91479009Y-58189714D01*
X91717104Y-58189714D01*
X91812342Y-58142095D01*
X91859961Y-58094476D01*
X91907580Y-57999238D01*
X91907580Y-57713523D01*
X91859961Y-57618285D01*
X91812342Y-57570666D01*
X89292974Y-56672575D02*
X89959640Y-56672575D01*
X88912021Y-56434480D02*
X89626307Y-56196384D01*
X89626307Y-56815432D01*
X88959640Y-57101146D02*
X88959640Y-57767813D01*
X89959640Y-57339241D01*
X88959640Y-58339241D02*
X88959640Y-58434480D01*
X89007260Y-58529718D01*
X89054879Y-58577337D01*
X89150117Y-58624956D01*
X89340593Y-58672575D01*
X89578688Y-58672575D01*
X89769164Y-58624956D01*
X89864402Y-58577337D01*
X89912021Y-58529718D01*
X89959640Y-58434480D01*
X89959640Y-58339241D01*
X89912021Y-58244003D01*
X89864402Y-58196384D01*
X89769164Y-58148765D01*
X89578688Y-58101146D01*
X89340593Y-58101146D01*
X89150117Y-58148765D01*
X89054879Y-58196384D01*
X89007260Y-58244003D01*
X88959640Y-58339241D01*
X89638166Y-84531580D02*
X89971500Y-84055390D01*
X90209595Y-84531580D02*
X90209595Y-83531580D01*
X89828642Y-83531580D01*
X89733404Y-83579200D01*
X89685785Y-83626819D01*
X89638166Y-83722057D01*
X89638166Y-83864914D01*
X89685785Y-83960152D01*
X89733404Y-84007771D01*
X89828642Y-84055390D01*
X90209595Y-84055390D01*
X89257214Y-83626819D02*
X89209595Y-83579200D01*
X89114357Y-83531580D01*
X88876261Y-83531580D01*
X88781023Y-83579200D01*
X88733404Y-83626819D01*
X88685785Y-83722057D01*
X88685785Y-83817295D01*
X88733404Y-83960152D01*
X89304833Y-84531580D01*
X88685785Y-84531580D01*
X90202924Y-81916974D02*
X90202924Y-82583640D01*
X90441020Y-81536021D02*
X90679115Y-82250307D01*
X90060067Y-82250307D01*
X89774353Y-81583640D02*
X89107686Y-81583640D01*
X89536258Y-82583640D01*
X88536258Y-81583640D02*
X88441020Y-81583640D01*
X88345781Y-81631260D01*
X88298162Y-81678879D01*
X88250543Y-81774117D01*
X88202924Y-81964593D01*
X88202924Y-82202688D01*
X88250543Y-82393164D01*
X88298162Y-82488402D01*
X88345781Y-82536021D01*
X88441020Y-82583640D01*
X88536258Y-82583640D01*
X88631496Y-82536021D01*
X88679115Y-82488402D01*
X88726734Y-82393164D01*
X88774353Y-82202688D01*
X88774353Y-81964593D01*
X88726734Y-81774117D01*
X88679115Y-81678879D01*
X88631496Y-81631260D01*
X88536258Y-81583640D01*
X89638166Y-78779880D02*
X89971500Y-78303690D01*
X90209595Y-78779880D02*
X90209595Y-77779880D01*
X89828642Y-77779880D01*
X89733404Y-77827500D01*
X89685785Y-77875119D01*
X89638166Y-77970357D01*
X89638166Y-78113214D01*
X89685785Y-78208452D01*
X89733404Y-78256071D01*
X89828642Y-78303690D01*
X90209595Y-78303690D01*
X88685785Y-78779880D02*
X89257214Y-78779880D01*
X88971500Y-78779880D02*
X88971500Y-77779880D01*
X89066738Y-77922738D01*
X89161976Y-78017976D01*
X89257214Y-78065595D01*
X90202924Y-76165274D02*
X90202924Y-76831940D01*
X90441020Y-75784321D02*
X90679115Y-76498607D01*
X90060067Y-76498607D01*
X89774353Y-75831940D02*
X89107686Y-75831940D01*
X89536258Y-76831940D01*
X88536258Y-75831940D02*
X88441020Y-75831940D01*
X88345781Y-75879560D01*
X88298162Y-75927179D01*
X88250543Y-76022417D01*
X88202924Y-76212893D01*
X88202924Y-76450988D01*
X88250543Y-76641464D01*
X88298162Y-76736702D01*
X88345781Y-76784321D01*
X88441020Y-76831940D01*
X88536258Y-76831940D01*
X88631496Y-76784321D01*
X88679115Y-76736702D01*
X88726734Y-76641464D01*
X88774353Y-76450988D01*
X88774353Y-76212893D01*
X88726734Y-76022417D01*
X88679115Y-75927179D01*
X88631496Y-75879560D01*
X88536258Y-75831940D01*
X91987666Y-129446142D02*
X92035285Y-129493761D01*
X92178142Y-129541380D01*
X92273380Y-129541380D01*
X92416238Y-129493761D01*
X92511476Y-129398523D01*
X92559095Y-129303285D01*
X92606714Y-129112809D01*
X92606714Y-128969952D01*
X92559095Y-128779476D01*
X92511476Y-128684238D01*
X92416238Y-128589000D01*
X92273380Y-128541380D01*
X92178142Y-128541380D01*
X92035285Y-128589000D01*
X91987666Y-128636619D01*
X91606714Y-128636619D02*
X91559095Y-128589000D01*
X91463857Y-128541380D01*
X91225761Y-128541380D01*
X91130523Y-128589000D01*
X91082904Y-128636619D01*
X91035285Y-128731857D01*
X91035285Y-128827095D01*
X91082904Y-128969952D01*
X91654333Y-129541380D01*
X91035285Y-129541380D01*
X91797166Y-126070142D02*
X91844785Y-126117761D01*
X91987642Y-126165380D01*
X92082880Y-126165380D01*
X92225738Y-126117761D01*
X92320976Y-126022523D01*
X92368595Y-125927285D01*
X92416214Y-125736809D01*
X92416214Y-125593952D01*
X92368595Y-125403476D01*
X92320976Y-125308238D01*
X92225738Y-125213000D01*
X92082880Y-125165380D01*
X91987642Y-125165380D01*
X91844785Y-125213000D01*
X91797166Y-125260619D01*
X90844785Y-126165380D02*
X91416214Y-126165380D01*
X91130500Y-126165380D02*
X91130500Y-125165380D01*
X91225738Y-125308238D01*
X91320976Y-125403476D01*
X91416214Y-125451095D01*
X104790785Y-145898666D02*
X104314595Y-145898666D01*
X104886023Y-146184380D02*
X104552690Y-145184380D01*
X104219357Y-146184380D01*
X103362214Y-146184380D02*
X103933642Y-146184380D01*
X103647928Y-146184380D02*
X103647928Y-145184380D01*
X103743166Y-145327238D01*
X103838404Y-145422476D01*
X103933642Y-145470095D01*
%LPC*%
D12*
X90297000Y-68516500D03*
X92837000Y-68516500D03*
X95377000Y-68516500D03*
X97917000Y-68516500D03*
X100457000Y-68516500D03*
X102997000Y-68516500D03*
X105537000Y-68516500D03*
X108077000Y-68516500D03*
X90297000Y-71056500D03*
X92837000Y-71056500D03*
X95377000Y-71056500D03*
X97917000Y-71056500D03*
X100457000Y-71056500D03*
X102997000Y-71056500D03*
X105537000Y-71056500D03*
G36*
G01*
X108677000Y-71906500D02*
X107477000Y-71906500D01*
G75*
G02*
X107227000Y-71656500I0J250000D01*
G01*
X107227000Y-70456500D01*
G75*
G02*
X107477000Y-70206500I250000J0D01*
G01*
X108677000Y-70206500D01*
G75*
G02*
X108927000Y-70456500I0J-250000D01*
G01*
X108927000Y-71656500D01*
G75*
G02*
X108677000Y-71906500I-250000J0D01*
G01*
G37*
D13*
X104394000Y-100707000D03*
D14*
X112014000Y-100707000D03*
D13*
X108727000Y-86233000D03*
D14*
X108727000Y-93853000D03*
D13*
X104394000Y-97431500D03*
D14*
X112014000Y-97431500D03*
D13*
X108611000Y-76136500D03*
D14*
X108611000Y-83756500D03*
D13*
X112003000Y-86233000D03*
D14*
X112003000Y-93853000D03*
D13*
X111887000Y-76136500D03*
D14*
X111887000Y-83756500D03*
G36*
G01*
X104554000Y-132192000D02*
X104554000Y-130892000D01*
G75*
G02*
X105204000Y-130242000I650000J0D01*
G01*
X106504000Y-130242000D01*
G75*
G02*
X107154000Y-130892000I0J-650000D01*
G01*
X107154000Y-132192000D01*
G75*
G02*
X106504000Y-132842000I-650000J0D01*
G01*
X105204000Y-132842000D01*
G75*
G02*
X104554000Y-132192000I0J650000D01*
G01*
G37*
D15*
X105854000Y-142942000D03*
G36*
G01*
X104554000Y-140492000D02*
X104554000Y-139192000D01*
G75*
G02*
X105204000Y-138542000I650000J0D01*
G01*
X106504000Y-138542000D01*
G75*
G02*
X107154000Y-139192000I0J-650000D01*
G01*
X107154000Y-140492000D01*
G75*
G02*
X106504000Y-141142000I-650000J0D01*
G01*
X105204000Y-141142000D01*
G75*
G02*
X104554000Y-140492000I0J650000D01*
G01*
G37*
D13*
X85407500Y-96583500D03*
X93027500Y-88963500D03*
X87947500Y-96583500D03*
X90487500Y-88963500D03*
X90487500Y-96583500D03*
X87947500Y-88963500D03*
X93027500Y-96583500D03*
D14*
X85407500Y-88963500D03*
D16*
X94918500Y-86162500D03*
X104518500Y-86162500D03*
D17*
X102218500Y-93662500D03*
X99718500Y-93662500D03*
D18*
X97218500Y-93662500D03*
D16*
X94410500Y-57714500D03*
X104010500Y-57714500D03*
D17*
X101710500Y-65214500D03*
X99210500Y-65214500D03*
D18*
X96710500Y-65214500D03*
D19*
X86169500Y-116205000D03*
D20*
X86169500Y-123825000D03*
D19*
X93281500Y-79283400D03*
D20*
X85661500Y-79283400D03*
D19*
X86659300Y-53594000D03*
D20*
X86659300Y-61214000D03*
D19*
X110898000Y-54419500D03*
D20*
X110898000Y-62039500D03*
D19*
X108022000Y-54419500D03*
D20*
X108022000Y-62039500D03*
D19*
X89535200Y-53594000D03*
D20*
X89535200Y-61214000D03*
D19*
X93281500Y-82159200D03*
D20*
X85661500Y-82159200D03*
D19*
X93281500Y-76407500D03*
D20*
X85661500Y-76407500D03*
G36*
G01*
X104300000Y-114856000D02*
X104300000Y-113556000D01*
G75*
G02*
X104950000Y-112906000I650000J0D01*
G01*
X106250000Y-112906000D01*
G75*
G02*
X106900000Y-113556000I0J-650000D01*
G01*
X106900000Y-114856000D01*
G75*
G02*
X106250000Y-115506000I-650000J0D01*
G01*
X104950000Y-115506000D01*
G75*
G02*
X104300000Y-114856000I0J650000D01*
G01*
G37*
D15*
X105600000Y-125606000D03*
G36*
G01*
X104300000Y-123156000D02*
X104300000Y-121856000D01*
G75*
G02*
X104950000Y-121206000I650000J0D01*
G01*
X106250000Y-121206000D01*
G75*
G02*
X106900000Y-121856000I0J-650000D01*
G01*
X106900000Y-123156000D01*
G75*
G02*
X106250000Y-123806000I-650000J0D01*
G01*
X104950000Y-123806000D01*
G75*
G02*
X104300000Y-123156000I0J650000D01*
G01*
G37*
D18*
X90487500Y-119253000D03*
D17*
X93027500Y-119253000D03*
D18*
X98425000Y-74485500D03*
D17*
X100965000Y-74485500D03*
G36*
G01*
X90457500Y-132192000D02*
X90457500Y-130892000D01*
G75*
G02*
X91107500Y-130242000I650000J0D01*
G01*
X92407500Y-130242000D01*
G75*
G02*
X93057500Y-130892000I0J-650000D01*
G01*
X93057500Y-132192000D01*
G75*
G02*
X92407500Y-132842000I-650000J0D01*
G01*
X91107500Y-132842000D01*
G75*
G02*
X90457500Y-132192000I0J650000D01*
G01*
G37*
D15*
X91757500Y-142942000D03*
G36*
G01*
X90457500Y-140492000D02*
X90457500Y-139192000D01*
G75*
G02*
X91107500Y-138542000I650000J0D01*
G01*
X92407500Y-138542000D01*
G75*
G02*
X93057500Y-139192000I0J-650000D01*
G01*
X93057500Y-140492000D01*
G75*
G02*
X92407500Y-141142000I-650000J0D01*
G01*
X91107500Y-141142000D01*
G75*
G02*
X90457500Y-140492000I0J650000D01*
G01*
G37*
D21*
X93071000Y-126789000D03*
X90571000Y-126789000D03*
X92880500Y-123413000D03*
X90380500Y-123413000D03*
D13*
X111696500Y-105092000D03*
X96456500Y-105092000D03*
X111696500Y-140652000D03*
X96456500Y-107632000D03*
X111696500Y-138112000D03*
X96456500Y-110172000D03*
X111696500Y-135572000D03*
X96456500Y-112712000D03*
X111696500Y-133032000D03*
X96456500Y-115252000D03*
X111696500Y-130492000D03*
X96456500Y-117792000D03*
X111696500Y-127952000D03*
X96456500Y-120332000D03*
X111696500Y-125412000D03*
X96456500Y-122872000D03*
X111696500Y-122872000D03*
X96456500Y-125412000D03*
X111696500Y-120332000D03*
X96456500Y-127952000D03*
X111696500Y-117792000D03*
X96456500Y-130492000D03*
X111696500Y-115252000D03*
X96456500Y-133032000D03*
X111696500Y-112712000D03*
X96456500Y-135572000D03*
X111696500Y-110172000D03*
X96456500Y-138112000D03*
X111696500Y-107632000D03*
D14*
X96456500Y-140652000D03*
M02*
